<?xml version="1.0" encoding="utf-8"?>
<!-- Generator: Adobe Illustrator 16.0.0, SVG Export Plug-In . SVG Version: 6.00 Build 0)  -->
<!DOCTYPE svg PUBLIC "-//W3C//DTD SVG 1.1//EN" "http://www.w3.org/Graphics/SVG/1.1/DTD/svg11.dtd">
<svg version="1.1" id="Calque_1" xmlns="http://www.w3.org/2000/svg" xmlns:xlink="http://www.w3.org/1999/xlink" x="0px" y="0px"
	 width="205.916px" height="205.915px" viewBox="0 0 205.916 205.915" enable-background="new 0 0 205.916 205.915"
	 xml:space="preserve">
<rect x="-1019" y="-117" display="none" fill="#F4F4EF" width="1793" height="434"/>
<g>
	<defs>
		<path id="XMLID_1_" d="M205.386,101.931C205.386,158.857,159.45,205,102.785,205S0.187,158.857,0.187,101.931
			C0.187,45.008,46.12-1.139,102.785-1.139S205.386,45.008,205.386,101.931z"/>
	</defs>
	<use xlink:href="#XMLID_1_"  overflow="visible" fill="#97CE68"/>
	<clipPath id="XMLID_9_">
		<use xlink:href="#XMLID_1_"  overflow="visible"/>
	</clipPath>
	<path clip-path="url(#XMLID_9_)" fill="#FFFFFF" d="M186.973,125.687c-17.024-5.924-35.557-4.456-47.312-2.458
		c-0.068-0.187-0.108-0.288-0.108-0.288l-68.454,6.427c0,0-19.073,18.488-30.15,23.388c-19.562,8.653-41.45,1.258-41.45,1.258
		l-6.101,32.643c0,0,27.022,10.619,58.335-2.627c8.729-3.698,16.732-8.603,23.585-13.54c0.212,4.696,0.348,9.612,0.348,14.678
		c0,15.198-1.722,29.487-3.671,40.806c-8.112,0.135-32.458,1.683-50.127,14.894c-24.915,18.626-28.021,46.273-28.021,46.273
		l33.767,12.159c0,0,3.512-21.753,19.394-33.187c11.764-8.462,30.749-10.8,45.017-11.235c-4.396,10.79-9.859,28.269-9.15,47.397
		c1.179,31.188,16.323,49.589,16.323,49.589l32.901-17.795c0,0-13.196-18.274-12.014-37.854c1.549-25.618,19.47-45.843,19.47-45.843
		s9.14-26.475,9.14-66.287c0-11.419-0.851-21.519-2.027-30.087c9.555-0.833,19.309-0.511,27.506,2.198
		c20.3,6.706,31.642,26.904,31.642,26.904l26.262-20.173C232.074,162.926,219.059,136.871,186.973,125.687z"/>
	<path clip-path="url(#XMLID_9_)" fill="#FFFFFF" d="M151.761,68.141c-0.526,0.063-1.033,0.145-1.528,0.241
		c0.249-0.292,0.504-0.581,0.748-0.902c5.781-7.516,4.23-14.522,4.23-14.522s-7.443,0.642-12.929,7.771
		c-1.455,1.897-3.311,4.951-3.961,6.766c3.325,2.117,4.969,6.52,2.931,10.725c2.46,0.979,7.556,1.395,11.806,0.886
		c9.388-1.115,13.279-7.137,13.279-7.137S160.668,67.082,151.761,68.141z"/>
	<path clip-path="url(#XMLID_9_)" fill="#97CE68" d="M104.945,119.681c22.174,0,40.155-18.058,40.155-40.328
		c0-22.272-17.981-40.331-40.155-40.331c-22.167,0-40.128,18.059-40.128,40.331C64.817,101.623,82.778,119.681,104.945,119.681z"/>
	<path clip-path="url(#XMLID_9_)" fill="#FFFFFF" d="M104.948,111.937c17.433,0,31.57-14.196,31.57-31.705
		c0-17.512-14.138-31.708-31.57-31.708c-17.427,0-31.546,14.197-31.546,31.708C73.402,97.74,87.521,111.937,104.948,111.937z"/>
	<rect x="72" y="57" clip-path="url(#XMLID_9_)" fill="#97CE68" width="64" height="34"/>
	<path clip-path="url(#XMLID_9_)" fill="#FFFFFF" d="M70.941,80.835c0,1.481,0.105,2.165,0.281,5.165h67.965
		c0.179-3,0.28-3.683,0.28-5.165c0-6.199-1.642-14.835-4.496-17.835H75.438C72.579,66,70.941,74.636,70.941,80.835z"/>
</g>
</svg>
