<?xml version="1.0" encoding="utf-8"?>
<!-- Generator: Adobe Illustrator 16.0.0, SVG Export Plug-In . SVG Version: 6.00 Build 0)  -->
<!DOCTYPE svg PUBLIC "-//W3C//DTD SVG 1.1//EN" "http://www.w3.org/Graphics/SVG/1.1/DTD/svg11.dtd">
<svg version="1.1" id="Calque_1" xmlns="http://www.w3.org/2000/svg" xmlns:xlink="http://www.w3.org/1999/xlink" x="0px" y="0px"
	 width="205.916px" height="205.915px" viewBox="0 0 205.916 205.915" enable-background="new 0 0 205.916 205.915"
	 xml:space="preserve">
<rect x="-549" y="-116.085" display="none" fill="#F4F4EF" width="1793" height="434"/>
<g>
	<defs>
		<ellipse id="XMLID_7_" cx="102.769" cy="103.041" rx="102.769" ry="103.186"/>
	</defs>
	<use xlink:href="#XMLID_7_"  overflow="visible" fill="#97CE68"/>
	<clipPath id="XMLID_9_">
		<use xlink:href="#XMLID_7_"  overflow="visible"/>
	</clipPath>
	<g clip-path="url(#XMLID_9_)">
		<g>
			<path fill="#FFFFFF" d="M120.435,94.915H96.159c0,0,3.036-9.976,3.036-21.596c0-10.094-1.52-18.509-1.52-18.509l22.76-2.117
				c0,0,3.04,7.781,3.04,20.256C123.475,86.184,120.435,94.915,120.435,94.915z"/>
			<path fill="#FFFFFF" d="M83.212,111.327l-11.225-4.041c0,0,1.031-9.189,9.318-15.378c7.143-5.342,17.591-4.949,17.591-4.949
				l12.095,9.751c0,0-14.415-1.382-21.328,3.585C84.382,104.098,83.212,111.327,83.212,111.327z"/>
			<path fill="#FFFFFF" d="M79.183,42.06l-9.774,5.057c0,0,2.748,9.287,12.606,14.832c8.491,4.777,19.443,3.404,19.443,3.404
				l9.656-10.966c0,0-14.961,2.76-23.137-1.663C81.722,49.337,79.183,42.06,79.183,42.06z"/>
			<path fill="#FFFFFF" d="M142.468,72.71l8.734-6.708c0,0-4.33-8.659-14.999-12.376c-9.197-3.202-19.74,0.083-19.74,0.083
				l-7.581,12.505c0,0,14.239-5.362,23.065-2.449C138.697,65.994,142.468,72.71,142.468,72.71z"/>
			<path fill="#FFFFFF" d="M135.862,112.78l-4.914,11.458c0,0-7.731-1.655-14.449-9.528c-6.774-7.954-8.294-18.236-8.294-18.236
				l12.596-6.43c0,0-0.717,8.374,4.146,15.367C128.666,110.756,135.862,112.78,135.862,112.78z"/>
			<path fill="#FFFFFF" d="M119.427,38.519c0,5.819-4.7,10.537-10.499,10.537c-5.793,0-10.489-4.718-10.489-10.537
				c0-5.819,4.696-10.537,10.489-10.537C114.727,27.982,119.427,32.7,119.427,38.519z"/>
		</g>
		<path fill="none" stroke="#FFFFFF" stroke-width="5.1056" stroke-miterlimit="10" d="M1.459,148.183c0,0,85.315,57.273,204.481,0"
			/>
		<path fill="none" stroke="#FFFFFF" stroke-width="1.9465" stroke-miterlimit="10" d="M106.633,153.926
			c0,0,8.442-8.979,3.179-14.435c-5.254-5.448-16.94-2.724-13.653,1.925c3.289,4.65,21.815-0.163,10.957-13.952"/>
	</g>
</g>
<g>
	<defs>
		<path id="SVGID_1_" d="M-24,103.615c0,57.225-46.097,103.611-102.96,103.611c-56.862,0-102.956-46.387-102.956-103.611
			C-229.916,46.389-183.822,0-126.96,0C-70.097,0-24,46.389-24,103.615z"/>
	</defs>
	<use xlink:href="#SVGID_1_"  overflow="visible" fill="#97CE68"/>
	<clipPath id="SVGID_2_">
		<use xlink:href="#SVGID_1_"  overflow="visible"/>
	</clipPath>
	<g clip-path="url(#SVGID_2_)">
		<path fill="#FFFFFF" d="M-130.342,153.412c-98.907,0-140.298-21.146-142.012-22.045l2.266-4.369l-1.133,2.185l1.13-2.187
			c0.412,0.216,42.245,21.486,139.748,21.486c87.23,0,134.642-21.326,135.111-21.542l2.035,4.484
			C6.325,131.645-42.058,153.412-130.342,153.412z"/>
	</g>
</g>
</svg>
