<?xml version="1.0" encoding="utf-8"?>
<!-- Generator: Adobe Illustrator 16.0.0, SVG Export Plug-In . SVG Version: 6.00 Build 0)  -->
<!DOCTYPE svg PUBLIC "-//W3C//DTD SVG 1.1//EN" "http://www.w3.org/Graphics/SVG/1.1/DTD/svg11.dtd">
<svg version="1.1" id="Calque_1" xmlns="http://www.w3.org/2000/svg" xmlns:xlink="http://www.w3.org/1999/xlink" x="0px" y="0px"
	 width="17px" height="17px" viewBox="0 0 17 17" enable-background="new 0 0 17 17" xml:space="preserve">
<g id="Calque_2">
	<g>
		<g>
			<path fill="#494949" d="M14.294,7.337h-1.141l0.003-3.36c0-1.999-2.077-3.619-4.644-3.619c-2.564,0-4.644,1.62-4.644,3.619
				l-0.022,3.36H2.681c-0.642,0-1.136,0.518-1.136,1.018l-0.024,7.271c0,0.499,0.544,1.018,1.186,1.018H14.32
				c0.641,0,1.134-0.519,1.134-1.018l0.025-7.271C15.479,7.854,14.934,7.337,14.294,7.337z M10.811,7.337H6.173v-3.49
				c0-0.997,1.061-1.681,2.339-1.681c1.279,0,2.314,0.684,2.314,1.681L10.811,7.337z"/>
		</g>
	</g>
</g>
</svg>
