<?xml version="1.0" encoding="utf-8"?>
<!-- Generator: Adobe Illustrator 16.0.0, SVG Export Plug-In . SVG Version: 6.00 Build 0)  -->
<!DOCTYPE svg PUBLIC "-//W3C//DTD SVG 1.1//EN" "http://www.w3.org/Graphics/SVG/1.1/DTD/svg11.dtd">
<svg version="1.1" id="Calque_1" xmlns="http://www.w3.org/2000/svg" xmlns:xlink="http://www.w3.org/1999/xlink" x="0px" y="0px"
	 width="205.916px" height="205.915px" viewBox="0 0 205.916 205.915" enable-background="new 0 0 205.916 205.915"
	 xml:space="preserve">
<rect x="-1487" y="-117" display="none" fill="#F4F4EF" width="1793" height="434"/>
<g>
	<g>
		<defs>
			<circle id="XMLID_5_" cx="102.484" cy="102.27" r="102.588"/>
		</defs>
		<use xlink:href="#XMLID_5_"  overflow="visible" fill="#97CE68"/>
		<clipPath id="XMLID_9_">
			<use xlink:href="#XMLID_5_"  overflow="visible"/>
		</clipPath>
	</g>
	<path fill="none" stroke="#FFFFFF" stroke-width="2.6607" stroke-miterlimit="10" d="M-0.568,110.684
		c0,0,30.582,6.058,103.976,6.058c65.521,0,100.472-6.058,100.472-6.058"/>
	<g>
		<path fill="#FFFFFF" d="M122.767,81.554c-2.693-0.934-5.627-0.704-7.487-0.387c-0.008-0.035-0.015-0.049-0.015-0.049
			l-10.825,1.015c0,0-3.015,2.908-4.768,3.68c-3.098,1.365-6.553,0.195-6.553,0.195l-0.968,5.146c0,0,4.271,1.666,9.227-0.417
			c1.375-0.583,2.645-1.355,3.729-2.134c0.027,0.742,0.054,1.517,0.054,2.311c0,2.393-0.274,4.648-0.578,6.427
			c-1.281,0.02-5.135,0.263-7.928,2.344c-3.944,2.936-4.435,7.284-4.435,7.284l5.34,1.912c0,0,0.56-3.42,3.067-5.223
			c1.859-1.332,4.862-1.701,7.122-1.768c-0.7,1.701-1.56,4.451-1.446,7.461c0.184,4.912,2.582,7.812,2.582,7.812l5.199-2.809
			c0,0-2.086-2.874-1.897-5.956c0.24-4.033,3.078-7.217,3.078-7.217s1.444-4.168,1.444-10.437c0-1.799-0.137-3.387-0.324-4.736
			c1.512-0.134,3.062-0.081,4.35,0.344c3.219,1.058,5.004,4.242,5.004,4.242l4.155-3.181
			C129.894,87.414,127.841,83.316,122.767,81.554z"/>
		<path fill="#FFFFFF" d="M109.792,79.387c2.756,0,4.989-2.233,4.989-4.992c0-2.755-2.233-4.99-4.989-4.99
			c-2.759,0-4.99,2.235-4.99,4.99C104.802,77.153,107.033,79.387,109.792,79.387z"/>
	</g>
</g>
</svg>
