<?xml version="1.0" encoding="utf-8"?>
<!-- Generator: Adobe Illustrator 16.0.0, SVG Export Plug-In . SVG Version: 6.00 Build 0)  -->
<!DOCTYPE svg PUBLIC "-//W3C//DTD SVG 1.1//EN" "http://www.w3.org/Graphics/SVG/1.1/DTD/svg11.dtd">
<svg version="1.1" id="Calque_1" xmlns="http://www.w3.org/2000/svg" xmlns:xlink="http://www.w3.org/1999/xlink" x="0px" y="0px"
	 width="205.916px" height="205.915px" viewBox="0 0 205.916 205.915" enable-background="new 0 0 205.916 205.915"
	 xml:space="preserve">
<rect x="-319.084" y="-117" display="none" fill="#F4F4EF" width="1793" height="434"/>
<g>
	<defs>
		<path id="SVGID_1_" d="M205.916,102.7c0,57.225-46.097,103.611-102.96,103.611C46.093,206.312,0,159.925,0,102.7
			C0,45.474,46.093-0.915,102.956-0.915C159.818-0.915,205.916,45.474,205.916,102.7z"/>
	</defs>
	<use xlink:href="#SVGID_1_"  overflow="visible" fill="#97CE68"/>
	<clipPath id="SVGID_2_">
		<use xlink:href="#SVGID_1_"  overflow="visible"/>
	</clipPath>
	<g clip-path="url(#SVGID_2_)">
		<path fill="#FFFFFF" d="M99.574,152.497c-98.907,0-140.298-21.146-142.012-22.045l2.266-4.369l-1.133,2.185l1.13-2.187
			c0.412,0.216,42.245,21.486,139.748,21.486c87.23,0,134.642-21.326,135.111-21.542l2.035,4.484
			C236.24,130.729,187.858,152.497,99.574,152.497z"/>
	</g>
	<g clip-path="url(#SVGID_2_)">
		<path fill="#FFFFFF" d="M138.263,73.492c-5.977-2.082-12.48-1.572-16.603-0.865c-0.015-0.075-0.034-0.11-0.034-0.11l-24,2.268
			c0,0-6.687,6.49-10.572,8.212c-6.87,3.044-14.533,0.436-14.533,0.436l-2.149,11.483c0,0,9.473,3.717,20.46-0.932
			c3.053-1.302,5.864-3.025,8.277-4.764c0.058,1.656,0.114,3.387,0.114,5.157c0,5.339-0.608,10.371-1.283,14.342
			c-2.842,0.041-11.389,0.587-17.577,5.229c-8.747,6.551-9.831,16.255-9.831,16.255l11.841,4.269c0,0,1.232-7.635,6.796-11.657
			c4.124-2.974,10.781-3.795,15.795-3.947c-1.547,3.798-3.461,9.933-3.213,16.65c0.412,10.96,5.728,17.435,5.728,17.435
			l11.528-6.265c0,0-4.621-6.416-4.203-13.293c0.529-9,6.821-16.103,6.821-16.103s3.204-9.303,3.204-23.292
			c0-4.014-0.3-7.557-0.719-10.568c3.352-0.297,6.786-0.18,9.646,0.77c7.133,2.359,11.095,9.463,11.095,9.463l9.214-7.097
			C154.065,86.568,149.512,77.421,138.263,73.492z"/>
	</g>
	<g clip-path="url(#SVGID_2_)">
		<path fill="#FFFFFF" d="M109.492,68.655c6.111,0,11.064-4.986,11.064-11.14c0-6.148-4.953-11.137-11.064-11.137
			c-6.113,0-11.07,4.989-11.07,11.137C98.422,63.669,103.379,68.655,109.492,68.655z"/>
	</g>
</g>
<g>
	<defs>
		<path id="XMLID_4_" d="M-35.188,101.821c0,56.962-45.922,103.137-102.568,103.137c-56.646,0-102.564-46.175-102.564-103.137
			c0-56.964,45.918-103.141,102.564-103.141C-81.11-1.32-35.188,44.857-35.188,101.821z"/>
	</defs>
	<use xlink:href="#XMLID_4_"  overflow="visible" fill="#97CE68"/>
	<clipPath id="XMLID_9_">
		<use xlink:href="#XMLID_4_"  overflow="visible"/>
	</clipPath>
	<g clip-path="url(#XMLID_9_)">
		<path fill="#FFFFFF" d="M-135.045,152.034c-103.976,0-147.488-22.354-149.29-23.304l2.382-4.619l-1.191,2.309l1.188-2.312
			c0.433,0.228,44.41,22.713,146.91,22.713c91.701,0,141.542-22.543,142.035-22.771l2.14,4.74
			C8.625,129.023-42.237,152.034-135.045,152.034z"/>
	</g>
</g>
</svg>
