<?xml version="1.0" encoding="utf-8"?>
<!-- Generator: Adobe Illustrator 16.0.0, SVG Export Plug-In . SVG Version: 6.00 Build 0)  -->
<!DOCTYPE svg PUBLIC "-//W3C//DTD SVG 1.1//EN" "http://www.w3.org/Graphics/SVG/1.1/DTD/svg11.dtd">
<svg version="1.1" id="Calque_1" xmlns="http://www.w3.org/2000/svg" xmlns:xlink="http://www.w3.org/1999/xlink" x="0px" y="0px"
	 width="24.609px" height="34.443px" viewBox="0 0 24.609 34.443" enable-background="new 0 0 24.609 34.443" xml:space="preserve">
<g id="SupprimerFav" display="none">
	<g display="inline">
		<path fill="none" stroke="#97CE68" stroke-width="2.0286" stroke-miterlimit="10" d="M53.112,38.166
			c-3.208,0-6.066,1.479-8.027,3.777c-1.979-2.299-4.838-3.777-8.044-3.777c-5.919,0-10.721,4.9-10.721,10.941
			c0,13.689,18.767,21.899,18.767,21.899s18.768-8.21,18.768-21.899C63.852,43.066,59.05,38.166,53.112,38.166z"/>
	</g>
	<circle display="inline" fill="#97CE68" cx="63.617" cy="37.93" r="11.964"/>
	
		<text transform="matrix(1 0 0 1 59.863 45.2039)" display="inline" fill="#FFFFFF" font-family="'MyriadPro-Regular'" font-size="28.1501">-</text>
</g>
<g id="Calque_4" display="none">
	<g display="inline">
		<path fill="none" stroke="#A6A5A3" stroke-width="2.0286" stroke-miterlimit="10" d="M52.374,38.166
			c-3.207,0-6.065,1.479-8.026,3.777c-1.979-2.299-4.839-3.777-8.045-3.777c-5.92,0-10.722,4.9-10.722,10.941
			c0,13.689,18.768,21.899,18.768,21.899s18.767-8.21,18.767-21.899C63.114,43.066,58.313,38.166,52.374,38.166z"/>
	</g>
	<circle display="inline" fill="#97CE68" cx="63.617" cy="37.93" r="11.964"/>
	
		<text transform="matrix(1 0 0 1 57.0447 43.8523)" display="inline" fill="#FFFFFF" font-family="'MyriadPro-Regular'" font-size="22.9907">+</text>
	<polygon display="inline" fill="none" points="63.236,37.59 64.829,37.59 64.829,37.59 	"/>
</g>
<g id="Calque_3" display="none">
	
		<circle display="inline" fill="none" stroke="#97CE68" stroke-width="2.0286" stroke-miterlimit="10" cx="49.048" cy="39.948" r="9.924"/>
	<path display="inline" fill="none" stroke="#97CE68" stroke-width="2.0286" stroke-miterlimit="10" d="M27.651,69.016
		c0,0,1.437-19.145,21.397-19.145s20.669,19.145,20.669,19.145s0.236,4.017-2.361,4.017c-2.602,0-36.869,0-36.869,0
		S26.906,72.787,27.651,69.016z"/>
	<circle display="inline" fill="#97CE68" cx="62.265" cy="31.168" r="11.964"/>
	
		<text transform="matrix(1 0 0 1 58.5115 38.4421)" display="inline" fill="#FFFFFF" font-family="'MyriadPro-Regular'" font-size="28.1501">-</text>
</g>
<g id="Calque_5" display="none">
	
		<circle display="inline" fill="none" stroke="#A6A5A3" stroke-width="2.0286" stroke-miterlimit="10" cx="50.4" cy="36.566" r="9.924"/>
	<path display="inline" fill="none" stroke="#A6A5A3" stroke-width="2.0286" stroke-miterlimit="10" d="M29.003,65.635
		c0,0,1.438-19.145,21.398-19.145S71.07,65.635,71.07,65.635s0.236,4.018-2.363,4.018c-2.599,0-36.868,0-36.868,0
		S28.258,69.406,29.003,65.635z"/>
</g>
<g id="Calque_6" display="none">
	<g display="inline">
		<g>
			<polygon fill="none" points="49.582,48.344 41.335,42.768 33.313,56.75 49.582,56.75 65.85,56.75 57.828,42.768 			"/>
			<polygon fill="none" points="29.864,35.013 29.864,51.964 39.459,41.503 			"/>
			<polygon fill="none" points="65.376,34.216 49.582,34.216 33.787,34.216 49.582,45.439 			"/>
			<polygon fill="none" points="69.299,51.964 69.299,35.013 59.704,41.503 			"/>
			<path fill="#A5A5A5" d="M49.582,31.399H27.047v28.167h22.534h22.535V31.399H49.582z M49.582,34.216h15.794L49.582,45.439
				L33.787,34.216H49.582z M29.864,35.013l9.594,6.489l-9.594,10.461V35.013z M49.582,56.75H33.313l8.021-13.981l8.247,5.575
				l8.247-5.575L65.85,56.75H49.582z M69.299,51.964l-9.595-10.461l9.595-6.489V51.964L69.299,51.964z"/>
		</g>
	</g>
</g>
<g id="Calque_7" display="none">
	<g display="inline">
		<g>
			<path fill="#FFFFFF" d="M64.055,58.649L53.204,47.798c1.571-2.207,2.506-4.9,2.506-7.816c0-7.461-6.048-13.506-13.506-13.506
				S28.697,32.52,28.697,39.981c0,7.458,6.047,13.506,13.506,13.506c2.916,0,5.61-0.936,7.817-2.506l10.851,10.851
				c0.879,0.88,2.304,0.88,3.184,0C64.934,60.953,64.934,59.527,64.055,58.649z M49.935,44.528
				c-0.778,1.316-1.868,2.406-3.185,3.184c-1.338,0.79-2.881,1.272-4.547,1.272c-4.973,0-9.004-4.031-9.004-9.003
				c0-4.973,4.032-9.004,9.004-9.004s9.003,4.031,9.003,9.004C51.208,41.647,50.724,43.19,49.935,44.528z"/>
		</g>
	</g>
</g>
<g id="Calque_8" display="none">
	<g display="inline">
		<path fill="#97CE68" d="M48.538,29.308c-6.74,0-12.203,5.89-12.203,12.202c0,3.362,1.679,4.934,4.881,10.663
			c2.815,5.032,5.165,9.603,5.165,9.603c1.166,2.267,3.077,2.269,4.244,0.004c0,0,2.367-4.576,5.235-9.605
			c3.265-5.729,4.882-7.299,4.882-10.662C60.74,35.197,55.278,29.308,48.538,29.308z M48.538,48.833
			c-4.042,0-7.322-3.278-7.322-7.323c0-4.043,3.279-7.321,7.322-7.321c4.045,0,7.323,3.278,7.323,7.321
			C55.86,45.554,52.583,48.833,48.538,48.833z"/>
	</g>
</g>
<g id="Calque_9">
	<g>
		<path fill="#585756" d="M12.305,0.136c-6.741,0-12.203,5.89-12.203,12.203c0,3.362,1.677,4.933,4.881,10.663
			c2.814,5.032,5.165,9.602,5.165,9.602c1.166,2.268,3.079,2.27,4.245,0.004c0,0,2.367-4.575,5.234-9.604
			c3.266-5.73,4.881-7.3,4.881-10.663C24.508,6.026,19.045,0.136,12.305,0.136z M12.305,19.663c-4.042,0-7.322-3.279-7.322-7.322
			s3.279-7.322,7.322-7.322c4.044,0,7.322,3.279,7.322,7.322S16.349,19.663,12.305,19.663z"/>
	</g>
</g>
</svg>
