<?xml version="1.0" encoding="utf-8"?>
<!-- Generator: Adobe Illustrator 16.0.0, SVG Export Plug-In . SVG Version: 6.00 Build 0)  -->
<!DOCTYPE svg PUBLIC "-//W3C//DTD SVG 1.1//EN" "http://www.w3.org/Graphics/SVG/1.1/DTD/svg11.dtd">
<svg version="1.1" id="Calque_1" xmlns="http://www.w3.org/2000/svg" xmlns:xlink="http://www.w3.org/1999/xlink" x="0px" y="0px"
	 width="13px" height="21px" viewBox="0 0 13 21" enable-background="new 0 0 13 21" xml:space="preserve">
<g id="Calque_3">
	<g>
		<g>
			<g>
				<path fill="#434A54" d="M10.977,12.075c-2.049-1.46-2.813-2.148-1.502-3.306c1.312-1.157,2.352-2.094,2.352-4.244
					c0-2.149-1.778-3.25-1.778-3.25s1.285,0.192,1.969-0.194C12.701,0.697,13,0.449,13,0.449H6.466
					c-1.309,0-4.945,1.487-4.945,4.958c0,3.472,3.771,4.216,5.139,4.161c-0.767,0.937-0.11,1.792,0.302,2.229
					c0.409,0.441,0.325,0.579-0.165,0.579c-0.493,0-6.561,0.065-6.561,4.409c0,4.346,8.063,4.658,10.714,2.318
					C13.601,16.764,13.027,13.533,10.977,12.075z M7.097,8.713c-3.254,0-4.729-7.602-0.902-7.602
					C9.173,0.999,11.415,8.713,7.097,8.713z M6.712,19.35c-2.705,0-4.154-1.35-4.154-3.362s1.969-3.004,5.659-3.004
					c1.001,0.771,2.788,1.708,2.788,3.583S9.413,19.35,6.712,19.35z"/>
			</g>
		</g>
	</g>
</g>
</svg>
