<?xml version="1.0" encoding="utf-8"?>
<!-- Generator: Adobe Illustrator 16.0.0, SVG Export Plug-In . SVG Version: 6.00 Build 0)  -->
<!DOCTYPE svg PUBLIC "-//W3C//DTD SVG 1.1//EN" "http://www.w3.org/Graphics/SVG/1.1/DTD/svg11.dtd">
<svg version="1.1" id="Calque_1" xmlns="http://www.w3.org/2000/svg" xmlns:xlink="http://www.w3.org/1999/xlink" x="0px" y="0px"
	 width="50px" height="50px" viewBox="0 0 50 50" enable-background="new 0 0 50 50" xml:space="preserve">
<g>
	<path fill="#888785" d="M39.158,11.377c-0.822-0.822-2.154-0.822-2.977,0l-12.631,12.63c-0.822,0.822-0.822,2.155,0,2.977
		l12.631,12.629c0.41,0.412,0.949,0.617,1.488,0.617c0.537,0,1.076-0.205,1.488-0.617c0.822-0.822,0.822-2.154,0-2.977
		L28.016,25.496l11.143-11.142C39.98,13.531,39.98,12.199,39.158,11.377z"/>
</g>
<g>
	<path fill="#888785" d="M10.55,39.613c0.822,0.822,2.154,0.822,2.977,0l12.631-12.631c0.822-0.822,0.822-2.154,0-2.977
		L13.526,11.377c-0.41-0.412-0.949-0.617-1.488-0.617c-0.537,0-1.076,0.205-1.488,0.617c-0.822,0.822-0.822,2.154,0,2.977
		l11.143,11.141L10.55,36.637C9.728,37.459,9.728,38.791,10.55,39.613z"/>
</g>
</svg>
