<?xml version="1.0" encoding="utf-8"?>
<!-- Generator: Adobe Illustrator 16.0.0, SVG Export Plug-In . SVG Version: 6.00 Build 0)  -->
<!DOCTYPE svg PUBLIC "-//W3C//DTD SVG 1.1//EN" "http://www.w3.org/Graphics/SVG/1.1/DTD/svg11.dtd">
<svg version="1.1" xmlns="http://www.w3.org/2000/svg" xmlns:xlink="http://www.w3.org/1999/xlink" x="0px" y="0px" width="30px"
	 height="60px" viewBox="0 0 30 60" enable-background="new 0 0 30 60" xml:space="preserve">
<g id="Calque_1">
	<path fill-rule="evenodd" clip-rule="evenodd" fill="#FCFBFA" d="M21.876,40.522h-4.889v-3.568c0-1.094,1.132-1.348,1.66-1.348
		c0.525,0,3.157,0,3.157,0v-4.815l-3.619-0.019c-4.938,0-6.065,3.591-6.065,5.892v3.858H8.537v4.961h3.583
		c0,6.369,0,13.394,0,13.394h4.867c0,0,0-7.097,0-13.394h4.134L21.876,40.522z"/>
	<path fill-rule="evenodd" clip-rule="evenodd" fill="#A5A4A2" d="M21.67,10.75h-4.889V7.182c0-1.094,1.132-1.348,1.66-1.348
		c0.525,0,3.157,0,3.157,0V1.019L17.979,1c-4.938,0-6.065,3.591-6.065,5.892v3.858H8.331v4.961h3.583c0,6.369,0,13.394,0,13.394
		h4.867c0,0,0-7.097,0-13.394h4.134L21.67,10.75z"/>
</g>
<g id="Calque_2" display="none">
	<path display="inline" fill="#A5A4A2" d="M26.934,36.818c-0.39,0.232-1.561,0.694-2.651,0.81c0.7-0.406,1.735-1.737,1.991-2.794
		c-0.673,0.462-2.217,1.136-2.98,1.136c0,0,0,0.002,0.002,0.003c-0.87-0.98-2.095-1.59-3.454-1.59c-2.637,0-4.776,2.303-4.776,5.144
		c0,0.395,0.044,0.778,0.123,1.146h-0.001c-3.578-0.099-7.761-2.03-10.118-5.336c-1.447,2.7-0.195,5.701,1.449,6.795
		c-0.561,0.047-1.598-0.068-2.086-0.579c-0.034,1.792,0.768,4.166,3.684,5.026c-0.562,0.326-1.554,0.233-1.988,0.161
		c0.153,1.515,2.12,3.493,4.269,3.493c-0.766,0.952-3.38,2.687-6.615,2.134c2.197,1.441,4.759,2.274,7.471,2.274
		c7.706,0,13.69-6.725,13.368-15.021c0-0.009-0.003-0.02-0.003-0.027c0-0.023,0.003-0.046,0.003-0.066
		c0-0.026-0.003-0.05-0.003-0.078C25.318,38.936,26.26,38.022,26.934,36.818z"/>
</g>
<g id="Calque_3" display="none">
	<g display="inline">
		<g>
			<g>
				<path fill="#A5A4A2" d="M17.473,33.629c0.822-0.46,1.182-0.76,1.182-0.76h-7.851c-1.573,0-5.941,1.787-5.941,5.958
					c0,4.173,4.53,5.067,6.174,5c-0.922,1.125-0.132,2.152,0.362,2.678c0.492,0.531,0.392,0.695-0.197,0.695
					c-0.592,0-7.883,0.079-7.883,5.299c0,5.221,9.688,5.598,12.873,2.784c3.185-2.812,2.495-6.692,0.032-8.445
					c-2.463-1.754-3.381-2.582-1.805-3.972s2.824-2.516,2.824-5.099c0-2.583-2.135-3.905-2.135-3.905S16.65,34.094,17.473,33.629z
					 M16.256,52.235c0,2.252-1.911,3.343-5.158,3.343c-3.249,0-4.99-1.621-4.99-4.038c0-2.419,2.365-3.609,6.798-3.609
					C14.109,48.856,16.256,49.981,16.256,52.235z M11.561,42.799c-3.909,0-5.683-9.134-1.084-9.134
					C14.056,33.531,16.748,42.799,11.561,42.799z M24.514,35.901V32.93h-1.535v2.971h-3.005v1.542h3.005v2.975h1.535v-2.975h2.955
					v-1.542H24.514z"/>
			</g>
		</g>
	</g>
</g>
<g id="Calque_4" display="none">
	<g display="inline">
		<g>
			<path fill="#A4A4A4" d="M15.365,37.338H3.211V52.53h12.154h12.154V37.338H15.365z M15.365,38.857h8.519l-8.519,6.053
				l-8.519-6.053H15.365z M4.73,39.288l5.175,3.5L4.73,48.43V39.288z M15.365,51.011H6.591l4.326-7.541l4.448,3.008l4.448-3.008
				l4.326,7.541H15.365z M25.999,48.43l-5.175-5.643l5.175-3.5V48.43z"/>
		</g>
	</g>
</g>
</svg>
