<?xml version="1.0" encoding="utf-8"?>
<!-- Generator: Adobe Illustrator 16.0.0, SVG Export Plug-In . SVG Version: 6.00 Build 0)  -->
<!DOCTYPE svg PUBLIC "-//W3C//DTD SVG 1.1//EN" "http://www.w3.org/Graphics/SVG/1.1/DTD/svg11.dtd">
<svg version="1.1" xmlns="http://www.w3.org/2000/svg" xmlns:xlink="http://www.w3.org/1999/xlink" x="0px" y="0px" width="30px"
	 height="30px" viewBox="0 0 30 30" enable-background="new 0 0 30 30" xml:space="preserve">
<g id="Calque_1" display="none">
	<path display="inline" fill-rule="evenodd" clip-rule="evenodd" fill="#A5A4A2" d="M21.876,10.522h-4.889V6.954
		c0-1.094,1.132-1.348,1.66-1.348c0.525,0,3.157,0,3.157,0V0.791l-3.619-0.019c-4.938,0-6.065,3.591-6.065,5.892v3.858H8.537v4.961
		h3.583c0,6.369,0,13.394,0,13.394h4.867c0,0,0-7.097,0-13.394h4.134L21.876,10.522z"/>
</g>
<g id="Calque_2">
	<path fill="#A5A4A2" d="M26.934,6.818c-0.39,0.232-1.561,0.694-2.651,0.81c0.7-0.406,1.735-1.737,1.991-2.794
		c-0.673,0.462-2.217,1.136-2.98,1.136c0,0,0,0.002,0.002,0.003c-0.87-0.98-2.095-1.59-3.454-1.59c-2.637,0-4.776,2.303-4.776,5.144
		c0,0.395,0.044,0.778,0.123,1.146h-0.001c-3.578-0.099-7.761-2.03-10.118-5.336c-1.447,2.7-0.195,5.701,1.449,6.795
		c-0.561,0.047-1.598-0.068-2.086-0.579c-0.034,1.792,0.768,4.166,3.684,5.026c-0.562,0.326-1.554,0.233-1.988,0.161
		c0.153,1.515,2.12,3.493,4.269,3.493c-0.766,0.952-3.38,2.687-6.615,2.134c2.197,1.441,4.759,2.274,7.471,2.274
		c7.706,0,13.69-6.725,13.368-15.021c0-0.009-0.003-0.02-0.003-0.027c0-0.023,0.003-0.046,0.003-0.066
		c0-0.026-0.003-0.05-0.003-0.078C25.318,8.936,26.26,8.022,26.934,6.818z"/>
</g>
</svg>
