<?xml version="1.0" encoding="utf-8"?>
<!-- Generator: Adobe Illustrator 16.0.0, SVG Export Plug-In . SVG Version: 6.00 Build 0)  -->
<!DOCTYPE svg PUBLIC "-//W3C//DTD SVG 1.1//EN" "http://www.w3.org/Graphics/SVG/1.1/DTD/svg11.dtd">
<svg version="1.1" xmlns="http://www.w3.org/2000/svg" xmlns:xlink="http://www.w3.org/1999/xlink" x="0px" y="0px" width="200px"
	 height="200px" viewBox="0 0 200 200" enable-background="new 0 0 200 200" xml:space="preserve">
<g id="Calque_1" display="none">
	<g display="inline">
		<g>
			<path fill="#434A54" d="M110.955,121.243l-5.081-20.264c9.406-4.696,15.995-15.558,15.995-28.254c0-16.989,0-30.74-26.361-30.74
				c-26.634,0.274-26.36,13.772-26.36,30.761c0,12.696,6.589,23.592,15.995,28.287l-5.081,20.208C33.694,123.068,34,134,34,156
				h123.017C157.017,134,157.323,123.07,110.955,121.243z"/>
		</g>
	</g>
</g>
<g id="Calque_2">
	<g>
		<g>
			<path fill="#494949" d="M150.779,89.805h-9.996l0.029-29.453c0-17.523-18.201-31.723-40.704-31.723
				c-22.473,0-40.704,14.199-40.704,31.723l-0.189,29.453H49c-5.625,0-9.957,4.535-9.957,8.922l-0.219,63.725
				c0,4.381,4.77,8.921,10.396,8.921h101.8c5.605,0,9.938-4.54,9.938-8.921l0.219-63.725
				C161.176,94.34,156.387,89.805,150.779,89.805z M120.252,89.805H79.608V59.217c0-8.742,9.3-14.731,20.501-14.731
				c11.211,0,20.282,5.989,20.282,14.731L120.252,89.805z"/>
		</g>
	</g>
</g>
</svg>
