<?xml version="1.0" encoding="utf-8"?>
<!-- Generator: Adobe Illustrator 16.0.0, SVG Export Plug-In . SVG Version: 6.00 Build 0)  -->
<!DOCTYPE svg PUBLIC "-//W3C//DTD SVG 1.1//EN" "http://www.w3.org/Graphics/SVG/1.1/DTD/svg11.dtd">
<svg version="1.1" id="Calque_1" xmlns="http://www.w3.org/2000/svg" xmlns:xlink="http://www.w3.org/1999/xlink" x="0px" y="0px"
	 width="100px" height="100px" viewBox="0 0 100 100" enable-background="new 0 0 100 100" xml:space="preserve">
<g id="SupprimerFav" display="none">
	<g display="inline">
		<path fill="none" stroke="#97CE68" stroke-width="3" stroke-miterlimit="10" d="M54.324,35.393c-4.743,0-8.97,2.185-11.871,5.586
			c-2.927-3.401-7.155-5.586-11.897-5.586c-8.754,0-15.855,7.247-15.855,16.181c0,20.246,27.753,32.388,27.753,32.388
			S70.207,71.82,70.207,51.574C70.206,42.64,63.105,35.393,54.324,35.393z"/>
	</g>
	<circle display="inline" fill="#97CE68" cx="69.859" cy="35.045" r="17.693"/>
	
		<text transform="matrix(1 0 0 1 64.3076 45.8008)" display="inline" fill="#FFFFFF" font-family="'MyriadPro-Regular'" font-size="41.63">-</text>
</g>
<g id="Calque_4" display="none">
	<g display="inline">
		<path fill="none" stroke="#A6A5A3" stroke-width="3" stroke-miterlimit="10" d="M53.232,35.393c-4.742,0-8.97,2.185-11.871,5.586
			c-2.927-3.401-7.155-5.586-11.897-5.586c-8.754,0-15.855,7.247-15.855,16.181c0,20.246,27.753,32.388,27.753,32.388
			S69.116,71.82,69.116,51.574C69.115,42.64,62.016,35.393,53.232,35.393z"/>
	</g>
	<circle display="inline" fill="#97CE68" cx="69.859" cy="35.045" r="17.693"/>
	
		<text transform="matrix(1 0 0 1 60.1396 43.8008)" display="inline" fill="#FFFFFF" font-family="'MyriadPro-Regular'" font-size="34">+</text>
	<polygon display="inline" fill="none" points="69.296,34.542 71.652,34.542 71.652,34.542 	"/>
</g>
<g id="Calque_3" display="none">
	
		<circle display="inline" fill="none" stroke="#97CE68" stroke-width="3" stroke-miterlimit="10" cx="48.314" cy="38.028" r="14.676"/>
	<path display="inline" fill="none" stroke="#97CE68" stroke-width="3" stroke-miterlimit="10" d="M16.671,81.016
		c0,0,2.125-28.312,31.645-28.312s30.567,28.312,30.567,28.312s0.35,5.94-3.494,5.94c-3.845,0-54.523,0-54.523,0
		S15.569,86.593,16.671,81.016z"/>
	<circle display="inline" fill="#97CE68" cx="67.859" cy="25.045" r="17.693"/>
	
		<text transform="matrix(1 0 0 1 62.3076 35.8008)" display="inline" fill="#FFFFFF" font-family="'MyriadPro-Regular'" font-size="41.63">-</text>
</g>
<g id="Calque_5" display="none">
	
		<circle display="inline" fill="none" stroke="#A6A5A3" stroke-width="3" stroke-miterlimit="10" cx="50.314" cy="33.028" r="14.676"/>
	<path display="inline" fill="none" stroke="#A6A5A3" stroke-width="3" stroke-miterlimit="10" d="M18.671,76.016
		c0,0,2.125-28.312,31.645-28.312s30.567,28.312,30.567,28.312s0.35,5.94-3.494,5.94c-3.845,0-54.523,0-54.523,0
		S17.569,81.593,18.671,76.016z"/>
</g>
<g id="Calque_6" display="none">
	<g display="inline">
		<g>
			<polygon fill="none" points="49.103,50.445 36.907,42.199 25.045,62.877 49.103,62.877 73.161,62.877 61.299,42.199 			"/>
			<polygon fill="none" points="19.943,30.731 19.943,55.799 34.133,40.328 			"/>
			<polygon fill="none" points="72.461,29.552 49.103,29.552 25.745,29.552 49.103,46.149 			"/>
			<polygon fill="none" points="78.262,55.799 78.262,30.731 64.073,40.328 			"/>
			<path fill="#A5A5A5" d="M49.103,25.386H15.778v41.656h33.325h33.325V25.386H49.103z M49.103,29.552h23.358L49.103,46.149
				L25.745,29.552H49.103z M19.943,30.731l14.189,9.597L19.943,55.799V30.731z M49.103,62.877H25.045l11.862-20.678l12.196,8.246
				l12.196-8.246l11.862,20.678H49.103z M78.262,55.799L64.073,40.328l14.188-9.597V55.799L78.262,55.799z"/>
		</g>
	</g>
</g>
<g id="Calque_7">
	<g>
		<g>
			<path fill="#555555" d="M75.506,70.686L59.46,54.639c2.324-3.265,3.706-7.249,3.706-11.561c0-11.034-8.943-19.974-19.974-19.974
				c-11.03,0-19.974,8.94-19.974,19.974c0,11.029,8.943,19.974,19.974,19.974c4.312,0,8.296-1.382,11.56-3.706l16.046,16.047
				c1.3,1.301,3.407,1.301,4.707,0C76.807,74.092,76.807,71.984,75.506,70.686z M54.625,49.802c-1.15,1.947-2.762,3.558-4.709,4.709
				c-1.979,1.167-4.26,1.882-6.724,1.882c-7.354,0-13.316-5.961-13.316-13.314s5.962-13.316,13.316-13.316
				s13.315,5.962,13.315,13.316C56.508,45.542,55.792,47.823,54.625,49.802z"/>
		</g>
	</g>
</g>
</svg>
