<?xml version="1.0" encoding="utf-8"?>
<!-- Generator: Adobe Illustrator 16.0.0, SVG Export Plug-In . SVG Version: 6.00 Build 0)  -->
<!DOCTYPE svg PUBLIC "-//W3C//DTD SVG 1.1//EN" "http://www.w3.org/Graphics/SVG/1.1/DTD/svg11.dtd">
<svg version="1.1" id="Calque_1" xmlns="http://www.w3.org/2000/svg" xmlns:xlink="http://www.w3.org/1999/xlink" x="0px" y="0px"
	 width="205.916px" height="205.915px" viewBox="0 0 205.916 205.915" enable-background="new 0 0 205.916 205.915"
	 xml:space="preserve">
<rect x="-786.084" y="-117" display="none" fill="#F4F4EF" width="1793" height="434"/>
<g>
	<defs>
		<path id="XMLID_6_" d="M204.984,102.036c0,56.931-45.768,103.089-102.224,103.089c-56.447,0-102.212-46.158-102.212-103.089
			C0.548,45.095,46.313-1.065,102.76-1.065C159.216-1.065,204.984,45.095,204.984,102.036z"/>
	</defs>
	<use xlink:href="#XMLID_6_"  overflow="visible" fill="#97CE68"/>
	<clipPath id="XMLID_9_">
		<use xlink:href="#XMLID_6_"  overflow="visible"/>
	</clipPath>
	<g clip-path="url(#XMLID_9_)">
		<path fill="#FFFFFF" d="M44.916,196.849V74H0.865c0,0-9.567,45.646,1.472,68.082C13.464,164.653,44.916,196.849,44.916,196.849z"
			/>
		<path fill="none" stroke="#FFFFFF" stroke-width="3.7832" stroke-miterlimit="10" d="M43.787,108.803
			c0,0,17.558,9.616,59.702,9.616c37.623,0,57.69-9.616,57.69-9.616"/>
		<rect x="28.036" y="105.307" fill="#97CE68" width="8.425" height="8.497"/>
		<rect x="28.036" y="85.131" fill="#97CE68" width="8.425" height="8.503"/>
		<rect x="28.036" y="145.316" fill="#97CE68" width="8.425" height="8.499"/>
		<rect x="28.036" y="125.138" fill="#97CE68" width="8.425" height="8.501"/>
		<rect x="28.036" y="165.146" fill="#97CE68" width="8.425" height="8.501"/>
		<rect x="9.154" y="105.307" fill="#97CE68" width="8.42" height="8.497"/>
		<rect x="9.154" y="85.131" fill="#97CE68" width="8.42" height="8.503"/>
		<rect x="9.154" y="125.138" fill="#97CE68" width="8.42" height="8.501"/>
		<rect x="9.154" y="145.315" fill="#97CE68" width="8.42" height="8.5"/>
		<path fill="#FFFFFF" d="M159.916,199.378V74h43.755c0,0,9.411,46.91-1.525,69.351C191.13,165.916,159.916,199.378,159.916,199.378
			z"/>
		<rect x="168.417" y="105.307" fill="#97CE68" width="8.344" height="8.497"/>
		<rect x="168.417" y="85.131" fill="#97CE68" width="8.344" height="8.503"/>
		<rect x="168.417" y="145.316" fill="#97CE68" width="8.344" height="8.499"/>
		<rect x="168.417" y="125.138" fill="#97CE68" width="8.344" height="8.501"/>
		<rect x="168.417" y="165.146" fill="#97CE68" width="8.344" height="8.501"/>
		<rect x="187.12" y="105.307" fill="#97CE68" width="8.345" height="8.497"/>
		<rect x="187.12" y="85.131" fill="#97CE68" width="8.345" height="8.503"/>
		<rect x="187.12" y="125.138" fill="#97CE68" width="8.345" height="8.501"/>
		<rect x="187.12" y="145.315" fill="#97CE68" width="8.345" height="8.5"/>
		<g>
			<path fill="#FFFFFF" d="M121.94,83.975c-2.634-0.92-5.505-0.694-7.322-0.381c-0.005-0.034-0.014-0.049-0.014-0.049l-10.583,1.002
				c0,0-2.948,2.867-4.662,3.629c-3.027,1.345-6.407,0.192-6.407,0.192l-0.947,5.074c0,0,4.176,1.643,9.021-0.412
				c1.347-0.576,2.586-1.336,3.648-2.104c0.026,0.73,0.052,1.496,0.052,2.279c0,2.359-0.268,4.582-0.566,6.336
				c-1.255,0.019-5.021,0.26-7.751,2.312c-3.856,2.895-4.334,7.184-4.334,7.184l5.221,1.885c0,0,0.544-3.373,2.999-5.15
				c1.817-1.313,4.752-1.677,6.962-1.744c-0.682,1.677-1.525,4.39-1.416,7.357c0.181,4.843,2.524,7.705,2.524,7.705l5.084-2.769
				c0,0-2.038-2.835-1.853-5.875c0.232-3.977,3.007-7.115,3.007-7.115s1.414-4.111,1.414-10.293c0-1.773-0.134-3.338-0.319-4.669
				c1.479-0.131,2.993-0.08,4.254,0.339c3.145,1.044,4.891,4.182,4.891,4.182l4.064-3.136
				C128.908,89.753,126.899,85.711,121.94,83.975z"/>
			<path fill="#FFFFFF" d="M109.255,81.837c2.694,0,4.877-2.204,4.877-4.921s-2.184-4.922-4.877-4.922
				c-2.697,0-4.882,2.204-4.882,4.922S106.558,81.837,109.255,81.837z"/>
		</g>
	</g>
</g>
</svg>
