<?xml version="1.0" encoding="utf-8"?>
<!-- Generator: Adobe Illustrator 16.0.0, SVG Export Plug-In . SVG Version: 6.00 Build 0)  -->
<!DOCTYPE svg PUBLIC "-//W3C//DTD SVG 1.1//EN" "http://www.w3.org/Graphics/SVG/1.1/DTD/svg11.dtd">
<svg version="1.1" id="Calque_1" xmlns="http://www.w3.org/2000/svg" xmlns:xlink="http://www.w3.org/1999/xlink" x="0px" y="0px"
	 width="30px" height="80px" viewBox="0 0 30 80" enable-background="new 0 0 30 80" xml:space="preserve">
<g id="Calque_1_1_" display="none">
	<path display="inline" fill="#FCFBFA" d="M21.876,40.521h-4.89v-3.567c0-1.095,1.133-1.349,1.66-1.349c0.525,0,3.158,0,3.158,0
		v-4.814l-3.619-0.02c-4.938,0-6.065,3.592-6.065,5.893v3.857H8.537v4.961h3.583c0,6.369,0,13.395,0,13.395h4.866
		c0,0,0-7.098,0-13.395h4.135L21.876,40.521z"/>
	<path display="inline" fill="#A5A4A2" d="M21.67,10.75h-4.889V7.182c0-1.094,1.132-1.348,1.66-1.348c0.524,0,3.156,0,3.156,0V1.019
		L17.979,1c-4.938,0-6.064,3.591-6.064,5.892v3.858H8.331v4.961h3.583c0,6.369,0,13.394,0,13.394h4.867c0,0,0-7.097,0-13.394h4.134
		L21.67,10.75z"/>
</g>
<g id="Calque_2" display="none">
	<path display="inline" fill="#A5A4A2" d="M25.934,7.358c-0.39,0.232-1.561,0.694-2.65,0.81c0.699-0.406,1.734-1.737,1.99-2.794
		c-0.672,0.462-2.217,1.136-2.979,1.136c0,0,0,0.002,0.002,0.003c-0.87-0.98-2.095-1.59-3.454-1.59
		c-2.637,0-4.776,2.303-4.776,5.144c0,0.395,0.044,0.778,0.123,1.146h-0.001C10.61,11.114,6.427,9.183,4.07,5.877
		c-1.447,2.7-0.195,5.701,1.449,6.795c-0.561,0.047-1.598-0.068-2.086-0.579c-0.034,1.792,0.768,4.166,3.684,5.026
		c-0.562,0.326-1.554,0.233-1.988,0.161c0.153,1.515,2.12,3.493,4.269,3.493c-0.766,0.952-3.38,2.687-6.615,2.134
		c2.197,1.441,4.759,2.274,7.471,2.274c7.706,0,13.689-6.725,13.368-15.021c0-0.009-0.003-0.02-0.003-0.027
		c0-0.023,0.003-0.046,0.003-0.066c0-0.026-0.003-0.05-0.003-0.078C24.318,9.476,25.26,8.562,25.934,7.358z"/>
	<path display="inline" fill="#FFFFFF" d="M26.782,37.253c-0.39,0.231-1.562,0.694-2.651,0.81c0.7-0.406,1.735-1.736,1.991-2.793
		c-0.673,0.461-2.218,1.135-2.979,1.135c0,0,0,0.002,0.002,0.004c-0.871-0.98-2.096-1.59-3.455-1.59
		c-2.637,0-4.775,2.303-4.775,5.144c0,0.396,0.044,0.778,0.123,1.146h-0.001c-3.578-0.098-7.761-2.029-10.118-5.336
		c-1.447,2.701-0.195,5.701,1.449,6.795c-0.561,0.047-1.598-0.067-2.086-0.578c-0.034,1.791,0.768,4.166,3.684,5.025
		c-0.562,0.326-1.554,0.233-1.988,0.161c0.153,1.515,2.12,3.493,4.269,3.493c-0.766,0.952-3.38,2.688-6.615,2.135
		c2.197,1.44,4.759,2.273,7.471,2.273c7.707,0,13.69-6.725,13.369-15.021c0-0.009-0.004-0.02-0.004-0.027
		c0-0.022,0.004-0.045,0.004-0.065c0-0.026-0.004-0.05-0.004-0.078C25.167,39.37,26.107,38.457,26.782,37.253z"/>
</g>
<g>
	<g>
		<g>
			<path fill="#A5A4A2" d="M17.285,3.736c0.822-0.46,1.182-0.76,1.182-0.76h-7.851c-1.573,0-5.941,1.787-5.941,5.958
				c0,4.173,4.53,5.067,6.174,5c-0.922,1.125-0.132,2.152,0.362,2.678c0.492,0.531,0.392,0.695-0.197,0.695
				c-0.592,0-7.883,0.079-7.883,5.299c0,5.221,9.688,5.598,12.873,2.784c3.184-2.812,2.494-6.692,0.031-8.445
				c-2.462-1.754-3.381-2.582-1.805-3.972c1.577-1.39,2.825-2.516,2.825-5.099s-2.136-3.905-2.136-3.905S16.463,4.2,17.285,3.736z
				 M16.068,22.342c0,2.252-1.913,3.343-5.158,3.343c-3.249,0-4.99-1.621-4.99-4.038c0-2.419,2.365-3.609,6.798-3.609
				C13.921,18.963,16.068,20.088,16.068,22.342z M11.373,12.906c-3.909,0-5.683-9.134-1.084-9.134
				C13.868,3.638,16.561,12.906,11.373,12.906z M24.326,6.007v-2.97h-1.535v2.971h-3.006V7.55h3.006v2.975h1.535V7.549h2.955V6.007
				H24.326z"/>
		</g>
	</g>
</g>
<g>
	<g>
		<g>
			<path fill="#FFFFFF" d="M17.285,53.736c0.822-0.461,1.182-0.76,1.182-0.76h-7.852c-1.573,0-5.941,1.787-5.941,5.957
				c0,4.174,4.53,5.067,6.174,5c-0.922,1.125-0.132,2.152,0.362,2.678c0.492,0.531,0.392,0.695-0.197,0.695
				c-0.592,0-7.883,0.08-7.883,5.299c0,5.222,9.688,5.599,12.874,2.785c3.184-2.813,2.494-6.693,0.031-8.445
				c-2.463-1.754-3.381-2.582-1.805-3.973c1.577-1.39,2.825-2.516,2.825-5.099s-2.136-3.905-2.136-3.905S16.463,54.2,17.285,53.736z
				 M16.068,72.342c0,2.252-1.913,3.344-5.159,3.344c-3.249,0-4.99-1.621-4.99-4.039s2.365-3.608,6.798-3.608
				C13.92,68.963,16.068,70.088,16.068,72.342z M11.373,62.906c-3.909,0-5.683-9.135-1.084-9.135
				C13.868,53.639,16.561,62.906,11.373,62.906z M24.326,56.007v-2.971h-1.535v2.971h-3.006v1.542h3.006v2.975h1.535v-2.975h2.955
				v-1.542H24.326z"/>
		</g>
	</g>
</g>
<g id="Calque_4" display="none">
	<g display="inline">
		<g>
			<path fill="#A4A4A4" d="M15.365,37.338H3.211v15.191h12.154H27.52V37.338H15.365z M15.365,38.857h8.519l-8.519,6.053
				l-8.519-6.053H15.365z M4.73,39.288l5.175,3.5L4.73,48.43V39.288z M15.365,51.012H6.591l4.326-7.541l4.448,3.008l4.447-3.008
				l4.326,7.541H15.365z M25.999,48.43l-5.175-5.643l5.175-3.5V48.43z"/>
		</g>
	</g>
</g>
</svg>
