<?xml version="1.0" encoding="utf-8"?>
<!-- Generator: Adobe Illustrator 16.0.0, SVG Export Plug-In . SVG Version: 6.00 Build 0)  -->
<!DOCTYPE svg PUBLIC "-//W3C//DTD SVG 1.1//EN" "http://www.w3.org/Graphics/SVG/1.1/DTD/svg11.dtd">
<svg version="1.1" id="Calque_1" xmlns="http://www.w3.org/2000/svg" xmlns:xlink="http://www.w3.org/1999/xlink" x="0px" y="0px"
	 width="30px" height="80px" viewBox="0 0 30 80" enable-background="new 0 0 30 80" xml:space="preserve">
<g id="Calque_1_1_">
	<path fill="#FCFBFA" d="M21.876,60.521h-4.89v-3.567c0-1.095,1.133-1.349,1.66-1.349c0.525,0,3.158,0,3.158,0v-4.814l-3.619-0.02
		c-4.938,0-6.065,3.592-6.065,5.893v3.857H8.537v4.961h3.583c0,6.369,0,13.395,0,13.395h4.866c0,0,0-7.098,0-13.395h4.135
		L21.876,60.521z"/>
	<path fill="#A5A4A2" d="M21.67,10.75h-4.889V7.182c0-1.094,1.132-1.348,1.66-1.348c0.524,0,3.156,0,3.156,0V1.019L17.979,1
		c-4.938,0-6.064,3.591-6.064,5.892v3.858H8.331v4.961h3.583c0,6.369,0,13.394,0,13.394h4.867c0,0,0-7.097,0-13.394h4.134
		L21.67,10.75z"/>
</g>
<g id="Calque_2" display="none">
	<path display="inline" fill="#A5A4A2" d="M26.934,36.818c-0.39,0.231-1.561,0.693-2.65,0.81c0.699-0.405,1.734-1.737,1.99-2.794
		c-0.672,0.462-2.217,1.137-2.979,1.137c0,0,0,0.002,0.002,0.002c-0.87-0.979-2.095-1.59-3.454-1.59
		c-2.637,0-4.776,2.303-4.776,5.145c0,0.395,0.044,0.777,0.123,1.146h-0.001c-3.578-0.099-7.761-2.03-10.118-5.336
		c-1.447,2.7-0.195,5.701,1.449,6.795c-0.561,0.048-1.598-0.067-2.086-0.579c-0.034,1.793,0.768,4.166,3.684,5.026
		c-0.562,0.325-1.554,0.233-1.988,0.161c0.153,1.515,2.12,3.492,4.269,3.492c-0.766,0.953-3.38,2.688-6.615,2.135
		c2.197,1.441,4.759,2.273,7.471,2.273c7.706,0,13.689-6.725,13.368-15.021c0-0.009-0.003-0.021-0.003-0.026
		c0-0.023,0.003-0.047,0.003-0.066c0-0.026-0.003-0.051-0.003-0.078C25.318,38.936,26.26,38.021,26.934,36.818z"/>
</g>
<g id="Calque_3" display="none">
	<g display="inline">
		<g>
			<g>
				<path fill="#A5A4A2" d="M17.473,33.629c0.822-0.46,1.182-0.76,1.182-0.76h-7.85c-1.573,0-5.941,1.787-5.941,5.958
					c0,4.173,4.53,5.067,6.174,5c-0.922,1.125-0.132,2.151,0.362,2.678c0.492,0.531,0.392,0.695-0.197,0.695
					c-0.592,0-7.883,0.079-7.883,5.299c0,5.222,9.688,5.599,12.873,2.784c3.186-2.813,2.496-6.692,0.033-8.445
					c-2.463-1.754-3.382-2.582-1.806-3.972s2.824-2.517,2.824-5.099c0-2.584-2.135-3.906-2.135-3.906S16.65,34.094,17.473,33.629z
					 M16.256,52.234c0,2.252-1.911,3.344-5.158,3.344c-3.249,0-4.99-1.621-4.99-4.038c0-2.419,2.365-3.608,6.798-3.608
					C14.109,48.855,16.256,49.98,16.256,52.234z M11.561,42.799c-3.909,0-5.683-9.134-1.084-9.134
					C14.056,33.531,16.748,42.799,11.561,42.799z M24.514,35.9V32.93h-1.535V35.9h-3.004v1.543h3.004v2.975h1.535v-2.975h2.955V35.9
					H24.514z"/>
			</g>
		</g>
	</g>
</g>
<g id="Calque_4" display="none">
	<g display="inline">
		<g>
			<path fill="#A4A4A4" d="M15.365,37.338H3.211v15.191h12.154H27.52V37.338H15.365z M15.365,38.857h8.519l-8.519,6.053
				l-8.519-6.053H15.365z M4.73,39.288l5.175,3.5L4.73,48.43V39.288z M15.365,51.012H6.591l4.326-7.541l4.448,3.008l4.447-3.008
				l4.326,7.541H15.365z M25.999,48.43l-5.175-5.643l5.175-3.5V48.43z"/>
		</g>
	</g>
</g>
</svg>
