<?xml version="1.0" encoding="utf-8"?>
<!-- Generator: Adobe Illustrator 16.0.0, SVG Export Plug-In . SVG Version: 6.00 Build 0)  -->
<!DOCTYPE svg PUBLIC "-//W3C//DTD SVG 1.1//EN" "http://www.w3.org/Graphics/SVG/1.1/DTD/svg11.dtd">
<svg version="1.1" id="Calque_1" xmlns="http://www.w3.org/2000/svg" xmlns:xlink="http://www.w3.org/1999/xlink" x="0px" y="0px"
	 width="50px" height="130px" viewBox="0 0.25 50 130" enable-background="new 0 0.25 50 130" xml:space="preserve">
<g id="SupprimerFav" display="none">
	<g display="inline">
		<path fill="none" stroke="#97CE68" stroke-width="3" stroke-miterlimit="10" d="M54.324,35.393c-4.743,0-8.97,2.185-11.871,5.586
			c-2.927-3.401-7.155-5.586-11.897-5.586c-8.754,0-15.855,7.247-15.855,16.181c0,20.246,27.753,32.388,27.753,32.388
			S70.207,71.82,70.207,51.574C70.206,42.64,63.105,35.393,54.324,35.393z"/>
	</g>
	<circle display="inline" fill="#97CE68" cx="69.859" cy="35.045" r="17.693"/>
	
		<text transform="matrix(1 0 0 1 64.3076 45.7998)" display="inline" fill="#FFFFFF" font-family="'MyriadPro-Regular'" font-size="41.63">-</text>
</g>
<g id="Calque_4" display="none">
	<g display="inline">
		<path fill="none" stroke="#A6A5A3" stroke-width="3" stroke-miterlimit="10" d="M53.232,35.393c-4.742,0-8.97,2.185-11.871,5.586
			c-2.927-3.401-7.155-5.586-11.897-5.586c-8.754,0-15.855,7.247-15.855,16.181c0,20.246,27.753,32.388,27.753,32.388
			S69.116,71.82,69.116,51.574C69.115,42.64,62.016,35.393,53.232,35.393z"/>
	</g>
	<circle display="inline" fill="#97CE68" cx="69.859" cy="35.045" r="17.693"/>
	
		<text transform="matrix(1 0 0 1 60.1396 43.7998)" display="inline" fill="#FFFFFF" font-family="'MyriadPro-Regular'" font-size="34">+</text>
	<polygon display="inline" fill="none" points="69.296,34.542 71.652,34.542 71.652,34.542 	"/>
</g>
<g id="Calque_3" display="none">
	
		<circle display="inline" fill="none" stroke="#97CE68" stroke-width="3" stroke-miterlimit="10" cx="48.314" cy="38.028" r="14.676"/>
	<path display="inline" fill="none" stroke="#97CE68" stroke-width="3" stroke-miterlimit="10" d="M16.671,81.016
		c0,0,2.125-28.312,31.645-28.312s30.567,28.312,30.567,28.312s0.35,5.94-3.494,5.94c-3.845,0-54.523,0-54.523,0
		S15.569,86.594,16.671,81.016z"/>
	<circle display="inline" fill="#97CE68" cx="67.859" cy="25.045" r="17.693"/>
	
		<text transform="matrix(1 0 0 1 62.3076 35.7998)" display="inline" fill="#FFFFFF" font-family="'MyriadPro-Regular'" font-size="41.63">-</text>
</g>
<g id="Calque_5" display="none">
	
		<circle display="inline" fill="none" stroke="#A6A5A3" stroke-width="3" stroke-miterlimit="10" cx="50.314" cy="33.028" r="14.676"/>
	<path display="inline" fill="none" stroke="#A6A5A3" stroke-width="3" stroke-miterlimit="10" d="M18.671,76.016
		c0,0,2.125-28.312,31.645-28.312s30.567,28.312,30.567,28.312s0.35,5.94-3.494,5.94c-3.845,0-54.523,0-54.523,0
		S17.569,81.594,18.671,76.016z"/>
</g>
<g id="Calque_6" display="none">
	<g display="inline">
		<g>
			<polygon fill="none" points="49.103,50.445 36.907,42.199 25.045,62.877 49.103,62.877 73.161,62.877 61.299,42.199 			"/>
			<polygon fill="none" points="19.943,30.731 19.943,55.799 34.133,40.328 			"/>
			<polygon fill="none" points="72.461,29.552 49.103,29.552 25.745,29.552 49.103,46.149 			"/>
			<polygon fill="none" points="78.262,55.799 78.262,30.731 64.072,40.328 			"/>
			<path fill="#A5A5A5" d="M49.103,25.386H15.778v41.656h33.325h33.325V25.386H49.103z M49.103,29.552h23.358L49.103,46.149
				L25.745,29.552H49.103z M19.943,30.731l14.189,9.597L19.943,55.799V30.731z M49.103,62.877H25.045l11.862-20.678l12.196,8.246
				l12.196-8.246l11.862,20.678H49.103z M78.262,55.799L64.072,40.328l14.189-9.597V55.799L78.262,55.799z"/>
		</g>
	</g>
</g>
<g id="Calque_7" display="none">
	<g display="inline">
		<g>
			<path fill="#FFFFFF" d="M70.506,65.686L54.46,49.638c2.324-3.264,3.706-7.248,3.706-11.56c0-11.034-8.944-19.974-19.974-19.974
				c-11.03,0-19.974,8.94-19.974,19.974c0,11.03,8.943,19.975,19.974,19.975c4.312,0,8.296-1.383,11.56-3.707l16.046,16.047
				c1.3,1.301,3.407,1.301,4.707,0C71.807,69.092,71.807,66.984,70.506,65.686z M49.625,44.802
				c-1.151,1.947-2.762,3.558-4.709,4.709c-1.979,1.167-4.26,1.881-6.724,1.881c-7.354,0-13.316-5.961-13.316-13.314
				s5.962-13.316,13.316-13.316s13.315,5.962,13.315,13.316C51.508,40.542,50.792,42.823,49.625,44.802z"/>
		</g>
	</g>
</g>
<g id="Calque_8">
	<g>
		<path fill="#97CE68" d="M25.893,4.626c-9.968,0-18.047,8.71-18.047,18.047c0,4.972,2.481,7.295,7.219,15.77
			c4.163,7.441,7.638,14.2,7.638,14.2c1.724,3.352,4.551,3.354,6.277,0.006c0,0,3.5-6.768,7.742-14.206
			c4.828-8.474,7.219-10.795,7.219-15.77C43.939,13.336,35.861,4.626,25.893,4.626z M25.893,33.502
			c-5.978,0-10.828-4.849-10.828-10.829c0-5.979,4.85-10.828,10.828-10.828c5.982,0,10.83,4.849,10.83,10.828
			C36.722,28.653,31.875,33.502,25.893,33.502z"/>
	</g>
</g>
<g id="Calque_9" display="none">
	<g display="inline">
		<path fill="#585756" d="M49.559,24.293c-9.968,0-18.047,8.71-18.047,18.047c0,4.972,2.481,7.295,7.219,15.77
			c4.163,7.441,7.638,14.199,7.638,14.199c1.724,3.352,4.551,3.354,6.277,0.006c0,0,3.5-6.768,7.74-14.205
			c4.829-8.474,7.219-10.795,7.219-15.77C67.605,33.003,59.527,24.293,49.559,24.293z M49.559,53.169
			c-5.978,0-10.828-4.849-10.828-10.829c0-5.979,4.85-10.828,10.828-10.828c5.982,0,10.83,4.849,10.83,10.828
			C60.389,48.32,55.541,53.169,49.559,53.169z"/>
	</g>
</g>
<g id="Calque_8_1_">
	<g>
		<path fill="#FFFFFF" d="M25.892,71.293c-9.968,0-18.046,8.71-18.046,18.047c0,4.973,2.481,7.295,7.219,15.77
			c4.163,7.441,7.638,14.199,7.638,14.199c1.724,3.352,4.551,3.354,6.277,0.006c0,0,3.5-6.768,7.742-14.205
			c4.828-8.475,7.219-10.795,7.219-15.77C43.939,80.003,35.861,71.293,25.892,71.293z M25.892,100.169
			c-5.978,0-10.828-4.849-10.828-10.829c0-5.979,4.85-10.828,10.828-10.828c5.982,0,10.83,4.85,10.83,10.828
			C36.722,95.32,31.875,100.169,25.892,100.169z"/>
	</g>
</g>
</svg>
