<?xml version="1.0" encoding="utf-8"?>
<!-- Generator: Adobe Illustrator 16.0.0, SVG Export Plug-In . SVG Version: 6.00 Build 0)  -->
<!DOCTYPE svg PUBLIC "-//W3C//DTD SVG 1.1//EN" "http://www.w3.org/Graphics/SVG/1.1/DTD/svg11.dtd">
<svg version="1.1" xmlns="http://www.w3.org/2000/svg" xmlns:xlink="http://www.w3.org/1999/xlink" x="0px" y="0px" width="200px"
	 height="60px" viewBox="0 0 200 60" enable-background="new 0 0 200 60" xml:space="preserve">
<g id="Calque_1" display="none">
	<g id="e18H1p_1_" display="inline">
		
			<image overflow="visible" width="185" height="24" id="e18H1p" xlink:href="D6A47A9F20DABB13.jpg"  transform="matrix(1 0 0 1 9.8384 14.2583)">
		</image>
	</g>
</g>
<g id="Calque_2">
	<path fill="#97C569" d="M34.696,34.146l-1.103,0.455c0,0-0.105,0.428-0.147,0.513c-0.029,0.06,0.95-0.368,0.95-0.368L34.696,34.146
		z"/>
	<g>
		<path fill="#97C569" d="M31.122,22.715c0,0-1.99,1.052-2.409-0.229c-0.418-1.282-0.558-3.102,0.069-4.493
			c0.176-1.135,0.385-1.135,0.769-1.062c0.384,0.037,1.815-1.427,3.42,0.916c0.77,1.5-1.012,4.137-1.012,4.137
			s-0.419,0.699,0.593,1.3c0,0,1.292,0.493,2.549,1.92c1.255,1.427,0.684,1.007,2.081,1.749c1.168,0.376,1.514,0.558,1.932,0.886
			c0.42,0.33,0.839,0.806,3.177,2.161c0.384,0.182,6.389,2.963,4.19,2.708c-2.2-0.256-3.526-0.695-4.19-0.586
			c-0.663,0.11-0.383-0.768-1.081-1.061s-4.434-0.916-5.237-2.379c-1.152-0.732-2.827-2.342-2.827-2.342"/>
		<path fill="#F3F3F3" d="M31.133,22.736c-0.271,0.146-0.556,0.268-0.855,0.355c-0.298,0.083-0.616,0.138-0.94,0.075
			c-0.163-0.026-0.318-0.108-0.452-0.216c-0.129-0.117-0.217-0.265-0.279-0.423c-0.096-0.3-0.182-0.586-0.244-0.9
			c-0.064-0.307-0.112-0.614-0.136-0.926c-0.032-0.311-0.032-0.624-0.023-0.938c0.025-0.312,0.041-0.629,0.124-0.937
			c0.041-0.153,0.057-0.312,0.12-0.46l0.164-0.45l-0.015,0.048c0.044-0.259,0.079-0.515,0.182-0.788
			c0.051-0.129,0.115-0.293,0.306-0.407c0.203-0.097,0.375-0.052,0.504-0.034l-0.018-0.003c0.05-0.033,0.06-0.015,0.144-0.055
			l0.221-0.101c0.166-0.059,0.316-0.147,0.498-0.181c0.178-0.039,0.353-0.098,0.543-0.078l0.28,0.01
			c0.095-0.006,0.178,0.049,0.267,0.072c0.167,0.073,0.37,0.095,0.501,0.222l0.433,0.322c0.139,0.111,0.229,0.261,0.346,0.39
			l0.331,0.403l0.013,0.021c0.115,0.257,0.189,0.53,0.194,0.8c0.014,0.27-0.012,0.535-0.067,0.79
			c-0.103,0.512-0.288,0.992-0.506,1.452c-0.11,0.229-0.228,0.454-0.356,0.673l-0.196,0.325c-0.058,0.101-0.162,0.228-0.189,0.305
			c-0.04,0.093-0.053,0.208-0.045,0.315c0.012,0.11,0.047,0.215,0.107,0.313c0.116,0.198,0.31,0.344,0.509,0.479l-0.013-0.006
			c0.24,0.099,0.451,0.235,0.671,0.357c0.224,0.117,0.411,0.29,0.618,0.432c0.423,0.276,0.751,0.664,1.126,0.998
			c0.19,0.167,0.342,0.366,0.509,0.55c0.164,0.187,0.327,0.379,0.493,0.551c0.083,0.088,0.159,0.185,0.266,0.237
			c0.103,0.061,0.19,0.131,0.305,0.185l0.666,0.338l-0.019-0.008l0.712,0.254c0.233,0.099,0.486,0.138,0.703,0.286
			c0.216,0.135,0.457,0.26,0.653,0.407l0.591,0.458c0.191,0.163,0.409,0.281,0.619,0.412l0.633,0.387l1.264,0.774l-0.015-0.008
			c1.339,0.614,2.672,1.237,3.965,1.987c0.161,0.1,0.321,0.196,0.48,0.315c0.08,0.06,0.161,0.123,0.244,0.208
			c0.044,0.063,0.091,0.08,0.134,0.236c0.029,0.035-0.005,0.214-0.071,0.278c-0.046,0.045-0.128,0.094-0.17,0.104
			c-0.542,0.074-0.817-0.061-1.204-0.09c-0.725-0.094-1.461-0.244-2.182-0.37c-0.354-0.058-0.723-0.137-1.039-0.12
			c-0.105-0.001-0.112-0.01-0.299-0.005c-0.085-0.005-0.17,0.025-0.374-0.088c-0.272-0.203-0.299-0.428-0.372-0.572
			c-0.126-0.33-0.295-0.431-0.676-0.54l-1.054-0.304c-0.709-0.21-1.419-0.434-2.102-0.741c-0.668-0.314-1.378-0.676-1.794-1.372
			l0.042,0.044c-0.481-0.387-0.96-0.777-1.431-1.174c-0.487-0.378-0.899-0.837-1.346-1.255l0.032-0.034
			c0.473,0.389,0.911,0.821,1.416,1.164c0.494,0.358,0.979,0.723,1.461,1.091c0.016,0.012,0.032,0.029,0.042,0.044
			c0.369,0.58,1.049,0.92,1.705,1.197c0.668,0.275,1.373,0.472,2.08,0.656l1.075,0.272c0.189,0.051,0.364,0.096,0.576,0.24
			c0.194,0.135,0.323,0.343,0.401,0.522c0.076,0.184,0.158,0.343,0.187,0.354c0.01-0.01-0.041,0.02,0.013,0.02l0.138,0.001
			c-0.003,0.007,0.174,0.001,0.252,0.004c0.423-0.02,0.777,0.064,1.148,0.12c0.729,0.123,1.435,0.265,2.17,0.355
			c0.341,0.042,0.794,0.131,0.984,0.104c0.002-0.002-0.044,0.016-0.049,0.038c-0.055,0.025-0.049,0.158-0.048,0.15
			c0.024,0.063,0.001,0.014-0.01,0.005c-0.045-0.047-0.107-0.1-0.174-0.15c-0.134-0.104-0.287-0.2-0.438-0.296
			c-1.239-0.748-2.571-1.384-3.889-2.029l-0.008-0.004l-0.007-0.004l-1.261-0.829l-0.629-0.414c-0.208-0.14-0.426-0.268-0.61-0.436
			l-0.577-0.477c-0.197-0.158-0.401-0.266-0.602-0.403c-0.192-0.146-0.449-0.192-0.671-0.292l-0.69-0.264l-0.009-0.003l-0.01-0.004
			l-0.658-0.354c-0.213-0.132-0.46-0.264-0.61-0.471c-0.176-0.19-0.329-0.382-0.49-0.573c-0.163-0.188-0.31-0.391-0.492-0.556
			l-0.525-0.521c-0.165-0.186-0.366-0.329-0.57-0.468c-0.206-0.136-0.392-0.302-0.612-0.413c-0.216-0.116-0.428-0.247-0.651-0.334
			l-0.014-0.006c-0.217-0.142-0.435-0.298-0.58-0.533c-0.074-0.117-0.126-0.245-0.146-0.387c-0.015-0.141-0.007-0.281,0.045-0.421
			c0.063-0.157,0.127-0.223,0.189-0.342l0.178-0.326c0.115-0.219,0.221-0.442,0.318-0.668c0.192-0.453,0.35-0.921,0.424-1.395
			c0.042-0.236,0.054-0.475,0.032-0.704c-0.014-0.232-0.085-0.445-0.171-0.646l0.013,0.021l-0.308-0.363
			c-0.107-0.115-0.194-0.257-0.316-0.35l-0.371-0.269c-0.114-0.114-0.272-0.112-0.405-0.174c-0.071-0.016-0.136-0.066-0.21-0.057
			l-0.218-0.004c-0.145-0.024-0.292,0.027-0.438,0.055c-0.147,0.022-0.292,0.104-0.44,0.152l-0.234,0.103
			c-0.065,0.036-0.226,0.066-0.335,0.08h-0.007l-0.011-0.002c-0.119-0.024-0.215-0.027-0.247-0.01
			c-0.033,0.017-0.094,0.097-0.129,0.203c-0.083,0.205-0.126,0.458-0.17,0.701l-0.011,0.039l-0.004,0.01l-0.156,0.411
			c-0.061,0.134-0.077,0.284-0.118,0.425c-0.039,0.142-0.069,0.287-0.083,0.436c-0.017,0.147-0.05,0.293-0.057,0.442
			c-0.02,0.298-0.032,0.597-0.013,0.897c0.011,0.298,0.046,0.601,0.095,0.894c0.044,0.29,0.122,0.594,0.202,0.88
			c0.046,0.13,0.104,0.253,0.199,0.35c0.099,0.089,0.215,0.166,0.355,0.197c0.274,0.075,0.582,0.047,0.875-0.015
			c0.294-0.065,0.584-0.166,0.86-0.292L31.133,22.736z"/>
	</g>
	<g>
		<path fill="#97C569" d="M33.241,26.428c0,0,0.43,0.625,0.667,0.845c0.071,0.366-0.166,1.815-0.166,1.815s-0.137,1.24-0.174,3.29
			c-0.106,1.428-0.129,5.319-4.191,5.124c-2.967-0.184-4.201-0.573-4.549-0.684c-0.35-0.11,0.814-0.268,0.814-0.268
			s-0.826-0.012-1.885,0.768c-1.331,0.98-4.12,0.842-6.074,0.146c-1.956-0.693-2.896-0.146-2.896-0.146s-0.548,0.762-1.293,0.524
			c-0.601-0.19-0.722-0.677-0.722-1.299c-0.119-1.05-1.427-1.419-2.092-1.831c-0.152-0.094-0.125-0.411-0.083-0.541
			c0.125-0.396,3.513,0.316,5.573,1.085c1.505,0.376,2.77-0.024,2.77-0.024s2.059-0.256,2.897-0.146
			c0.838,0.109,2.312-1.523,3.5-1.523c1.187,0,4.226-0.66,6.484,0.182"/>
		<path fill="#F3F3F3" d="M33.241,26.428c0.212,0.289,0.423,0.583,0.675,0.835l0.004,0.007c0.055,0.772-0.146,1.527-0.178,2.286
			c-0.058,0.762-0.056,1.526-0.086,2.289c-0.022,0.768-0.051,1.531-0.179,2.296c-0.135,0.757-0.376,1.521-0.853,2.153
			c-0.466,0.64-1.194,1.07-1.963,1.225c-0.771,0.182-1.562,0.071-2.315,0.011c-0.381-0.039-0.762-0.05-1.143-0.112l-1.144-0.169
			c-0.376-0.088-0.758-0.146-1.128-0.264l-0.14-0.04l-0.05-0.021l-0.017-0.007c-0.022-0.013-0.054-0.04-0.071-0.073
			c-0.042-0.055-0.01-0.142,0.031-0.186l0.058-0.04c0.122-0.059,0.208-0.073,0.308-0.098c0.193-0.044,0.382-0.074,0.576-0.103
			l0.016,0.27c-0.422,0.024-0.873,0.194-1.266,0.41c-0.398,0.213-0.751,0.541-1.234,0.715c-0.917,0.351-1.897,0.4-2.848,0.342
			c-0.477-0.032-0.952-0.092-1.42-0.189c-0.234-0.05-0.467-0.102-0.698-0.169c-0.228-0.056-0.467-0.151-0.676-0.208
			c-0.225-0.06-0.454-0.148-0.674-0.184c-0.222-0.037-0.439-0.092-0.667-0.095c-0.226-0.025-0.45-0.011-0.671,0.006
			c-0.212,0.029-0.45,0.074-0.611,0.155l0.054-0.049c-0.185,0.233-0.398,0.414-0.672,0.536c-0.27,0.122-0.602,0.14-0.888,0.018
			c-0.108-0.038-0.259-0.12-0.379-0.229c-0.112-0.107-0.201-0.238-0.255-0.376c-0.111-0.278-0.125-0.559-0.126-0.825l0.001,0.019
			c-0.072-0.704-0.812-1.105-1.478-1.435c-0.171-0.088-0.346-0.173-0.52-0.279c-0.065-0.045-0.049-0.041-0.077-0.063
			c-0.021-0.021-0.054-0.072-0.073-0.111c-0.027-0.069-0.039-0.129-0.044-0.188c-0.008-0.118,0-0.224,0.033-0.342
			c0.045-0.102,0.009-0.041,0.073-0.116c0.058-0.053,0.094-0.06,0.124-0.071c0.065-0.021,0.121-0.029,0.174-0.035
			c0.108-0.012,0.209-0.01,0.31-0.006c0.2,0.009,0.395,0.03,0.589,0.057c1.54,0.237,3.034,0.638,4.494,1.168L16.2,35.136
			c0.882,0.211,1.833,0.216,2.705-0.012l0.009-0.002l0.012-0.002c0.554-0.063,1.108-0.113,1.665-0.145
			c0.279-0.015,0.559-0.021,0.84-0.018c0.283,0.009,0.565,0.069,0.791-0.026c0.498-0.176,0.954-0.514,1.429-0.799
			c0.475-0.283,0.973-0.589,1.562-0.64c1.108-0.03,2.209-0.2,3.324-0.209c1.108-0.015,2.24,0.067,3.283,0.46
			c-1.052-0.367-2.179-0.421-3.281-0.38c-1.106,0.034-2.204,0.23-3.313,0.287c-0.527,0.059-1.011,0.357-1.478,0.64
			c-0.472,0.286-0.915,0.628-1.465,0.83c-0.304,0.117-0.591,0.044-0.857,0.043c-0.273-0.002-0.548,0.008-0.824,0.024
			c-0.55,0.035-1.102,0.09-1.649,0.156l0.02-0.004c-0.931,0.251-1.901,0.25-2.834,0.037l-0.014-0.004
			c-1.438-0.51-2.938-0.898-4.444-1.117c-0.188-0.023-0.376-0.043-0.561-0.05c-0.092-0.003-0.184-0.003-0.267,0.007
			c-0.042,0.004-0.082,0.013-0.108,0.021c-0.016,0.004-0.025,0.015-0.004-0.007c0.022-0.052-0.038,0.058-0.006-0.001
			c-0.041,0.137-0.021,0.357,0.035,0.363c0.155,0.095,0.328,0.177,0.5,0.263c0.345,0.171,0.703,0.347,1.022,0.604
			c0.321,0.248,0.591,0.631,0.641,1.068l0.001,0.019c0.002,0.248,0.023,0.494,0.107,0.697c0.1,0.213,0.207,0.33,0.459,0.422
			c0.395,0.173,0.872-0.087,1.143-0.447l0.007-0.01c0.013-0.017,0.029-0.03,0.047-0.04c0.261-0.133,0.495-0.165,0.746-0.206
			c0.247-0.02,0.495-0.03,0.738-0.003c0.245,0.007,0.486,0.066,0.728,0.11c0.244,0.045,0.456,0.131,0.685,0.193
			c0.245,0.07,0.442,0.153,0.671,0.212c0.221,0.067,0.447,0.119,0.673,0.17c0.453,0.098,0.914,0.159,1.375,0.194
			c0.919,0.065,1.868,0.019,2.719-0.299c0.415-0.139,0.776-0.46,1.207-0.689c0.432-0.227,0.883-0.406,1.404-0.434
			c0.074-0.004,0.138,0.054,0.142,0.128c0.003,0.07-0.047,0.131-0.116,0.141l-0.01,0.001c-0.185,0.026-0.374,0.056-0.554,0.095
			c-0.086,0.019-0.188,0.044-0.239,0.069l-0.002-0.001c0.036-0.024,0.036-0.086,0.021-0.124c-0.009-0.023-0.034-0.041-0.049-0.045
			l0.016,0.007c0.003,0.002,0.04,0.018,0.016,0.008l0.135,0.04c0.357,0.117,0.734,0.178,1.101,0.267l1.123,0.175
			c0.373,0.064,0.759,0.078,1.138,0.12c0.763,0.068,1.516,0.179,2.25,0.011c0.729-0.142,1.405-0.533,1.85-1.132
			c0.455-0.591,0.697-1.326,0.834-2.065c0.136-0.741,0.188-1.51,0.226-2.269c0.048-0.764,0.064-1.53,0.139-2.291
			c0.051-0.765,0.268-1.513,0.231-2.274l0.004,0.006C33.649,27.019,33.447,26.722,33.241,26.428z"/>
	</g>
	<g>
		<path fill="#97C569" d="M28.387,22.312c0,0-0.407-0.512-2.221-0.328c-1.088-0.025-1.605-0.55-1.605-0.55s-0.733-0.987-2.514-1.061
			c-1.512-0.375-3.421-1.61-3.421-1.61s-0.733-0.329,0,0.842c0.733,1.171,1.362,0.909,1.466,0.913
			c0.104,0.003,0.489-0.035,1.048,0.698c0.559,0.732,1.745,1.428,2.653,1.793c0.908,0.367,2.199,0.806,3.247,1.025
			c0.208,0.549,0.496,1.168,0.524,2.049c0.025,0.803,0.104,0.781,0.279,2.416c0.069,1.318,0.175,3.221,0.175,3.221
			s0.224,1.008,1.396,1.354c1.172,0.347,1.71,0.256,2.443,0.733"/>
		<path fill="#F3F3F3" d="M28.387,22.312c-0.069-0.068-0.158-0.106-0.247-0.142c-0.089-0.032-0.168-0.09-0.267-0.094l-0.563-0.089
			c-0.189-0.005-0.381,0.013-0.571,0.019l-0.569,0.025h-0.005h0l-0.437-0.05c-0.145-0.02-0.294-0.021-0.431-0.083
			c-0.138-0.053-0.282-0.09-0.416-0.156c-0.127-0.081-0.262-0.139-0.38-0.25l-0.007-0.009c-0.141-0.162-0.326-0.306-0.513-0.43
			c-0.193-0.117-0.392-0.229-0.607-0.301c-0.208-0.094-0.435-0.131-0.655-0.186c-0.223-0.042-0.453-0.049-0.678-0.075l-0.018-0.002
			l-0.005-0.001l-0.913-0.307c-0.312-0.088-0.589-0.247-0.881-0.377c-0.584-0.26-1.135-0.577-1.682-0.911l0.02,0.011
			c-0.084-0.04-0.161-0.011-0.102-0.04c0,0,0.01,0.112,0.06,0.205c0.078,0.184,0.199,0.395,0.32,0.561
			c0.13,0.201,0.274,0.355,0.421,0.492c0.165,0.12,0.338,0.236,0.526,0.249c0.115,0.007,0.138-0.004,0.34-0.018
			c0.104-0.008,0.259,0.047,0.39,0.088l0.324,0.212c0.094,0.082,0.17,0.176,0.255,0.264l0.476,0.495
			c0.154,0.177,0.329,0.311,0.509,0.432c0.337,0.27,0.745,0.481,1.134,0.703c0.406,0.2,0.81,0.375,1.25,0.521
			c0.433,0.146,0.858,0.342,1.297,0.444l1.31,0.363l0.009,0.002c0.051,0.014,0.091,0.052,0.109,0.098
			c0.118,0.299,0.23,0.608,0.333,0.926c0.087,0.325,0.157,0.652,0.174,0.99l0.087,0.967c0.03,0.323,0.073,0.643,0.109,0.965
			c0.033,0.316,0.088,0.65,0.091,0.974l0.042,0.972l0.083,1.945l-0.002-0.015c0.096,0.337,0.298,0.673,0.58,0.908
			c0.062,0.069,0.148,0.108,0.223,0.163c0.076,0.054,0.153,0.104,0.243,0.135c0.17,0.078,0.342,0.145,0.532,0.187
			c0.368,0.106,0.74,0.194,1.113,0.273c0.184,0.057,0.37,0.108,0.551,0.169l0.507,0.271l-0.516-0.249
			c-0.183-0.054-0.369-0.098-0.552-0.145c-0.378-0.064-0.755-0.138-1.126-0.229c-0.188-0.034-0.375-0.096-0.557-0.17
			c-0.095-0.028-0.179-0.08-0.263-0.133c-0.082-0.055-0.176-0.094-0.246-0.165c-0.312-0.247-0.549-0.581-0.668-0.977l-0.002-0.01
			l0-0.006l-0.128-1.942l-0.064-0.971c-0.01-0.326-0.07-0.632-0.112-0.96c-0.043-0.322-0.094-0.643-0.132-0.966l-0.098-0.97
			c-0.018-0.313-0.086-0.619-0.169-0.922c-0.099-0.299-0.21-0.599-0.333-0.902l0.118,0.101l-1.348-0.362
			c-0.458-0.104-0.873-0.293-1.311-0.438c-0.433-0.14-0.874-0.325-1.293-0.529c-0.411-0.226-0.82-0.443-1.2-0.751
			c-0.2-0.14-0.385-0.289-0.533-0.461l-0.475-0.502c-0.074-0.077-0.142-0.165-0.219-0.234l-0.25-0.168
			c-0.089-0.019-0.147-0.065-0.277-0.062c-0.025,0.004-0.23,0.03-0.346,0.015c-0.28-0.026-0.502-0.179-0.703-0.329
			c-0.189-0.177-0.351-0.365-0.469-0.553c-0.145-0.206-0.254-0.398-0.354-0.635c-0.041-0.112-0.116-0.238-0.047-0.452
			c0.053-0.135,0.202-0.166,0.284-0.161c0.089,0.005,0.151,0.024,0.225,0.054l0.013,0.006l0.008,0.005
			c0.53,0.325,1.073,0.65,1.636,0.919c0.282,0.134,0.554,0.298,0.852,0.388l0.877,0.318l-0.023-0.003
			c0.237,0.033,0.478,0.046,0.711,0.096c0.231,0.063,0.468,0.108,0.687,0.212c0.226,0.082,0.435,0.205,0.637,0.335
			c0.199,0.138,0.383,0.288,0.541,0.487l-0.007-0.008c0.09,0.092,0.22,0.157,0.333,0.235c0.122,0.066,0.258,0.107,0.386,0.163
			c0.126,0.066,0.27,0.072,0.409,0.097l0.42,0.066h-0.005l0.578-0.002c0.192,0.002,0.384-0.008,0.575,0.005l0.566,0.113
			c0.097,0.008,0.179,0.07,0.267,0.107C28.234,22.2,28.32,22.241,28.387,22.312z"/>
	</g>
	<path fill="#97C569" d="M28.387,22.434c0,0,0.262,1.852,2.735,0.401c0.804-0.047,1.175,1.66,1.175,1.66l1.03,2.182l-1.473,7.25
		l-0.118-0.057l-0.88-2.764l-1.771-6.222l-1.21-1.659L28.387,22.434z"/>
	<g>
		<path fill="#97C569" d="M27.76,30.963c0,0-2.607-5.515-4.261-5.369c-0.488-0.098-0.836,0.415-0.836,0.415
			s-0.559-0.098-0.582,0.708c-0.024,0.805,0.093,3.563,0.488,4.685c0.396,1.124,0.768,2.636,0.768,2.708
			c0,0.074,1.257-0.781,1.838-0.781c0.048-0.389-0.092-0.707,0.023-1.488c0.117-0.779,0.024-3.049-1.396-4.172
			c1.815,1.635,1.628,3.782,1.628,3.978c0,0.194-0.102,0.877-0.069,1.079c0.038,0.226,0.024,0.593,0.024,0.593l3.538-0.208
			c0,0-0.768-0.283-1.1-1.308C27.767,31.562,27.797,31.288,27.76,30.963z"/>
		<path fill="#F3F3F3" d="M27.76,30.963c-0.536-1.047-1.122-2.07-1.785-3.038c-0.334-0.481-0.685-0.953-1.081-1.377
			c-0.199-0.208-0.403-0.419-0.64-0.573c-0.111-0.093-0.237-0.149-0.363-0.201c-0.123-0.078-0.256-0.045-0.383-0.076l-0.03-0.001
			c-0.136-0.015-0.274,0.005-0.401,0.078c-0.123,0.073-0.24,0.183-0.323,0.296c-0.026,0.035-0.071,0.051-0.111,0.047
			c-0.166-0.019-0.326,0.093-0.384,0.269c-0.07,0.176-0.061,0.386-0.056,0.61c0,0.443,0.021,0.882,0.056,1.318
			c0.02,0.438,0.065,0.874,0.123,1.309l0.078,0.653l0.146,0.63c0.082,0.418,0.231,0.852,0.359,1.269
			c0.126,0.429,0.275,0.823,0.38,1.286l0.083,0.338l0.041,0.169l0.021,0.085l0.01,0.042l0.003,0.011l0,0.002
			c0.056,0.118-0.076-0.156-0.062-0.128l0.005,0.001c0.014,0.01,0.002-0.011-0.021-0.026c-0.148-0.031-0.078-0.003-0.062-0.029
			l0.069-0.037l0.143-0.079l0.291-0.163c0.196-0.107,0.396-0.211,0.606-0.303c0.213-0.088,0.425-0.181,0.704-0.192l-0.177,0.156
			c-0.002-0.245-0.02-0.462-0.003-0.731l0.039-0.777c0.066-0.506,0.032-0.971-0.038-1.468c-0.071-0.486-0.204-0.965-0.415-1.404
			c-0.08-0.235-0.25-0.414-0.37-0.625c-0.057-0.109-0.163-0.177-0.241-0.268l-0.254-0.257l0.179-0.212l0.533,0.577
			c0.097,0.089,0.152,0.212,0.228,0.318l0.214,0.329c0.139,0.221,0.223,0.472,0.337,0.707c0.085,0.246,0.161,0.497,0.22,0.75
			c0.105,0.508,0.145,1.038,0.1,1.549c-0.027,0.257-0.045,0.507-0.055,0.748c-0.011,0.118-0.006,0.266-0.001,0.385l0.014,0.382
			l-0.104-0.092c1.179-0.067,2.36-0.112,3.541-0.158l-0.014,0.095c-0.28-0.13-0.507-0.331-0.691-0.564
			c-0.192-0.229-0.308-0.508-0.407-0.784l0-0.001C27.78,31.522,27.767,31.244,27.76,30.963z M27.76,30.963
			c0.017,0.28,0.042,0.561,0.079,0.835l0-0.001c0.109,0.27,0.232,0.537,0.427,0.752c0.184,0.22,0.418,0.406,0.675,0.515
			c0.025,0.01,0.038,0.038,0.028,0.063c-0.007,0.019-0.024,0.029-0.042,0.031c-1.178,0.093-2.355,0.187-3.535,0.258
			c-0.053,0.004-0.1-0.036-0.104-0.09l0-0.003l-0.018-0.381c-0.009-0.136-0.011-0.243-0.004-0.379
			c0.004-0.269,0.021-0.527,0.044-0.777c0.038-0.504-0.007-1.001-0.115-1.489c-0.06-0.241-0.135-0.479-0.219-0.712
			c-0.112-0.221-0.194-0.459-0.329-0.667l-0.207-0.309c-0.074-0.099-0.126-0.215-0.22-0.298l-0.511-0.54l-0.018-0.019
			c-0.052-0.055-0.05-0.142,0.005-0.194c0.054-0.051,0.138-0.05,0.191,0.001l0.284,0.277c0.087,0.098,0.203,0.174,0.268,0.29
			c0.135,0.224,0.32,0.423,0.409,0.67c0.232,0.469,0.378,0.973,0.46,1.484c0.082,0.499,0.12,1.052,0.06,1.55l-0.027,0.736
			c-0.014,0.235,0.01,0.523,0.011,0.783c0,0.081-0.062,0.147-0.142,0.154l-0.035,0.002c-0.351,0.027-0.772,0.245-1.148,0.44
			l-0.289,0.156l-0.147,0.08l-0.078,0.041c-0.034-0.002-0.012,0.053-0.212,0.039l-0.061-0.021l-0.005-0.001
			c0.012,0.028-0.121-0.248-0.064-0.132l-0.001-0.003l-0.002-0.01l-0.01-0.038l-0.019-0.076l-0.038-0.152l-0.074-0.306
			c-0.083-0.401-0.237-0.839-0.355-1.258c-0.125-0.429-0.26-0.833-0.346-1.285l-0.144-0.662l-0.071-0.664
			c-0.053-0.441-0.093-0.884-0.107-1.33c-0.029-0.445-0.044-0.888-0.039-1.329c0-0.213-0.015-0.459,0.082-0.697
			c0.081-0.242,0.349-0.448,0.635-0.4l-0.11,0.046c0.208-0.284,0.551-0.523,0.948-0.455l-0.03-0.001
			c0.159,0.027,0.341,0.009,0.475,0.094c0.146,0.062,0.287,0.13,0.403,0.229c0.255,0.171,0.461,0.392,0.664,0.609
			c0.407,0.438,0.734,0.935,1.055,1.43C26.716,28.851,27.264,29.896,27.76,30.963z"/>
	</g>
	<path fill="#97C569" stroke="#F3F3F3" stroke-width="0.3574" stroke-linejoin="round" stroke-miterlimit="10" d="M21.15,38.108
		c0,0,1.746,0.243,3.421-1.22c0.373,0.098,0.488,0.162,1.024,0.26c-0.303,0.269-0.936,0.529-1.537,0.359
		c-0.6-0.173-1.35,1.43-2.653,1.471C20.382,38.831,20.545,38.572,21.15,38.108z"/>
	
		<line fill="#FFFFFF" stroke="#97C569" stroke-width="0.4289" stroke-miterlimit="10" x1="33.92" y1="34.708" x2="47.955" y2="28.902"/>
	<path fill="#F2F2F2" d="M41.579,31.035c0,0,0.418,0.369,0.477,0.77c0.059,0.401-0.477,0.354-0.477,0.354s-0.268-0.843-0.495-0.916
		C40.857,31.17,41.579,31.035,41.579,31.035z"/>
	<polygon fill="#F3F3F3" points="43.632,30.121 43.038,30.586 43.957,31.035 44.737,30.803 	"/>
	
		<line fill="#FFFFFF" stroke="#97C569" stroke-width="0.4289" stroke-miterlimit="10" x1="20.057" y1="38.82" x2="7.838" y2="42.004"/>
	<text transform="matrix(1 0 0 1 52.061 41.3633)"><tspan x="0" y="0" fill="#4E4D4D" font-family="'phantom-ultralight'" font-size="32.8504">Pari</tspan><tspan x="56.568" y="0" fill="#4E4D4D" font-family="'phantom-bold'" font-size="32.8504">s</tspan><tspan x="72.072" y="0" fill="#4E4D4D" font-family="'phantom-ultralight'" font-size="32.8504">lack</tspan></text>
</g>
</svg>
