<?xml version="1.0" encoding="utf-8"?>
<!-- Generator: Adobe Illustrator 16.0.0, SVG Export Plug-In . SVG Version: 6.00 Build 0)  -->
<!DOCTYPE svg PUBLIC "-//W3C//DTD SVG 1.1//EN" "http://www.w3.org/Graphics/SVG/1.1/DTD/svg11.dtd">
<svg version="1.1" id="Calque_1" xmlns="http://www.w3.org/2000/svg" xmlns:xlink="http://www.w3.org/1999/xlink" x="0px" y="0px"
	 width="652px" height="53px" viewBox="0 13 652 53" enable-background="new 0 13 652 53" xml:space="preserve">
<g id="Calque_1_1_" display="none">
	<rect x="-21.194" y="-17.678" display="inline" fill="#0F2A3F" width="776.773" height="123.872"/>
</g>
<g id="Calque_2">
	<g id="Calque_2_1_">
		<path fill="#97C569" d="M61.595,48.255l-1.896,0.782c0,0-0.181,0.734-0.253,0.881c-0.049,0.104,1.633-0.633,1.633-0.633
			L61.595,48.255z"/>
		<g>
			<path fill="#97C569" d="M55.452,28.604c0,0-3.421,1.81-4.141-0.393c-0.72-2.204-0.959-5.333,0.119-7.724
				c0.302-1.952,0.66-1.952,1.32-1.825c0.66,0.062,3.121-2.454,5.879,1.575c1.323,2.579-1.739,7.111-1.739,7.111
				s-0.721,1.202,1.019,2.234c0,0,2.222,0.848,4.382,3.3c2.157,2.452,1.176,1.73,3.577,3.006c2.007,0.646,2.603,0.958,3.32,1.522
				c0.723,0.567,1.442,1.385,5.461,3.714c0.66,0.312,10.981,5.095,7.202,4.655c-3.782-0.44-6.062-1.193-7.202-1.008
				c-1.141,0.188-0.658-1.32-1.858-1.824c-1.199-0.504-7.622-1.574-9.001-4.089c-1.98-1.257-4.859-4.025-4.859-4.025"/>
			<path fill="#434A54" d="M55.47,28.642c-0.467,0.25-0.955,0.46-1.471,0.609c-0.512,0.143-1.059,0.237-1.616,0.129
				c-0.279-0.044-0.546-0.185-0.775-0.371c-0.222-0.202-0.374-0.455-0.48-0.727c-0.165-0.517-0.313-1.007-0.42-1.547
				c-0.109-0.527-0.191-1.054-0.232-1.591c-0.056-0.534-0.056-1.073-0.039-1.612c0.042-0.537,0.069-1.083,0.213-1.611
				c0.071-0.264,0.098-0.537,0.207-0.791l0.281-0.774l-0.025,0.082c0.076-0.445,0.135-0.885,0.312-1.354
				c0.089-0.222,0.198-0.504,0.526-0.698c0.349-0.168,0.646-0.091,0.866-0.061l-0.031-0.003c0.086-0.057,0.104-0.027,0.248-0.096
				l0.38-0.173c0.285-0.101,0.543-0.252,0.856-0.313c0.306-0.067,0.606-0.168,0.934-0.134l0.48,0.018
				c0.164-0.012,0.307,0.084,0.459,0.123c0.287,0.128,0.636,0.165,0.86,0.383l0.745,0.554c0.239,0.191,0.395,0.448,0.595,0.669
				l0.568,0.693l0.023,0.035c0.197,0.442,0.324,0.912,0.333,1.375c0.023,0.465-0.021,0.92-0.115,1.36
				c-0.177,0.879-0.495,1.704-0.87,2.494c-0.189,0.393-0.392,0.781-0.612,1.158l-0.337,0.558c-0.099,0.174-0.277,0.393-0.325,0.523
				c-0.068,0.161-0.091,0.359-0.076,0.542c0.021,0.189,0.081,0.369,0.184,0.539c0.2,0.339,0.533,0.591,0.875,0.823l-0.023-0.01
				c0.413,0.17,0.776,0.403,1.153,0.615c0.385,0.2,0.707,0.497,1.063,0.742c0.727,0.474,1.291,1.142,1.936,1.716
				c0.327,0.287,0.587,0.627,0.875,0.945c0.282,0.321,0.563,0.651,0.848,0.947c0.144,0.153,0.274,0.317,0.458,0.408
				c0.178,0.104,0.327,0.225,0.525,0.319l1.146,0.581L65.936,35.7l1.224,0.438c0.4,0.167,0.835,0.235,1.209,0.49
				c0.371,0.232,0.785,0.447,1.122,0.7l1.016,0.787c0.328,0.28,0.703,0.483,1.064,0.708l1.088,0.665l2.173,1.329l-0.025-0.012
				c2.302,1.055,4.594,2.125,6.815,3.416c0.276,0.174,0.551,0.338,0.825,0.543c0.138,0.103,0.276,0.211,0.419,0.356
				c0.076,0.106,0.157,0.136,0.231,0.403c0.049,0.062-0.009,0.369-0.123,0.479c-0.079,0.077-0.221,0.162-0.292,0.182
				c-0.933,0.127-1.404-0.105-2.07-0.154c-1.246-0.163-2.511-0.42-3.75-0.639c-0.609-0.101-1.243-0.234-1.786-0.205
				c-0.181-0.002-0.193-0.018-0.515-0.012c-0.146-0.006-0.292,0.045-0.643-0.148c-0.468-0.352-0.515-0.735-0.64-0.984
				c-0.216-0.564-0.507-0.738-1.163-0.926l-1.811-0.523c-1.22-0.359-2.439-0.746-3.613-1.273c-1.148-0.539-2.369-1.159-3.083-2.358
				l0.072,0.077c-0.827-0.665-1.65-1.336-2.46-2.018c-0.838-0.651-1.546-1.44-2.314-2.159l0.056-0.057
				c0.813,0.668,1.566,1.41,2.435,2.001c0.849,0.614,1.683,1.242,2.511,1.875c0.027,0.02,0.055,0.049,0.072,0.076
				c0.635,0.997,1.803,1.581,2.931,2.06c1.148,0.471,2.36,0.811,3.576,1.127l1.847,0.467c0.325,0.088,0.626,0.164,0.99,0.412
				c0.333,0.23,0.555,0.59,0.689,0.896c0.131,0.313,0.271,0.593,0.32,0.608c0.019-0.02-0.069,0.033,0.022,0.033l0.236,0.002
				c-0.005,0.015,0.301,0.002,0.434,0.008c0.728-0.033,1.336,0.109,1.974,0.207c1.253,0.211,2.466,0.453,3.73,0.607
				c0.586,0.073,1.365,0.229,1.69,0.18c0.003-0.004-0.075,0.027-0.084,0.064c-0.095,0.045-0.085,0.271-0.083,0.26
				c0.042,0.106,0.002,0.022-0.017,0.008c-0.077-0.082-0.184-0.174-0.299-0.258c-0.231-0.181-0.494-0.346-0.753-0.51
				c-2.129-1.285-4.419-2.379-6.686-3.488l-0.014-0.006l-0.012-0.008l-2.167-1.423l-1.082-0.712
				c-0.358-0.242-0.732-0.462-1.048-0.75l-0.992-0.821c-0.338-0.272-0.689-0.457-1.035-0.691c-0.33-0.252-0.771-0.331-1.153-0.502
				l-1.186-0.455l-0.016-0.003l-0.018-0.008l-1.131-0.608c-0.367-0.227-0.791-0.455-1.049-0.811
				c-0.303-0.326-0.565-0.655-0.843-0.984c-0.279-0.324-0.532-0.671-0.846-0.957l-0.902-0.895c-0.283-0.32-0.629-0.565-0.979-0.804
				c-0.354-0.235-0.674-0.521-1.052-0.712c-0.371-0.198-0.735-0.423-1.119-0.574l-0.024-0.01c-0.373-0.244-0.747-0.51-0.996-0.915
				c-0.127-0.202-0.217-0.421-0.251-0.667c-0.025-0.242-0.013-0.483,0.077-0.722c0.108-0.272,0.218-0.384,0.325-0.589l0.306-0.559
				c0.198-0.377,0.38-0.762,0.547-1.148c0.33-0.779,0.602-1.584,0.729-2.399c0.072-0.406,0.093-0.817,0.055-1.21
				c-0.023-0.399-0.146-0.765-0.294-1.111l0.022,0.037l-0.529-0.625c-0.184-0.198-0.333-0.441-0.543-0.601l-0.638-0.463
				c-0.195-0.195-0.467-0.191-0.696-0.299c-0.123-0.027-0.234-0.114-0.361-0.098l-0.375-0.006c-0.25-0.042-0.502,0.047-0.753,0.094
				c-0.253,0.037-0.502,0.178-0.756,0.262L53.3,18.863c-0.111,0.062-0.389,0.114-0.575,0.138h-0.014l-0.019-0.003
				c-0.205-0.042-0.37-0.045-0.425-0.017c-0.058,0.029-0.162,0.166-0.223,0.348c-0.143,0.353-0.216,0.789-0.292,1.205l-0.019,0.067
				l-0.007,0.017l-0.27,0.708c-0.104,0.228-0.132,0.487-0.202,0.729c-0.066,0.245-0.119,0.494-0.143,0.75
				c-0.029,0.253-0.086,0.503-0.098,0.76c-0.034,0.512-0.056,1.025-0.022,1.541c0.02,0.514,0.08,1.034,0.164,1.538
				c0.076,0.497,0.21,1.021,0.348,1.513c0.079,0.223,0.18,0.435,0.342,0.604c0.17,0.151,0.369,0.285,0.609,0.337
				c0.471,0.129,1,0.081,1.504-0.025c0.505-0.112,1.004-0.285,1.479-0.503L55.47,28.642z"/>
		</g>
		<g>
			<path fill="#97C569" d="M59.094,34.987c0,0,0.738,1.074,1.146,1.454c0.122,0.628-0.285,3.119-0.285,3.119s-0.235,2.131-0.3,5.655
				c-0.182,2.456-0.222,9.145-7.204,8.809c-5.1-0.314-7.222-0.982-7.819-1.176c-0.602-0.188,1.399-0.461,1.399-0.461
				s-1.42-0.021-3.24,1.32c-2.288,1.684-7.082,1.447-10.439,0.25c-3.362-1.189-4.979-0.25-4.979-0.25s-0.942,1.311-2.223,0.898
				c-1.033-0.324-1.241-1.162-1.241-2.231c-0.205-1.806-2.453-2.438-3.596-3.147c-0.263-0.16-0.215-0.705-0.144-0.93
				c0.215-0.68,6.038,0.542,9.579,1.865c2.587,0.646,4.761-0.041,4.761-0.041s3.54-0.439,4.98-0.251s3.974-2.619,6.016-2.619
				c2.041,0,7.265-1.136,11.146,0.313"/>
			<path fill="#434A54" d="M59.094,34.987c0.363,0.497,0.727,1.002,1.159,1.437l0.008,0.01c0.095,1.328-0.252,2.625-0.307,3.931
				c-0.1,1.31-0.097,2.622-0.147,3.935c-0.039,1.319-0.088,2.632-0.309,3.945c-0.231,1.303-0.646,2.614-1.466,3.7
				c-0.8,1.101-2.052,1.841-3.374,2.105c-1.325,0.313-2.685,0.121-3.979,0.018c-0.656-0.064-1.311-0.084-1.966-0.19l-1.967-0.29
				c-0.646-0.15-1.303-0.25-1.938-0.455l-0.241-0.066l-0.085-0.037l-0.029-0.012c-0.038-0.021-0.093-0.067-0.123-0.125
				c-0.072-0.096-0.017-0.244,0.055-0.318l0.1-0.068c0.209-0.104,0.358-0.126,0.529-0.17c0.333-0.074,0.656-0.128,0.99-0.176
				l0.027,0.465c-0.725,0.04-1.5,0.332-2.176,0.705c-0.685,0.363-1.291,0.93-2.121,1.229c-1.577,0.604-3.261,0.688-4.896,0.588
				c-0.819-0.057-1.637-0.158-2.44-0.326c-0.402-0.086-0.802-0.176-1.2-0.291c-0.391-0.096-0.802-0.26-1.162-0.355
				c-0.387-0.104-0.78-0.256-1.158-0.314c-0.382-0.063-0.754-0.157-1.146-0.164c-0.389-0.043-0.774-0.021-1.154,0.01
				c-0.364,0.051-0.772,0.128-1.05,0.27l0.093-0.086c-0.317,0.4-0.684,0.711-1.156,0.922c-0.464,0.209-1.033,0.242-1.525,0.029
				c-0.187-0.063-0.446-0.203-0.651-0.393c-0.192-0.186-0.346-0.409-0.438-0.646c-0.19-0.479-0.215-0.962-0.217-1.418l0.002,0.033
				c-0.124-1.212-1.396-1.9-2.541-2.469c-0.295-0.151-0.595-0.299-0.895-0.48c-0.111-0.076-0.084-0.07-0.132-0.107
				c-0.036-0.035-0.093-0.125-0.126-0.189c-0.046-0.117-0.067-0.223-0.075-0.32c-0.014-0.203,0-0.389,0.057-0.59
				c0.077-0.176,0.016-0.068,0.125-0.199c0.101-0.092,0.162-0.103,0.214-0.121c0.111-0.037,0.208-0.053,0.3-0.063
				c0.186-0.021,0.358-0.018,0.532-0.01c0.344,0.015,0.679,0.052,1.013,0.098c2.646,0.407,5.214,1.1,7.724,2.008l-0.029-0.013
				c1.517,0.364,3.151,0.371,4.649-0.021l0.016-0.004l0.021-0.004c0.953-0.107,1.905-0.195,2.862-0.25
				c0.479-0.023,0.961-0.035,1.443-0.029c0.486,0.016,0.972,0.117,1.36-0.045c0.855-0.303,1.639-0.885,2.456-1.375
				c0.815-0.483,1.672-1.012,2.685-1.1c1.904-0.052,3.797-0.344,5.714-0.357c1.904-0.026,3.851,0.113,5.644,0.789
				c-1.808-0.631-3.745-0.724-5.639-0.651c-1.901,0.06-3.789,0.396-5.695,0.493c-0.906,0.102-1.738,0.611-2.541,1.101
				c-0.813,0.491-1.573,1.079-2.519,1.429c-0.522,0.197-1.017,0.074-1.474,0.071c-0.469-0.003-0.94,0.015-1.416,0.042
				c-0.946,0.063-1.895,0.155-2.834,0.27l0.034-0.008c-1.602,0.433-3.269,0.431-4.871,0.063l-0.024-0.007
				c-2.472-0.88-5.05-1.542-7.639-1.921c-0.323-0.039-0.646-0.073-0.964-0.086c-0.159-0.006-0.316-0.006-0.459,0.013
				c-0.072,0.007-0.141,0.021-0.186,0.034c-0.027,0.008-0.043,0.027-0.007-0.01c0.038-0.092-0.064,0.1-0.011-0.004
				c-0.07,0.234-0.036,0.614,0.062,0.625c0.266,0.164,0.563,0.307,0.858,0.453c0.594,0.291,1.209,0.596,1.757,1.036
				c0.552,0.427,1.017,1.085,1.103,1.837l0.002,0.032c0.003,0.427,0.039,0.849,0.184,1.196c0.172,0.367,0.356,0.566,0.789,0.727
				c0.679,0.299,1.499-0.148,1.965-0.77l0.013-0.016c0.021-0.029,0.05-0.054,0.081-0.068c0.448-0.229,0.851-0.284,1.281-0.354
				c0.426-0.034,0.852-0.052,1.27-0.005c0.421,0.012,0.835,0.114,1.251,0.188c0.419,0.078,0.784,0.228,1.178,0.334
				c0.42,0.119,0.76,0.264,1.153,0.365c0.379,0.113,0.768,0.202,1.157,0.291c0.778,0.168,1.57,0.272,2.362,0.334
				c1.58,0.109,3.211,0.032,4.674-0.515c0.712-0.237,1.333-0.791,2.074-1.187c0.743-0.391,1.52-0.697,2.414-0.744
				c0.126-0.008,0.237,0.093,0.244,0.22c0.005,0.119-0.082,0.226-0.2,0.243h-0.017c-0.318,0.046-0.644,0.098-0.953,0.164
				c-0.148,0.031-0.323,0.074-0.411,0.117h-0.004c0.062-0.043,0.062-0.148,0.036-0.215c-0.016-0.037-0.059-0.07-0.083-0.076
				l0.026,0.014c0.006,0.003,0.069,0.029,0.028,0.014l0.231,0.066c0.613,0.201,1.262,0.308,1.893,0.46l1.93,0.301
				c0.642,0.108,1.305,0.136,1.957,0.206c1.312,0.118,2.605,0.311,3.868,0.021c1.253-0.246,2.415-0.916,3.18-1.947
				c0.781-1.016,1.198-2.279,1.434-3.549c0.234-1.273,0.323-2.596,0.389-3.9c0.083-1.313,0.11-2.629,0.239-3.938
				c0.087-1.314,0.46-2.601,0.397-3.908l0.007,0.01C59.795,36.004,59.448,35.494,59.094,34.987z"/>
		</g>
		<g>
			<path fill="#97C569" d="M50.75,27.913c0,0-0.7-0.881-3.817-0.564c-1.87-0.043-2.76-0.947-2.76-0.947s-1.26-1.695-4.321-1.823
				c-2.6-0.645-5.88-2.766-5.88-2.766s-1.261-0.567,0,1.447c1.26,2.011,2.341,1.561,2.52,1.568c0.179,0.007,0.841-0.061,1.802,1.2
				c0.961,1.259,2.999,2.456,4.561,3.082c1.561,0.631,3.779,1.385,5.582,1.763c0.356,0.943,0.853,2.008,0.899,3.522
				c0.043,1.38,0.18,1.343,0.479,4.153c0.119,2.265,0.301,5.538,0.301,5.538s0.385,1.732,2.399,2.327
				c2.015,0.597,2.938,0.438,4.198,1.259"/>
			<path fill="#434A54" d="M50.75,27.913c-0.119-0.118-0.271-0.183-0.424-0.245c-0.154-0.054-0.289-0.154-0.459-0.161l-0.968-0.154
				c-0.325-0.007-0.654,0.023-0.982,0.034l-0.978,0.043H46.93l0,0l-0.751-0.087c-0.25-0.034-0.506-0.035-0.741-0.141
				c-0.237-0.09-0.484-0.154-0.715-0.269c-0.219-0.139-0.45-0.238-0.653-0.43l-0.012-0.017c-0.243-0.279-0.562-0.525-0.883-0.739
				c-0.331-0.201-0.674-0.393-1.043-0.517c-0.356-0.161-0.748-0.225-1.125-0.319c-0.384-0.074-0.778-0.084-1.166-0.129l-0.03-0.005
				h-0.008l-1.57-0.527c-0.536-0.153-1.012-0.427-1.514-0.648c-1.005-0.448-1.951-0.994-2.893-1.568l0.035,0.02
				c-0.146-0.071-0.277-0.02-0.175-0.071c0,0,0.018,0.195,0.103,0.353c0.134,0.317,0.342,0.68,0.55,0.965
				c0.225,0.346,0.472,0.609,0.725,0.846c0.283,0.207,0.581,0.404,0.903,0.428c0.197,0.012,0.236-0.007,0.585-0.03
				c0.179-0.014,0.445,0.081,0.671,0.151l0.556,0.363c0.162,0.141,0.293,0.304,0.438,0.455l0.817,0.851
				c0.266,0.304,0.566,0.534,0.875,0.742c0.579,0.463,1.281,0.828,1.949,1.208c0.698,0.344,1.392,0.645,2.147,0.896
				c0.745,0.25,1.477,0.587,2.23,0.762l2.251,0.625l0.016,0.003c0.087,0.024,0.156,0.091,0.188,0.168
				c0.203,0.514,0.396,1.046,0.573,1.591c0.148,0.561,0.27,1.122,0.299,1.702l0.149,1.662c0.052,0.557,0.125,1.106,0.188,1.66
				c0.056,0.542,0.151,1.116,0.156,1.673l0.071,1.671l0.144,3.342l-0.003-0.023c0.165,0.578,0.512,1.156,0.997,1.561
				c0.105,0.117,0.254,0.187,0.383,0.279c0.13,0.094,0.263,0.18,0.417,0.23c0.292,0.135,0.588,0.251,0.915,0.322
				c0.633,0.184,1.271,0.334,1.913,0.471c0.315,0.098,0.636,0.186,0.946,0.29l0.872,0.465l-0.887-0.427
				c-0.313-0.094-0.634-0.17-0.949-0.25c-0.648-0.108-1.297-0.236-1.936-0.395c-0.323-0.059-0.646-0.164-0.958-0.293
				c-0.164-0.047-0.309-0.139-0.452-0.229c-0.141-0.096-0.302-0.161-0.422-0.283c-0.536-0.426-0.944-1-1.148-1.684l-0.004-0.016
				v-0.011l-0.22-3.337l-0.11-1.668c-0.017-0.561-0.12-1.088-0.191-1.652c-0.074-0.554-0.162-1.104-0.228-1.66l-0.169-1.667
				c-0.031-0.537-0.146-1.064-0.291-1.584c-0.17-0.514-0.36-1.031-0.572-1.551l0.202,0.175l-2.315-0.623
				c-0.787-0.18-1.5-0.503-2.253-0.753c-0.745-0.24-1.502-0.558-2.224-0.91c-0.707-0.388-1.41-0.76-2.063-1.289
				c-0.344-0.242-0.662-0.497-0.916-0.792l-0.816-0.863c-0.127-0.134-0.244-0.285-0.377-0.403l-0.43-0.289
				c-0.153-0.034-0.252-0.111-0.477-0.107c-0.042,0.007-0.395,0.052-0.595,0.027c-0.48-0.045-0.863-0.309-1.208-0.566
				c-0.326-0.304-0.604-0.628-0.807-0.952c-0.249-0.353-0.438-0.683-0.608-1.091c-0.069-0.191-0.2-0.41-0.081-0.775
				c0.091-0.233,0.348-0.285,0.488-0.279c0.153,0.01,0.26,0.042,0.387,0.094l0.023,0.01l0.013,0.008
				c0.912,0.559,1.845,1.118,2.813,1.58c0.483,0.231,0.951,0.514,1.465,0.668l1.507,0.545l-0.04-0.005
				c0.407,0.057,0.822,0.079,1.222,0.165c0.397,0.109,0.805,0.187,1.182,0.366c0.389,0.141,0.748,0.353,1.095,0.574
				c0.342,0.238,0.659,0.497,0.93,0.838l-0.012-0.014c0.155,0.158,0.379,0.271,0.573,0.405c0.21,0.112,0.442,0.183,0.663,0.278
				c0.217,0.114,0.464,0.125,0.703,0.168l0.722,0.114h-0.008l0.993-0.003c0.33,0.003,0.66-0.015,0.988,0.007l0.975,0.195
				c0.166,0.013,0.307,0.121,0.458,0.185C50.487,27.72,50.635,27.791,50.75,27.913z"/>
		</g>
		<path fill="#97C569" d="M50.75,28.121c0,0,0.45,3.185,4.701,0.69c1.381-0.081,2.021,2.854,2.021,2.854l1.771,3.75L56.71,47.877
			l-0.203-0.098l-1.513-4.752L51.95,32.333l-2.08-2.852L50.75,28.121z"/>
		<g>
			<path fill="#97C569" d="M49.672,42.783c0,0-4.48-9.48-7.323-9.23c-0.839-0.168-1.438,0.713-1.438,0.713s-0.961-0.167-1,1.217
				c-0.041,1.383,0.16,6.125,0.838,8.054c0.682,1.932,1.32,4.529,1.32,4.652c0,0.127,2.162-1.342,3.159-1.342
				c0.083-0.67-0.158-1.216,0.041-2.56c0.201-1.338,0.041-5.24-2.4-7.17c3.121,2.812,2.799,6.501,2.799,6.836
				c0,0.334-0.175,1.508-0.119,1.856c0.065,0.389,0.042,1.018,0.042,1.018l6.082-0.354c0,0-1.319-0.488-1.89-2.25
				C49.685,43.813,49.736,43.342,49.672,42.783z"/>
			<path fill="#434A54" d="M49.672,42.783c-0.92-1.801-1.928-3.56-3.066-5.223c-0.574-0.827-1.179-1.636-1.858-2.367
				c-0.342-0.357-0.691-0.72-1.1-0.985c-0.191-0.16-0.407-0.255-0.624-0.346c-0.211-0.134-0.44-0.077-0.659-0.129l-0.051-0.001
				c-0.234-0.027-0.472,0.008-0.689,0.134c-0.211,0.124-0.413,0.314-0.556,0.507c-0.044,0.061-0.122,0.089-0.19,0.082
				c-0.286-0.032-0.561,0.16-0.661,0.462c-0.119,0.302-0.104,0.665-0.096,1.049c0,0.761,0.036,1.516,0.096,2.265
				c0.034,0.754,0.112,1.504,0.212,2.251l0.134,1.124l0.251,1.084c0.141,0.719,0.396,1.463,0.617,2.181
				c0.216,0.737,0.473,1.415,0.653,2.211l0.144,0.581l0.068,0.29l0.037,0.146l0.018,0.071l0.005,0.021v0.004
				c0.096,0.201-0.131-0.27-0.106-0.223l0.008,0.004c0.024,0.018,0.005-0.021-0.035-0.045c-0.255-0.055-0.135-0.006-0.107-0.052
				l0.12-0.062l0.246-0.139l0.5-0.279c0.336-0.186,0.681-0.361,1.042-0.521c0.366-0.151,0.729-0.312,1.209-0.333l-0.305,0.27
				c-0.003-0.42-0.034-0.791-0.005-1.256l0.067-1.336c0.113-0.869,0.055-1.668-0.065-2.522c-0.123-0.833-0.351-1.658-0.713-2.412
				c-0.138-0.406-0.43-0.712-0.636-1.074c-0.098-0.188-0.28-0.306-0.414-0.462l-0.437-0.441l0.308-0.366l0.917,0.994
				c0.166,0.151,0.261,0.363,0.392,0.545l0.368,0.566c0.238,0.379,0.383,0.812,0.579,1.215c0.146,0.422,0.277,0.854,0.379,1.29
				c0.181,0.873,0.249,1.783,0.171,2.662c-0.046,0.442-0.076,0.872-0.094,1.285c-0.02,0.203-0.011,0.457-0.002,0.661l0.023,0.657
				l-0.18-0.157c2.027-0.117,4.059-0.194,6.087-0.271l-0.022,0.162c-0.482-0.225-0.872-0.568-1.188-0.972
				c-0.33-0.394-0.528-0.873-0.698-1.349l0,0C49.707,43.742,49.685,43.266,49.672,42.783z M49.672,42.783
				c0.03,0.48,0.072,0.963,0.137,1.436v-0.002c0.188,0.463,0.397,0.922,0.733,1.293c0.316,0.379,0.718,0.697,1.16,0.885
				c0.042,0.02,0.065,0.064,0.048,0.107c-0.013,0.034-0.042,0.051-0.072,0.055c-2.024,0.159-4.049,0.322-6.076,0.442
				c-0.092,0.007-0.172-0.062-0.18-0.153V46.84l-0.03-0.656c-0.016-0.23-0.021-0.416-0.008-0.649
				c0.008-0.464,0.036-0.905,0.076-1.335c0.065-0.865-0.012-1.723-0.197-2.561c-0.104-0.414-0.232-0.824-0.376-1.225
				c-0.193-0.381-0.333-0.789-0.566-1.146l-0.356-0.531c-0.126-0.171-0.216-0.369-0.377-0.514l-0.879-0.926l-0.03-0.034
				c-0.09-0.094-0.087-0.245,0.008-0.333c0.093-0.089,0.236-0.087,0.329,0l0.486,0.477c0.149,0.167,0.35,0.299,0.461,0.499
				c0.232,0.384,0.551,0.727,0.703,1.151c0.399,0.808,0.65,1.673,0.791,2.55c0.142,0.857,0.207,1.81,0.104,2.666l-0.047,1.266
				c-0.023,0.402,0.018,0.896,0.019,1.346c0,0.139-0.106,0.252-0.244,0.264l-0.061,0.004c-0.604,0.049-1.327,0.423-1.974,0.759
				l-0.497,0.271l-0.253,0.137l-0.133,0.07c-0.059-0.004-0.021,0.092-0.365,0.064l-0.104-0.035l-0.009-0.003
				c0.021,0.05-0.208-0.425-0.11-0.228l-0.002-0.006l-0.003-0.018l-0.018-0.063l-0.032-0.131l-0.065-0.263l-0.127-0.526
				c-0.143-0.688-0.407-1.439-0.61-2.162c-0.215-0.736-0.445-1.432-0.594-2.209l-0.248-1.139l-0.123-1.143
				c-0.091-0.756-0.159-1.517-0.184-2.284c-0.05-0.766-0.076-1.526-0.067-2.285c0-0.366-0.024-0.789,0.142-1.198
				c0.139-0.417,0.6-0.769,1.092-0.688l-0.189,0.081c0.357-0.488,0.947-0.9,1.63-0.782l-0.051-0.003
				c0.273,0.047,0.586,0.017,0.816,0.163c0.251,0.105,0.494,0.223,0.692,0.394c0.438,0.292,0.792,0.673,1.143,1.046
				c0.699,0.754,1.261,1.606,1.812,2.459C47.877,39.153,48.82,40.949,49.672,42.783z"/>
		</g>
		<path fill="#97C569" stroke="#434A54" stroke-width="0.6143" stroke-linejoin="round" stroke-miterlimit="10" d="M38.31,55.063
			c0,0,3.001,0.42,5.88-2.096c0.641,0.168,0.839,0.276,1.761,0.446c-0.521,0.462-1.609,0.907-2.642,0.614
			c-1.031-0.297-2.321,2.461-4.562,2.529C36.99,56.309,37.271,55.861,38.31,55.063z"/>
		
			<line fill="none" stroke="#97C569" stroke-width="0.7373" stroke-miterlimit="10" x1="60.261" y1="49.221" x2="84.387" y2="39.241"/>
		<path fill="#434A54" d="M73.427,42.906c0,0,0.718,0.635,0.819,1.322c0.103,0.689-0.819,0.608-0.819,0.608
			s-0.462-1.446-0.852-1.573C72.185,43.139,73.427,42.906,73.427,42.906z"/>
		<polygon fill="#434A54" points="76.955,41.336 75.935,42.135 77.514,42.906 78.854,42.508 		"/>
		
			<line fill="none" stroke="#97C569" stroke-width="0.7373" stroke-miterlimit="10" x1="36.432" y1="56.289" x2="15.428" y2="61.762"/>
		<g enable-background="new    ">
			<path fill="#FFFFFF" d="M96.696,60.66h-2.485V45.863h10.617c0.056,0,2.598-0.057,5.309-1.188L93.025,21.129h11.803
				c0.169,0,3.559,0,7.002,1.694c3.219,1.525,7.116,4.857,7.116,11.916c0,7.003-3.897,10.335-7.116,11.916
				c-3.445,1.639-6.833,1.639-7.002,1.639h-8.132V60.66z M97.882,23.614l14.457,19.878c2.71-1.92,4.123-4.856,4.123-8.753
				c0-4.574-1.92-7.85-5.646-9.657c-2.938-1.468-5.931-1.468-5.986-1.468H97.882z"/>
			<path fill="#FFFFFF" d="M145.373,48.123h-17.337l-5.309,12.537h-2.71l16.658-39.531l16.717,39.531h-2.768L145.373,48.123z
				 M144.299,45.639l-7.624-18.072l-7.624,18.072H144.299z"/>
			<path fill="#FFFFFF" d="M177.84,60.66l-9.825-17.281h-9.432V60.66h-2.483V21.129h12.142c0.113,0,3.106,0,6.155,1.355
				c4.179,1.807,6.381,5.196,6.381,9.77c0,4.574-2.202,7.962-6.381,9.77c-1.299,0.564-2.599,0.904-3.67,1.074l9.938,17.563H177.84
				L177.84,60.66z M168.24,40.895c0.056,0,2.654,0,5.252-1.186c3.219-1.412,4.856-3.897,4.856-7.455s-1.694-6.099-4.913-7.511
				c-2.599-1.129-5.14-1.129-5.195-1.129h-9.657v17.281H168.24L168.24,40.895z"/>
			<path fill="#FFFFFF" d="M186.816,60.66h-2.484V21.129h2.484V60.66z"/>
		</g>
		<g enable-background="new    ">
			<path fill="#FFFFFF" d="M189.471,46.881h5.252c0,4.631,3.163,8.527,6.945,8.527c1.864,0,3.728-0.734,5.083-2.09
				c1.242-1.299,1.92-2.938,1.92-4.801c-0.056-2.938-1.072-4.971-3.388-6.1c-1.92-0.902-3.896-0.902-3.953-0.902
				c-5.083-0.396-8.866-4.631-8.866-9.602c0-5.365,4.18-9.544,9.487-9.544c3.332,0,6.664,2.146,8.979,5.873l-4.461,2.654
				c-1.243-2.033-2.993-3.332-4.519-3.332c-2.314,0-4.292,1.977-4.292,4.349c0,2.259,1.751,4.066,4.123,4.235
				c0.847,0.057,3.219,0.339,5.591,1.525c2.88,1.468,6.495,4.803,6.551,10.956c0,3.22-1.241,6.042-3.613,8.414
				c-2.26,2.313-5.252,3.614-8.641,3.614C194.836,60.66,189.471,54.447,189.471,46.881z"/>
		</g>
		<g enable-background="new    ">
			<path fill="#FFFFFF" d="M230.974,60.66h-13.61V21.129h2.485v37.046h11.125V60.66z"/>
			<path fill="#FFFFFF" d="M257.006,48.123h-17.337L234.36,60.66h-2.71l16.659-39.531l16.716,39.531h-2.768L257.006,48.123z
				 M255.933,45.639l-7.624-18.072l-7.624,18.072H255.933z"/>
			<path fill="#FFFFFF" d="M297.211,53.545c-3.613,4.348-9.036,7.115-15.135,7.115c-10.898,0-19.766-8.866-19.766-19.766
				c0-10.9,8.865-19.767,19.766-19.767c6.099,0,11.577,2.767,15.191,7.115l-1.694,1.694c-3.163-3.953-8.076-6.438-13.497-6.438
				c-9.601,0-17.45,7.793-17.45,17.396c0,9.601,7.851,17.449,17.45,17.449c5.421,0,10.278-2.541,13.497-6.439L297.211,53.545z"/>
			<path fill="#FFFFFF" d="M322.169,60.66l-19.088-18.071V60.66h-2.484V21.129h2.484V39.2l19.088-18.071h3.614l-20.896,19.766
				l20.896,19.767L322.169,60.66L322.169,60.66z"/>
		</g>
	</g>
	<line fill="none" stroke="#FFFFFF" stroke-width="2" stroke-miterlimit="10" x1="366.52" y1="21.473" x2="366.52" y2="60.66"/>
</g>
<g id="Calque_3">
	<g>
		<path fill="#FFFFFF" d="M407.295,31.924v-14.55h3.085v12.002h5.901v2.548H407.295z"/>
		<path fill="#FFFFFF" d="M432.017,24.629c0,2.408-0.598,4.259-1.791,5.553c-1.194,1.294-2.906,1.941-5.137,1.941
			c-2.229,0-3.94-0.647-5.137-1.941c-1.194-1.294-1.791-3.151-1.791-5.573s0.6-4.271,1.797-5.548
			c1.197-1.277,2.915-1.916,5.149-1.916c2.235,0,3.946,0.644,5.131,1.931C431.425,20.363,432.017,22.214,432.017,24.629z
			 M421.398,24.629c0,1.625,0.31,2.85,0.926,3.672c0.617,0.822,1.539,1.234,2.768,1.234c2.461,0,3.691-1.635,3.691-4.906
			c0-3.278-1.225-4.917-3.673-4.917c-1.229,0-2.152,0.413-2.775,1.239C421.709,21.778,421.398,23.004,421.398,24.629z"/>
		<path fill="#FFFFFF" d="M441.213,19.732c-1.161,0-2.062,0.437-2.696,1.309c-0.637,0.872-0.955,2.088-0.955,3.647
			c0,3.245,1.217,4.867,3.651,4.867c1.021,0,2.26-0.255,3.712-0.766v2.587c-1.193,0.498-2.526,0.747-4.001,0.747
			c-2.115,0-3.734-0.642-4.855-1.926s-1.683-3.127-1.683-5.529c0-1.513,0.275-2.838,0.826-3.976c0.55-1.138,1.342-2.01,2.373-2.617
			s2.24-0.911,3.628-0.911c1.413,0,2.833,0.342,4.26,1.025l-0.994,2.508c-0.544-0.259-1.093-0.484-1.644-0.677
			C442.286,19.829,441.744,19.732,441.213,19.732z"/>
		<path fill="#FFFFFF" d="M456.927,31.924l-1.055-3.463h-5.306l-1.056,3.463h-3.323l5.136-14.61h3.771l5.155,14.61H456.927z
			 M455.136,25.873c-0.977-3.138-1.523-4.913-1.646-5.324c-0.123-0.412-0.21-0.737-0.264-0.976c-0.22,0.85-0.847,2.95-1.882,6.3
			H455.136z"/>
		<path fill="#FFFFFF" d="M462.083,31.924v-14.55h3.085v12.002h5.901v2.548H462.083z"/>
		<path fill="#FFFFFF" d="M473.597,31.924v-14.55h3.086v14.55H473.597z"/>
		<path fill="#FFFFFF" d="M488.935,27.884c0,1.313-0.474,2.349-1.418,3.105c-0.945,0.756-2.262,1.135-3.946,1.135
			c-1.553,0-2.926-0.292-4.12-0.876v-2.866c0.98,0.438,1.812,0.747,2.493,0.925c0.681,0.179,1.303,0.269,1.866,0.269
			c0.677,0,1.194-0.129,1.558-0.388c0.361-0.259,0.543-0.644,0.543-1.155c0-0.285-0.079-0.539-0.238-0.761
			c-0.16-0.222-0.395-0.436-0.702-0.642c-0.309-0.206-0.938-0.534-1.886-0.985c-0.891-0.418-1.558-0.819-2.001-1.205
			c-0.443-0.385-0.8-0.833-1.063-1.343c-0.267-0.511-0.397-1.108-0.397-1.792c0-1.287,0.438-2.299,1.31-3.036
			c0.872-0.736,2.078-1.104,3.617-1.104c0.757,0,1.479,0.089,2.165,0.269c0.688,0.179,1.403,0.431,2.153,0.756l-0.994,2.398
			c-0.775-0.318-1.418-0.541-1.927-0.667c-0.508-0.126-1.007-0.189-1.498-0.189c-0.584,0-1.031,0.136-1.344,0.408
			s-0.468,0.627-0.468,1.065c0,0.272,0.062,0.509,0.188,0.711c0.127,0.203,0.326,0.398,0.603,0.587
			c0.277,0.189,0.929,0.529,1.956,1.02c1.359,0.65,2.292,1.302,2.798,1.956C488.683,26.134,488.935,26.935,488.935,27.884z"/>
		<path fill="#FFFFFF" d="M499.952,31.924h-8.38v-14.55h8.38v2.528h-5.295v3.195h4.928v2.528h-4.928v3.752h5.295V31.924z"/>
		<path fill="#FFFFFF" d="M411.315,56.383h-1.023V42.787h-4.729v-0.955h10.479v0.955h-4.729L411.315,56.383L411.315,56.383z"/>
		<path fill="#FFFFFF" d="M429.925,49.088c0,2.309-0.577,4.135-1.731,5.479c-1.153,1.344-2.746,2.018-4.775,2.018
			c-2.023,0-3.613-0.674-4.77-2.018c-1.153-1.344-1.729-3.177-1.729-5.498c0-2.314,0.582-4.139,1.746-5.47
			c1.164-1.33,2.755-1.995,4.771-1.995c2.029,0,3.618,0.668,4.769,2.006C429.351,44.947,429.925,46.773,429.925,49.088z
			 M418.021,49.088c0,2.083,0.466,3.693,1.396,4.832c0.929,1.138,2.262,1.706,4.001,1.706c1.751,0,3.09-0.563,4.017-1.691
			c0.926-1.128,1.388-2.743,1.388-4.847c0-2.098-0.462-3.704-1.388-4.822c-0.927-1.117-2.259-1.677-3.996-1.677
			c-1.73,0-3.067,0.563-4.007,1.69C418.491,45.408,418.021,47.011,418.021,49.088z"/>
		<path fill="#FFFFFF" d="M443.339,56.383h-1.024l-8.618-12.918h-0.08c0.08,1.539,0.119,2.699,0.119,3.482v9.436h-0.976V41.832
			h1.016l8.608,12.898h0.061c-0.061-1.195-0.09-2.33-0.09-3.404v-9.494h0.984V56.383z"/>
		<path fill="#FFFFFF" d="M459.767,52.631c0,1.214-0.446,2.176-1.34,2.886c-0.893,0.71-2.077,1.065-3.558,1.065
			c-1.778,0-3.143-0.196-4.092-0.588v-1.016c1.05,0.443,2.387,0.666,4.012,0.666c1.193,0,2.142-0.271,2.842-0.82
			c0.7-0.547,1.05-1.267,1.05-2.153c0-0.552-0.115-1.007-0.349-1.369c-0.231-0.36-0.61-0.69-1.135-0.989
			c-0.523-0.299-1.294-0.621-2.311-0.966c-1.485-0.511-2.513-1.063-3.079-1.657c-0.567-0.594-0.852-1.385-0.852-2.373
			c0-1.088,0.426-1.977,1.277-2.662c0.853-0.687,1.949-1.029,3.289-1.029c1.367,0,2.65,0.26,3.853,0.775l-0.368,0.875
			c-1.207-0.504-2.36-0.756-3.463-0.756c-1.075,0-1.932,0.248-2.567,0.746c-0.638,0.497-0.955,1.174-0.955,2.03
			c0,0.536,0.099,0.979,0.294,1.323c0.194,0.346,0.517,0.654,0.96,0.931s1.208,0.604,2.289,0.989
			c1.135,0.393,1.986,0.771,2.559,1.141c0.57,0.368,0.986,0.786,1.249,1.254C459.635,51.402,459.767,51.968,459.767,52.631z"/>
		<path fill="#FFFFFF" d="M471.09,46.013c0,1.406-0.479,2.483-1.435,3.233c-0.954,0.75-2.31,1.125-4.062,1.125h-2.249v6.012h-1.015
			V41.832h3.563C469.359,41.832,471.09,43.226,471.09,46.013z M463.346,49.496h2.001c1.64,0,2.822-0.271,3.554-0.813
			c0.729-0.541,1.096-1.418,1.096-2.633c0-1.121-0.346-1.952-1.035-2.492c-0.689-0.541-1.76-0.813-3.205-0.813h-2.409
			L463.346,49.496L463.346,49.496z"/>
		<path fill="#FFFFFF" d="M485.978,49.088c0,2.309-0.577,4.135-1.731,5.479s-2.746,2.018-4.776,2.018
			c-2.023,0-3.612-0.674-4.769-2.018c-1.154-1.344-1.73-3.177-1.73-5.498c0-2.314,0.582-4.139,1.746-5.47
			c1.165-1.33,2.755-1.995,4.771-1.995c2.03,0,3.619,0.668,4.769,2.006C485.404,44.947,485.978,46.773,485.978,49.088z
			 M474.075,49.088c0,2.083,0.465,3.693,1.395,4.832c0.93,1.138,2.263,1.706,4.001,1.706c1.751,0,3.091-0.563,4.017-1.691
			c0.927-1.128,1.389-2.743,1.389-4.847c0-2.098-0.462-3.704-1.389-4.822c-0.926-1.117-2.258-1.677-3.996-1.677
			c-1.73,0-3.066,0.563-4.006,1.69C474.543,45.408,474.075,47.011,474.075,49.088z"/>
		<path fill="#FFFFFF" d="M492.603,56.383h-1.023V42.787h-4.729v-0.955h10.479v0.955h-4.729L492.603,56.383L492.603,56.383z"/>
	</g>
	<g>
		<path fill="#FFFFFF" d="M547.328,31.924h-3.086V19.941h-3.95v-2.567h10.986v2.567h-3.95V31.924z"/>
		<path fill="#FFFFFF" d="M556.604,26.341v5.583h-3.085v-14.55h4.239c1.978,0,3.438,0.36,4.39,1.08
			c0.948,0.72,1.423,1.813,1.423,3.279c0,0.856-0.234,1.617-0.706,2.284c-0.473,0.667-1.139,1.189-2.001,1.567
			c2.188,3.271,3.616,5.384,4.28,6.34h-3.425l-3.474-5.583H556.604z M556.604,23.833h0.995c0.976,0,1.694-0.163,2.159-0.488
			c0.466-0.325,0.697-0.836,0.697-1.533c0-0.69-0.237-1.181-0.712-1.473c-0.476-0.292-1.209-0.438-2.205-0.438h-0.937
			L556.604,23.833L556.604,23.833z"/>
		<path fill="#FFFFFF" d="M580.181,24.629c0,2.408-0.598,4.259-1.791,5.553c-1.194,1.294-2.906,1.941-5.137,1.941
			c-2.229,0-3.94-0.647-5.137-1.941c-1.194-1.294-1.791-3.151-1.791-5.573s0.6-4.271,1.797-5.548
			c1.197-1.277,2.915-1.916,5.149-1.916c2.235,0,3.945,0.644,5.131,1.931S580.181,22.214,580.181,24.629z M569.562,24.629
			c0,1.625,0.31,2.85,0.926,3.672c0.617,0.822,1.539,1.234,2.768,1.234c2.461,0,3.691-1.635,3.691-4.906
			c0-3.278-1.225-4.917-3.673-4.917c-1.229,0-2.152,0.413-2.775,1.239C569.873,21.778,569.562,23.004,569.562,24.629z"/>
		<path fill="#FFFFFF" d="M595.04,17.374v9.415c0,1.075-0.241,2.017-0.723,2.826c-0.48,0.81-1.177,1.43-2.085,1.861
			c-0.909,0.431-1.983,0.647-3.226,0.647c-1.871,0-3.323-0.479-4.358-1.438c-1.035-0.958-1.554-2.271-1.554-3.936v-9.375h3.075
			v8.907c0,1.122,0.227,1.944,0.678,2.468c0.45,0.524,1.197,0.786,2.238,0.786c1.009,0,1.74-0.264,2.194-0.791
			c0.454-0.527,0.683-1.355,0.683-2.483v-8.887H595.04z"/>
		<path fill="#FFFFFF" d="M606.904,17.374h3.115l-4.946,14.55h-3.363l-4.938-14.55h3.114l2.736,8.659
			c0.152,0.511,0.312,1.106,0.475,1.786c0.161,0.68,0.264,1.153,0.303,1.418c0.073-0.61,0.322-1.679,0.747-3.205L606.904,17.374z"/>
		<path fill="#FFFFFF" d="M620.23,31.924h-8.38v-14.55h8.38v2.528h-5.295v3.195h4.927v2.528h-4.927v3.752h5.295V31.924z"/>
		<path fill="#FFFFFF" d="M545.736,56.383h-1.023V42.787h-4.729v-0.955h10.479v0.955h-4.729L545.736,56.383L545.736,56.383z"/>
		<path fill="#FFFFFF" d="M560.065,56.383h-7.951V41.832h7.951v0.936h-6.938v5.504h6.549v0.938h-6.549v6.238h6.938V56.383z"/>
		<path fill="#FFFFFF" d="M570.882,52.631c0,1.214-0.445,2.176-1.339,2.886s-2.078,1.065-3.559,1.065
			c-1.777,0-3.143-0.196-4.091-0.588v-1.016c1.049,0.443,2.386,0.666,4.011,0.666c1.193,0,2.143-0.271,2.843-0.82
			c0.699-0.547,1.05-1.267,1.05-2.153c0-0.552-0.116-1.007-0.35-1.369c-0.231-0.36-0.609-0.69-1.134-0.989
			c-0.523-0.299-1.294-0.621-2.311-0.966c-1.485-0.511-2.514-1.063-3.08-1.657s-0.852-1.385-0.852-2.373
			c0-1.088,0.427-1.977,1.278-2.662c0.853-0.687,1.948-1.029,3.289-1.029c1.366,0,2.65,0.26,3.852,0.775l-0.367,0.875
			c-1.207-0.504-2.361-0.756-3.464-0.756c-1.074,0-1.931,0.248-2.567,0.746c-0.637,0.497-0.955,1.174-0.955,2.03
			c0,0.536,0.099,0.979,0.295,1.323c0.194,0.346,0.516,0.654,0.96,0.931c0.443,0.276,1.208,0.604,2.288,0.989
			c1.136,0.393,1.987,0.771,2.559,1.141c0.571,0.368,0.987,0.786,1.249,1.254C570.751,51.402,570.882,51.968,570.882,52.631z"/>
		<path fill="#FFFFFF" d="M586.991,46.013c0,1.406-0.479,2.483-1.435,3.233c-0.954,0.75-2.309,1.125-4.061,1.125h-2.249v6.012
			h-1.016V41.832h3.562C585.259,41.832,586.991,43.226,586.991,46.013z M579.247,49.496h2.001c1.639,0,2.821-0.271,3.553-0.813
			c0.729-0.541,1.096-1.418,1.096-2.633c0-1.121-0.346-1.952-1.035-2.492c-0.689-0.541-1.759-0.813-3.205-0.813h-2.408
			L579.247,49.496L579.247,49.496z"/>
		<path fill="#FFFFFF" d="M601.878,49.088c0,2.309-0.577,4.135-1.731,5.479c-1.153,1.344-2.746,2.018-4.775,2.018
			c-2.023,0-3.613-0.674-4.769-2.018c-1.156-1.344-1.73-3.177-1.73-5.498c0-2.314,0.582-4.139,1.745-5.47
			c1.165-1.33,2.756-1.995,4.771-1.995c2.03,0,3.619,0.668,4.769,2.006C601.303,44.947,601.878,46.773,601.878,49.088z
			 M589.975,49.088c0,2.083,0.464,3.693,1.395,4.832c0.929,1.138,2.262,1.706,4,1.706c1.752,0,3.091-0.563,4.017-1.691
			c0.927-1.128,1.389-2.743,1.389-4.847c0-2.098-0.462-3.704-1.389-4.822c-0.926-1.117-2.258-1.677-3.995-1.677
			c-1.731,0-3.067,0.563-4.007,1.69C590.444,45.408,589.975,47.011,589.975,49.088z"/>
		<path fill="#FFFFFF" d="M608.503,56.383h-1.023V42.787h-4.729v-0.955h10.479v0.955h-4.729L608.503,56.383L608.503,56.383z"/>
		<path fill="#FFFFFF" d="M622.833,56.383h-7.951V41.832h7.951v0.936h-6.938v5.504h6.549v0.938h-6.549v6.238h6.938V56.383z"/>
		<path fill="#FFFFFF" d="M633.65,52.631c0,1.214-0.445,2.176-1.339,2.886s-2.078,1.065-3.559,1.065
			c-1.777,0-3.143-0.196-4.091-0.588v-1.016c1.049,0.443,2.386,0.666,4.011,0.666c1.193,0,2.143-0.271,2.843-0.82
			c0.699-0.547,1.05-1.267,1.05-2.153c0-0.552-0.116-1.007-0.35-1.369c-0.231-0.36-0.609-0.69-1.134-0.989
			c-0.523-0.299-1.294-0.621-2.311-0.966c-1.486-0.511-2.514-1.063-3.08-1.657s-0.852-1.385-0.852-2.373
			c0-1.088,0.427-1.977,1.278-2.662c0.852-0.687,1.948-1.029,3.288-1.029c1.367,0,2.651,0.26,3.853,0.775l-0.367,0.875
			c-1.207-0.504-2.361-0.756-3.464-0.756c-1.074,0-1.931,0.248-2.567,0.746c-0.637,0.497-0.955,1.174-0.955,2.03
			c0,0.536,0.099,0.979,0.294,1.323c0.195,0.346,0.517,0.654,0.961,0.931c0.443,0.276,1.207,0.604,2.288,0.989
			c1.136,0.393,1.987,0.771,2.559,1.141c0.571,0.368,0.987,0.786,1.249,1.254C633.519,51.402,633.65,51.968,633.65,52.631z"/>
	</g>
	<g>
		<path fill="#FFFFFF" d="M529.847,45.135h-4.785l-1.46-1.436c-1.616,1.127-3.444,1.688-5.484,1.688
			c-2.064,0-3.702-0.477-4.912-1.422c-1.211-0.947-1.815-2.229-1.815-3.848c0-1.158,0.257-2.146,0.769-2.963
			c0.514-0.817,1.392-1.581,2.636-2.292c-0.636-0.728-1.097-1.424-1.385-2.088c-0.287-0.664-0.432-1.39-0.432-2.177
			c0-1.287,0.492-2.323,1.479-3.11c0.984-0.787,2.304-1.181,3.953-1.181c1.574,0,2.833,0.366,3.776,1.098s1.416,1.712,1.416,2.939
			c0,1.007-0.292,1.928-0.876,2.761s-1.527,1.627-2.831,2.38L523.5,39c0.602-0.989,1.121-2.263,1.563-3.82h4.037
			c-0.306,1.143-0.725,2.258-1.258,3.348c-0.533,1.086-1.139,2.049-1.814,2.887L529.847,45.135z M515.464,39.752
			c0,0.729,0.271,1.308,0.818,1.738c0.546,0.433,1.246,0.646,2.102,0.646c1.065,0,2.026-0.258,2.883-0.773l-4.216-4.188
			c-0.49,0.373-0.878,0.763-1.162,1.168C515.606,38.748,515.464,39.219,515.464,39.752z M520.022,30.751
			c0-0.449-0.151-0.802-0.457-1.06c-0.306-0.258-0.697-0.387-1.182-0.387c-0.566,0-1.014,0.135-1.339,0.406
			c-0.326,0.271-0.488,0.656-0.488,1.155c0,0.745,0.401,1.566,1.205,2.463c0.729-0.406,1.286-0.806,1.677-1.2
			C519.828,31.734,520.022,31.276,520.022,30.751z"/>
	</g>
</g>
</svg>
