<?xml version="1.0" encoding="utf-8"?>
<!-- Generator: Adobe Illustrator 16.0.0, SVG Export Plug-In . SVG Version: 6.00 Build 0)  -->
<!DOCTYPE svg PUBLIC "-//W3C//DTD SVG 1.1//EN" "http://www.w3.org/Graphics/SVG/1.1/DTD/svg11.dtd">
<svg version="1.1" id="Calque_1" xmlns="http://www.w3.org/2000/svg" xmlns:xlink="http://www.w3.org/1999/xlink" x="0px" y="0px"
	 width="100px" height="100px" viewBox="0 0 100 100" enable-background="new 0 0 100 100" xml:space="preserve">
<g id="SupprimerFav" display="none">
	<g display="inline">
		<path fill="none" stroke="#97CE68" stroke-width="3" stroke-miterlimit="10" d="M54.324,35.393c-4.743,0-8.97,2.185-11.871,5.586
			c-2.927-3.401-7.155-5.586-11.897-5.586c-8.754,0-15.855,7.247-15.855,16.181c0,20.246,27.753,32.388,27.753,32.388
			S70.207,71.82,70.207,51.574C70.206,42.64,63.105,35.393,54.324,35.393z"/>
	</g>
	<circle display="inline" fill="#97CE68" cx="69.859" cy="35.045" r="17.693"/>
	
		<text transform="matrix(1 0 0 1 64.3076 45.8008)" display="inline" fill="#FFFFFF" font-family="'MyriadPro-Regular'" font-size="41.63">-</text>
</g>
<g id="Calque_2" display="none">
	<g id="LEWmZn_1_" display="inline">
		
			<image overflow="visible" enable-background="new    " width="34" height="33" id="LEWmZn" xlink:href="../../../../../Desktop/HeÌtic/HTML5-CSS3-JS/Parislack- WebApp/Maquettes/Parislack_26102013/Icon/6977ACD137A3E9B7.jpg"  transform="matrix(0.9702 0 0 0.9702 30.5659 26.7798)">
		</image>
	</g>
</g>
<g id="Calque_3">
	<circle fill="none" stroke="#A6A5A3" stroke-width="3" stroke-miterlimit="10" cx="48.314" cy="38.028" r="14.676"/>
	<path fill="none" stroke="#A6A5A3" stroke-width="3" stroke-miterlimit="10" d="M16.671,81.016c0,0,2.125-28.312,31.645-28.312
		s30.567,28.312,30.567,28.312s0.35,5.94-3.494,5.94c-3.845,0-54.523,0-54.523,0S15.569,86.593,16.671,81.016z"/>
	<circle fill="#8B0F0D" cx="67.859" cy="25.045" r="17.693"/>
	<text transform="matrix(1 0 0 1 62.3076 36.8008)" fill="#FFFFFF" font-family="'MyriadPro-Regular'" font-size="42">-</text>
</g>
</svg>
