<?xml version="1.0" encoding="utf-8"?>
<!-- Generator: Adobe Illustrator 16.0.0, SVG Export Plug-In . SVG Version: 6.00 Build 0)  -->
<!DOCTYPE svg PUBLIC "-//W3C//DTD SVG 1.1//EN" "http://www.w3.org/Graphics/SVG/1.1/DTD/svg11.dtd">
<svg version="1.1" id="Calque_1" xmlns="http://www.w3.org/2000/svg" xmlns:xlink="http://www.w3.org/1999/xlink" x="0px" y="0px"
	 width="50px" height="130px" viewBox="0 0.25 50 130" enable-background="new 0 0.25 50 130" xml:space="preserve">
<g id="Calque_8">
	<g>
		<path fill="#97CE68" d="M25.893,4.626c-9.968,0-18.047,8.71-18.047,18.047c0,4.972,2.481,7.295,7.219,15.77
			c4.163,7.441,7.638,14.2,7.638,14.2c1.724,3.352,4.551,3.354,6.277,0.006c0,0,3.5-6.768,7.742-14.206
			c4.828-8.474,7.219-10.795,7.219-15.77C43.939,13.336,35.861,4.626,25.893,4.626z M25.893,33.502
			c-5.978,0-10.828-4.849-10.828-10.829c0-5.979,4.85-10.828,10.828-10.828c5.982,0,10.83,4.849,10.83,10.828
			C36.722,28.653,31.875,33.502,25.893,33.502z"/>
	</g>
</g>
<g id="Calque_8_1_">
	<g>
		<path fill="#FFFFFF" d="M25.892,71.293c-9.968,0-18.046,8.71-18.046,18.047c0,4.973,2.481,7.295,7.219,15.77
			c4.163,7.441,7.638,14.199,7.638,14.199c1.724,3.352,4.551,3.354,6.277,0.006c0,0,3.5-6.768,7.742-14.205
			c4.828-8.475,7.219-10.795,7.219-15.77C43.939,80.003,35.861,71.293,25.892,71.293z M25.892,100.169
			c-5.978,0-10.828-4.849-10.828-10.829c0-5.979,4.85-10.828,10.828-10.828c5.982,0,10.83,4.85,10.83,10.828
			C36.722,95.32,31.875,100.169,25.892,100.169z"/>
	</g>
</g>
</svg>
