<?xml version="1.0" encoding="utf-8"?>
<!-- Generator: Adobe Illustrator 16.0.0, SVG Export Plug-In . SVG Version: 6.00 Build 0)  -->
<!DOCTYPE svg PUBLIC "-//W3C//DTD SVG 1.1//EN" "http://www.w3.org/Graphics/SVG/1.1/DTD/svg11.dtd">
<svg version="1.1" xmlns="http://www.w3.org/2000/svg" xmlns:xlink="http://www.w3.org/1999/xlink" x="0px" y="0px"
	 width="186.333px" height="425.334px" viewBox="0 0 186.333 425.334" enable-background="new 0 0 186.333 425.334"
	 xml:space="preserve">
<g id="Calque_1" display="none">
	
		<image display="inline" overflow="visible" width="195" height="443" xlink:href="../../Capture d’écran 2013-11-23 à 21.25.22.png"  transform="matrix(1 0 0 1 0 -3.998)">
	</image>
</g>
<g id="Blindline">
	<g>
		<g>
			<path id="XMLID_1_" fill="#97CE68" d="M172.507,266.229c0,19.382-15.64,35.093-34.933,35.093
				c-19.294,0-34.934-15.711-34.934-35.093s15.64-35.095,34.934-35.095C156.867,231.135,172.507,246.848,172.507,266.229z"/>
		</g>
		<g>
			<defs>
				<ellipse id="SVGID_2_" cx="137.574" cy="266.229" rx="34.933" ry="35.093"/>
			</defs>
			<clipPath id="SVGID_3_">
				<use xlink:href="#SVGID_2_"  overflow="visible"/>
			</clipPath>
			<path clip-path="url(#SVGID_3_)" fill="#FFFFFF" d="M166.237,274.317c-5.796-2.017-12.104-1.517-16.108-0.837
				c-0.023-0.065-0.036-0.098-0.036-0.098l-23.308,2.188c0,0-6.494,6.295-10.266,7.964c-6.661,2.945-14.113,0.429-14.113,0.429
				l-2.077,11.113c0,0,9.2,3.615,19.861-0.894c2.973-1.259,5.698-2.931,8.031-4.61c0.072,1.599,0.118,3.272,0.118,4.998
				c0,5.174-0.586,10.039-1.25,13.893c-2.762,0.047-11.052,0.573-17.067,5.072c-8.483,6.341-9.541,15.755-9.541,15.755l11.497,4.14
				c0,0,1.195-7.407,6.604-11.299c4.006-2.883,10.47-3.679,15.329-3.826c-1.498,3.675-3.358,9.624-3.116,16.138
				c0.4,10.618,5.557,16.885,5.557,16.885l11.203-6.059c0,0-4.493-6.222-4.091-12.89c0.527-8.723,6.629-15.608,6.629-15.608
				s3.111-9.015,3.111-22.569c0-3.888-0.288-7.327-0.69-10.243c3.254-0.285,6.576-0.175,9.367,0.748
				c6.911,2.283,10.772,9.16,10.772,9.16l8.942-6.871C181.594,286.995,177.163,278.125,166.237,274.317z"/>
		</g>
		<g>
			<defs>
				<ellipse id="SVGID_4_" cx="137.574" cy="266.229" rx="34.933" ry="35.093"/>
			</defs>
			<clipPath id="SVGID_5_">
				<use xlink:href="#SVGID_4_"  overflow="visible"/>
			</clipPath>
			<path clip-path="url(#SVGID_5_)" fill="#FFFFFF" d="M154.249,254.724c-0.18,0.021-0.354,0.051-0.521,0.082
				c0.084-0.1,0.172-0.197,0.255-0.307c1.969-2.559,1.44-4.944,1.44-4.944s-2.534,0.218-4.401,2.646
				c-0.496,0.646-1.128,1.686-1.349,2.305c1.131,0.72,1.69,2.221,0.997,3.651c0.837,0.333,2.572,0.476,4.02,0.302
				c3.196-0.38,4.521-2.431,4.521-2.431S157.281,254.364,154.249,254.724z"/>
		</g>
		<g>
			<defs>
				<ellipse id="SVGID_6_" cx="137.574" cy="266.229" rx="34.933" ry="35.093"/>
			</defs>
			<clipPath id="SVGID_7_">
				<use xlink:href="#SVGID_6_"  overflow="visible"/>
			</clipPath>
			<path clip-path="url(#SVGID_7_)" fill="#97CE68" d="M138.308,272.272c7.552,0,13.673-6.148,13.673-13.73
				c0-7.584-6.121-13.733-13.673-13.733c-7.546,0-13.661,6.149-13.661,13.733C124.646,266.124,130.762,272.272,138.308,272.272z"/>
		</g>
		<g>
			<defs>
				<ellipse id="SVGID_8_" cx="137.574" cy="266.229" rx="34.933" ry="35.093"/>
			</defs>
			<clipPath id="SVGID_9_">
				<use xlink:href="#SVGID_8_"  overflow="visible"/>
			</clipPath>
			<path clip-path="url(#SVGID_9_)" fill="#FFFFFF" d="M138.31,269.636c5.936,0,10.75-4.833,10.75-10.795
				s-4.814-10.796-10.75-10.796c-5.933,0-10.74,4.834-10.74,10.796C127.569,264.802,132.377,269.636,138.31,269.636z"/>
		</g>
		<g>
			<defs>
				<ellipse id="SVGID_10_" cx="137.574" cy="266.229" rx="34.933" ry="35.093"/>
			</defs>
			<clipPath id="SVGID_11_">
				<use xlink:href="#SVGID_10_"  overflow="visible"/>
			</clipPath>
			<rect x="127.092" y="250.93" clip-path="url(#SVGID_11_)" fill="#97CE68" width="21.791" height="11.578"/>
		</g>
		<g>
			<defs>
				<ellipse id="SVGID_12_" cx="137.574" cy="266.229" rx="34.933" ry="35.093"/>
			</defs>
			<clipPath id="SVGID_13_">
				<use xlink:href="#SVGID_12_"  overflow="visible"/>
			</clipPath>
			<path clip-path="url(#SVGID_13_)" fill="#FFFFFF" d="M126.73,259.046c0,0.505,0.035,0.737,0.096,1.759h23.142
				c0.062-1.021,0.096-1.254,0.096-1.759c0-2.11-0.56-5.051-1.531-6.072h-20.27C127.288,253.995,126.73,256.936,126.73,259.046z"/>
		</g>
	</g>
</g>
<g id="Highline">
	<g>
		<g>
			<path id="XMLID_2_" fill="#97CE68" d="M82.835,266.656c0,19.495-15.671,35.3-35.003,35.3c-19.328,0-34.999-15.805-34.999-35.3
				c0-19.497,15.67-35.303,34.999-35.303C67.164,231.354,82.835,247.159,82.835,266.656z"/>
		</g>
		<g>
			<defs>
				<ellipse id="SVGID_14_" cx="47.834" cy="266.656" rx="35.001" ry="35.3"/>
			</defs>
			<clipPath id="SVGID_15_">
				<use xlink:href="#SVGID_14_"  overflow="visible"/>
			</clipPath>
			<g clip-path="url(#SVGID_15_)">
				<path fill="#FFFFFF" d="M28.026,299.123v-42.066H12.942c0,0-3.276,15.63,0.504,23.312
					C17.256,288.099,28.026,299.123,28.026,299.123z"/>
				<path fill="none" stroke="#FFFFFF" stroke-width="1.2954" stroke-miterlimit="10" d="M27.639,268.974
					c0,0,6.013,3.292,20.443,3.292c12.882,0,19.753-3.292,19.753-3.292"/>
				<rect x="22.246" y="267.777" fill="#97CE68" width="2.885" height="2.909"/>
				<rect x="22.246" y="260.868" fill="#97CE68" width="2.885" height="2.911"/>
				<rect x="22.246" y="281.477" fill="#97CE68" width="2.885" height="2.909"/>
				<rect x="22.246" y="274.567" fill="#97CE68" width="2.885" height="2.91"/>
				<rect x="22.246" y="288.268" fill="#97CE68" width="2.885" height="2.91"/>
				<rect x="15.78" y="267.777" fill="#97CE68" width="2.884" height="2.909"/>
				<rect x="15.78" y="260.868" fill="#97CE68" width="2.884" height="2.911"/>
				<rect x="15.78" y="274.567" fill="#97CE68" width="2.884" height="2.91"/>
				<rect x="15.78" y="281.477" fill="#97CE68" width="2.884" height="2.909"/>
				<path fill="#FFFFFF" d="M67.403,299.987v-42.931h14.983c0,0,3.223,16.063-0.522,23.747
					C78.091,288.53,67.403,299.987,67.403,299.987z"/>
				<rect x="70.314" y="267.777" fill="#97CE68" width="2.858" height="2.909"/>
				<rect x="70.314" y="260.868" fill="#97CE68" width="2.858" height="2.911"/>
				<rect x="70.314" y="281.477" fill="#97CE68" width="2.858" height="2.909"/>
				<rect x="70.314" y="274.567" fill="#97CE68" width="2.858" height="2.91"/>
				<rect x="70.314" y="288.268" fill="#97CE68" width="2.858" height="2.91"/>
				<rect x="76.719" y="267.777" fill="#97CE68" width="2.857" height="2.909"/>
				<rect x="76.719" y="260.868" fill="#97CE68" width="2.857" height="2.911"/>
				<rect x="76.719" y="274.567" fill="#97CE68" width="2.857" height="2.91"/>
				<rect x="76.719" y="281.477" fill="#97CE68" width="2.857" height="2.909"/>
				<g>
					<path fill="#FFFFFF" d="M54.4,260.472c-0.902-0.314-1.886-0.237-2.507-0.13c-0.002-0.011-0.005-0.016-0.005-0.016l-3.624,0.342
						c0,0-1.009,0.982-1.596,1.243c-1.037,0.46-2.194,0.064-2.194,0.064l-0.325,1.738c0,0,1.43,0.562,3.089-0.141
						c0.461-0.197,0.886-0.458,1.249-0.722c0.009,0.25,0.018,0.514,0.018,0.781c0,0.808-0.092,1.568-0.194,2.169
						c-0.43,0.007-1.719,0.09-2.654,0.792c-1.32,0.991-1.484,2.46-1.484,2.46l1.788,0.646c0,0,0.187-1.155,1.027-1.764
						c0.622-0.45,1.627-0.573,2.384-0.598c-0.234,0.575-0.523,1.503-0.485,2.521c0.062,1.658,0.864,2.638,0.864,2.638l1.741-0.948
						c0,0-0.698-0.971-0.635-2.012c0.08-1.361,1.029-2.436,1.029-2.436s0.484-1.408,0.484-3.524c0-0.607-0.046-1.143-0.109-1.6
						c0.506-0.044,1.024-0.026,1.457,0.116c1.077,0.357,1.675,1.433,1.675,1.433l1.392-1.074
						C56.787,262.451,56.098,261.066,54.4,260.472z"/>
					<path fill="#FFFFFF" d="M50.056,259.739c0.923,0,1.67-0.753,1.67-1.684s-0.748-1.686-1.67-1.686
						c-0.923,0-1.671,0.755-1.671,1.686S49.133,259.739,50.056,259.739z"/>
				</g>
			</g>
		</g>
	</g>
</g>
<g id="Jumpline">
	<g>
		<g>
			<ellipse id="XMLID_7_" fill="#97CE68" cx="47.949" cy="157.471" rx="35.115" ry="35.258"/>
		</g>
		<g>
			<defs>
				<ellipse id="SVGID_16_" cx="47.949" cy="157.471" rx="35.115" ry="35.258"/>
			</defs>
			<clipPath id="SVGID_17_">
				<use xlink:href="#SVGID_16_"  overflow="visible"/>
			</clipPath>
			<g clip-path="url(#SVGID_17_)">
				<g>
					<path fill="#FFFFFF" d="M53.985,154.695H45.69c0,0,1.037-3.409,1.037-7.38c0-3.449-0.52-6.323-0.52-6.323l7.777-0.724
						c0,0,1.04,2.659,1.04,6.922C55.024,151.71,53.985,154.695,53.985,154.695z"/>
					<path fill="#FFFFFF" d="M41.266,160.302l-3.835-1.38c0,0,0.353-3.14,3.184-5.254c2.44-1.825,6.011-1.692,6.011-1.692
						l4.132,3.333c0,0-4.925-0.472-7.288,1.225C41.666,157.831,41.266,160.302,41.266,160.302z"/>
					<path fill="#FFFFFF" d="M39.89,136.635l-3.34,1.728c0,0,0.939,3.172,4.308,5.068c2.901,1.633,6.644,1.163,6.644,1.163
						l3.3-3.747c0,0-5.112,0.943-7.906-0.568C40.757,139.121,39.89,136.635,39.89,136.635z"/>
					<path fill="#FFFFFF" d="M61.513,147.107l2.985-2.292c0,0-1.479-2.959-5.125-4.229c-3.143-1.093-6.746,0.029-6.746,0.029
						l-2.59,4.273c0,0,4.865-1.832,7.881-0.837C60.225,144.812,61.513,147.107,61.513,147.107z"/>
					<path fill="#FFFFFF" d="M59.256,160.799l-1.679,3.916c0,0-2.642-0.566-4.937-3.257c-2.314-2.717-2.834-6.23-2.834-6.23
						l4.304-2.197c0,0-0.246,2.861,1.416,5.25C56.797,160.107,59.256,160.799,59.256,160.799z"/>
					<path fill="#FFFFFF" d="M53.641,135.424c0,1.988-1.605,3.601-3.587,3.601c-1.979,0-3.584-1.613-3.584-3.601
						s1.604-3.6,3.584-3.6C52.035,131.824,53.641,133.436,53.641,135.424z"/>
				</g>
				<path fill="none" stroke="#FFFFFF" stroke-width="1.7445" stroke-miterlimit="10" d="M13.333,172.896
					c0,0,29.151,19.569,69.869,0"/>
				<path fill="none" stroke="#FFFFFF" stroke-width="0.6651" stroke-miterlimit="10" d="M49.269,174.858
					c0,0,2.885-3.068,1.086-4.933c-1.795-1.861-5.788-0.931-4.665,0.658c1.124,1.59,7.454-0.056,3.744-4.767"/>
			</g>
		</g>
	</g>
</g>
<g id="Longline">
	<g>
		<g>
			<g>
				<circle id="XMLID_5_" fill="#97CE68" cx="137.67" cy="156.597" r="34.762"/>
			</g>
		</g>
		<path fill="none" stroke="#FFFFFF" stroke-width="0.9016" stroke-miterlimit="10" d="M102.75,159.448
			c0,0,10.363,2.053,35.233,2.053c22.203,0,34.045-2.053,34.045-2.053"/>
		<g>
			<path fill="#FFFFFF" d="M144.543,149.577c-0.912-0.316-1.906-0.238-2.536-0.131c-0.003-0.012-0.006-0.017-0.006-0.017
				l-3.667,0.344c0,0-1.022,0.985-1.617,1.247c-1.05,0.462-2.22,0.066-2.22,0.066l-0.327,1.744c0,0,1.445,0.564,3.126-0.142
				c0.467-0.197,0.896-0.459,1.263-0.723c0.009,0.251,0.02,0.515,0.02,0.783c0,0.811-0.093,1.575-0.196,2.178
				c-0.435,0.007-1.74,0.089-2.688,0.794c-1.336,0.995-1.502,2.468-1.502,2.468l1.809,0.648c0,0,0.191-1.159,1.04-1.77
				c0.63-0.452,1.648-0.577,2.413-0.6c-0.237,0.576-0.528,1.508-0.489,2.528c0.062,1.665,0.875,2.647,0.875,2.647l1.761-0.951
				c0,0-0.706-0.974-0.642-2.019c0.081-1.366,1.042-2.445,1.042-2.445s0.49-1.413,0.49-3.537c0-0.61-0.048-1.147-0.11-1.604
				c0.512-0.045,1.037-0.027,1.474,0.117c1.092,0.358,1.696,1.437,1.696,1.437l1.407-1.078
				C146.958,151.563,146.263,150.174,144.543,149.577z"/>
			<path fill="#FFFFFF" d="M140.147,148.843c0.934,0,1.689-0.757,1.689-1.692c0-0.933-0.756-1.69-1.689-1.69
				c-0.935,0-1.691,0.758-1.691,1.69C138.456,148.085,139.213,148.843,140.147,148.843z"/>
		</g>
	</g>
</g>
<g id="Shortline">
	<g>
		<g>
			<path id="SVGID_1_" fill="#97CE68" d="M82.894,47.323c0,19.47-15.684,35.252-35.031,35.252
				c-19.347,0-35.029-15.782-35.029-35.252c0-19.471,15.683-35.254,35.029-35.254C67.209,12.069,82.894,27.852,82.894,47.323z"/>
		</g>
		<g>
			<defs>
				<ellipse id="SVGID_18_" cx="47.864" cy="47.323" rx="35.03" ry="35.252"/>
			</defs>
			<clipPath id="SVGID_19_">
				<use xlink:href="#SVGID_18_"  overflow="visible"/>
			</clipPath>
			<g clip-path="url(#SVGID_19_)">
				<path fill="#FFFFFF" d="M46.713,64.265c-33.652,0-47.735-7.194-48.318-7.5l0.771-1.486l-0.385,0.743l0.384-0.744
					c0.14,0.074,14.373,7.311,47.547,7.311c29.679,0,45.811-7.256,45.97-7.33l0.692,1.526C93.212,56.859,76.75,64.265,46.713,64.265
					z"/>
			</g>
		</g>
		<g>
			<defs>
				<ellipse id="SVGID_20_" cx="47.864" cy="47.323" rx="35.03" ry="35.252"/>
			</defs>
			<clipPath id="SVGID_21_">
				<use xlink:href="#SVGID_20_"  overflow="visible"/>
			</clipPath>
			<g clip-path="url(#SVGID_21_)">
				<path fill="#FFFFFF" d="M59.876,37.385c-2.034-0.709-4.246-0.535-5.649-0.295c-0.004-0.025-0.012-0.037-0.012-0.037
					l-8.165,0.771c0,0-2.275,2.208-3.597,2.794c-2.338,1.036-4.945,0.149-4.945,0.149l-0.731,3.906c0,0,3.223,1.265,6.96-0.317
					c1.039-0.443,1.995-1.029,2.817-1.621c0.02,0.563,0.038,1.152,0.038,1.754c0,1.816-0.206,3.529-0.437,4.88
					c-0.967,0.014-3.875,0.2-5.98,1.779c-2.975,2.229-3.344,5.531-3.344,5.531l4.029,1.453c0,0,0.419-2.598,2.312-3.966
					c1.403-1.012,3.668-1.292,5.373-1.343c-0.526,1.292-1.177,3.38-1.093,5.665c0.14,3.729,1.949,5.932,1.949,5.932l3.922-2.131
					c0,0-1.573-2.184-1.43-4.523c0.18-3.062,2.321-5.479,2.321-5.479s1.09-3.165,1.09-7.925c0-1.366-0.103-2.571-0.244-3.596
					c1.14-0.101,2.309-0.061,3.282,0.262c2.427,0.803,3.775,3.22,3.775,3.22l3.135-2.415C65.252,41.834,63.704,38.722,59.876,37.385
					z"/>
			</g>
		</g>
		<g>
			<defs>
				<ellipse id="SVGID_22_" cx="47.864" cy="47.323" rx="35.03" ry="35.252"/>
			</defs>
			<clipPath id="SVGID_23_">
				<use xlink:href="#SVGID_22_"  overflow="visible"/>
			</clipPath>
			<g clip-path="url(#SVGID_23_)">
				<path fill="#FFFFFF" d="M50.087,35.739c2.079,0,3.765-1.696,3.765-3.79c0-2.092-1.686-3.79-3.765-3.79
					c-2.08,0-3.766,1.698-3.766,3.79C46.321,34.043,48.007,35.739,50.087,35.739z"/>
			</g>
		</g>
	</g>
</g>
<g id="Trickine">
	<g>
		<g>
			<path id="XMLID_4_" fill="#97CE68" d="M172.601,47.323c0,19.353-15.602,35.041-34.848,35.041s-34.847-15.688-34.847-35.041
				c0-19.354,15.601-35.042,34.847-35.042S172.601,27.969,172.601,47.323z"/>
		</g>
		<g>
			<defs>
				<ellipse id="SVGID_24_" cx="137.753" cy="47.323" rx="34.847" ry="35.041"/>
			</defs>
			<clipPath id="SVGID_25_">
				<use xlink:href="#SVGID_24_"  overflow="visible"/>
			</clipPath>
			<path clip-path="url(#SVGID_25_)" fill="none" stroke="#FFFFFF" stroke-width="0.3582" stroke-miterlimit="10" d="M88.927,55.97
				c0,0,14.024,7.36,47.682,7.36c30.045,0,46.073-7.36,46.073-7.36"/>
		</g>
		<g>
			<defs>
				<ellipse id="SVGID_26_" cx="137.753" cy="47.323" rx="34.847" ry="35.041"/>
			</defs>
			<clipPath id="SVGID_27_">
				<use xlink:href="#SVGID_26_"  overflow="visible"/>
			</clipPath>
			<path clip-path="url(#SVGID_27_)" fill="#FFFFFF" d="M132.486,50.554l2.658-8.183c0,0,3.078,2.144,6.958,3.418
				c3.369,1.107,6.365,1.398,6.365,1.398l-1.745,8.044c0,0-3,0.148-7.165-1.22C135.139,52.559,132.486,50.554,132.486,50.554z"/>
		</g>
		<g>
			<defs>
				<ellipse id="SVGID_28_" cx="137.753" cy="47.323" rx="34.847" ry="35.041"/>
			</defs>
			<clipPath id="SVGID_29_">
				<use xlink:href="#SVGID_28_"  overflow="visible"/>
			</clipPath>
			<path clip-path="url(#SVGID_29_)" fill="#FFFFFF" d="M131.243,36.26l2.579-3.341c0,0,2.955,1.355,4.114,4.827
				c1.001,2.994-0.274,6.473-0.274,6.473l-4.58,3.008c0,0,2.04-4.708,1.139-7.583C133.53,37.446,131.243,36.26,131.243,36.26z"/>
		</g>
		<g>
			<defs>
				<ellipse id="SVGID_30_" cx="137.753" cy="47.323" rx="34.847" ry="35.041"/>
			</defs>
			<clipPath id="SVGID_31_">
				<use xlink:href="#SVGID_30_"  overflow="visible"/>
			</clipPath>
			<path clip-path="url(#SVGID_31_)" fill="#FFFFFF" d="M154.811,42.498l-0.619-3.849c0,0-3.401-0.092-6.331,2.622
				c-2.524,2.338-3.266,6.181-3.266,6.181l2.603,4.458c0,0,0.719-5.345,3.089-7.616C152.103,42.555,154.811,42.498,154.811,42.498z"
				/>
		</g>
		<g>
			<defs>
				<ellipse id="SVGID_32_" cx="137.753" cy="47.323" rx="34.847" ry="35.041"/>
			</defs>
			<clipPath id="SVGID_33_">
				<use xlink:href="#SVGID_32_"  overflow="visible"/>
			</clipPath>
			<path clip-path="url(#SVGID_33_)" fill="#FFFFFF" d="M137.648,60.468l1.282,3.68c0,0,3.365-0.51,5.774-3.699
				c2.075-2.749,2.134-6.662,2.134-6.662l-3.345-3.927c0,0,0.23,5.388-1.708,8.043C140.303,59.934,137.648,60.468,137.648,60.468z"
				/>
		</g>
		<g>
			<defs>
				<ellipse id="SVGID_34_" cx="137.753" cy="47.323" rx="34.847" ry="35.041"/>
			</defs>
			<clipPath id="SVGID_35_">
				<use xlink:href="#SVGID_34_"  overflow="visible"/>
			</clipPath>
			<path clip-path="url(#SVGID_35_)" fill="#FFFFFF" d="M124.994,53.847l-3.287-2.913c0,0,1.398-2.424,4.764-3.826
				c3.396-1.411,6.996-0.796,6.996-0.796l0.768,4.951c0,0-2.718-1.16-5.586-0.287C126.458,51.644,124.994,53.847,124.994,53.847z"/>
		</g>
		<g>
			<defs>
				<ellipse id="SVGID_36_" cx="137.753" cy="47.323" rx="34.847" ry="35.041"/>
			</defs>
			<clipPath id="SVGID_37_">
				<use xlink:href="#SVGID_36_"  overflow="visible"/>
			</clipPath>
			<path clip-path="url(#SVGID_37_)" fill="#FFFFFF" d="M151.585,56.451c-1.942-0.638-3.003-2.74-2.368-4.693
				c0.635-1.953,2.724-3.02,4.667-2.38c1.941,0.638,3.003,2.738,2.368,4.691C155.617,56.022,153.528,57.089,151.585,56.451z"/>
		</g>
		<g>
			<defs>
				<ellipse id="SVGID_38_" cx="137.753" cy="47.323" rx="34.847" ry="35.041"/>
			</defs>
			<clipPath id="SVGID_39_">
				<use xlink:href="#SVGID_38_"  overflow="visible"/>
			</clipPath>
			<g clip-path="url(#SVGID_39_)">
				<path fill="#FFFFFF" d="M138.674,64.383c-35.326,0-50.109-7.595-50.721-7.917l0.809-1.569l-0.405,0.784l0.404-0.786
					c0.147,0.078,15.088,7.717,49.913,7.717c31.155,0,48.089-7.659,48.257-7.736l0.727,1.611
					C187.486,56.564,170.206,64.383,138.674,64.383z"/>
			</g>
		</g>
		<g>
			<defs>
				<ellipse id="SVGID_40_" cx="137.753" cy="47.323" rx="34.847" ry="35.041"/>
			</defs>
			<clipPath id="SVGID_41_">
				<use xlink:href="#SVGID_40_"  overflow="visible"/>
			</clipPath>
			<path clip-path="url(#SVGID_41_)" fill="#FFFFFF" d="M132.12,29.231c1.105-0.359,2.24-0.313,3.24,0.052
				c-0.838-0.93-2.198-1.33-3.498-0.907c-1.283,0.417-2.149,1.522-2.302,2.752C130.157,30.269,131.037,29.583,132.12,29.231z"/>
		</g>
		<g>
			<defs>
				<ellipse id="SVGID_42_" cx="137.753" cy="47.323" rx="34.847" ry="35.041"/>
			</defs>
			<clipPath id="SVGID_43_">
				<use xlink:href="#SVGID_42_"  overflow="visible"/>
			</clipPath>
			<path clip-path="url(#SVGID_43_)" fill="#FFFFFF" d="M131.557,26.517c0.94-0.305,1.907-0.267,2.759,0.045
				c-0.714-0.792-1.872-1.133-2.979-0.773c-1.094,0.355-1.831,1.295-1.961,2.344C129.885,27.399,130.634,26.816,131.557,26.517z"/>
		</g>
		<g>
			<defs>
				<ellipse id="SVGID_44_" cx="137.753" cy="47.323" rx="34.847" ry="35.041"/>
			</defs>
			<clipPath id="SVGID_45_">
				<use xlink:href="#SVGID_44_"  overflow="visible"/>
			</clipPath>
			<path clip-path="url(#SVGID_45_)" fill="#FFFFFF" d="M156,35.756c0.939,0.687,1.572,1.635,1.868,2.663
				c0.254-1.229-0.229-2.57-1.333-3.376c-1.093-0.797-2.49-0.849-3.569-0.247C154.01,34.773,155.077,35.084,156,35.756z"/>
		</g>
		<g>
			<defs>
				<ellipse id="SVGID_46_" cx="137.753" cy="47.323" rx="34.847" ry="35.041"/>
			</defs>
			<clipPath id="SVGID_47_">
				<use xlink:href="#SVGID_46_"  overflow="visible"/>
			</clipPath>
			<path clip-path="url(#SVGID_47_)" fill="#FFFFFF" d="M157.843,33.986c0.778,0.567,1.302,1.352,1.546,2.203
				c0.21-1.017-0.188-2.126-1.104-2.793c-0.903-0.659-2.06-0.702-2.952-0.204C156.197,33.173,157.08,33.431,157.843,33.986z"/>
		</g>
	</g>
</g>
<g id="Waterline">
	<g>
		<g>
			<ellipse id="XMLID_3_" fill="#97CE68" cx="47.919" cy="376.667" rx="35.109" ry="35.166"/>
		</g>
		<g>
			<defs>
				<ellipse id="SVGID_48_" cx="47.919" cy="376.667" rx="35.109" ry="35.166"/>
			</defs>
			<clipPath id="SVGID_49_">
				<use xlink:href="#SVGID_48_"  overflow="visible"/>
			</clipPath>
			<path clip-path="url(#SVGID_49_)" fill="#FFFFFF" d="M78.016,393.859c-1.312,1.447-3.295,2.357-5.4,2.357
				c-2.105,0-4.043-0.91-5.354-2.357c-1.311,1.447-3.226,2.357-5.331,2.357s-4.009-0.91-5.32-2.357
				c-1.31,1.447-3.208,2.357-5.313,2.357c-2.104,0-4.001-0.91-5.311-2.357c-1.311,1.447-3.204,2.357-5.309,2.357
				s-3.999-0.91-5.31-2.357c-1.31,1.447-3.203,2.357-5.308,2.357c-2.104,0-3.999-0.91-5.309-2.357
				c-1.31,1.447-3.498,2.357-5.604,2.357c-2.342,0-3.974-1.127-6.025-2.869v23.271h68.698v-20.604
				C79.771,395.672,78.965,394.907,78.016,393.859z"/>
		</g>
		<g>
			<defs>
				<ellipse id="SVGID_50_" cx="47.919" cy="376.667" rx="35.109" ry="35.166"/>
			</defs>
			<clipPath id="SVGID_51_">
				<use xlink:href="#SVGID_50_"  overflow="visible"/>
			</clipPath>
			<path clip-path="url(#SVGID_51_)" fill="none" stroke="#FFFFFF" stroke-width="1.2903" stroke-miterlimit="10" d="M11.7,377.508
				c0,0,10.9,3.998,37.058,3.998c23.352,0,35.809-3.998,35.809-3.998"/>
		</g>
		<g>
			<defs>
				<ellipse id="SVGID_52_" cx="47.919" cy="376.667" rx="35.109" ry="35.166"/>
			</defs>
			<clipPath id="SVGID_53_">
				<use xlink:href="#SVGID_52_"  overflow="visible"/>
			</clipPath>
			<g clip-path="url(#SVGID_53_)">
				<path fill="#FFFFFF" d="M54.57,367.775c-1.057-0.366-2.209-0.276-2.938-0.152c-0.002-0.014-0.006-0.02-0.006-0.02l-4.247,0.399
					c0,0-1.184,1.144-1.872,1.447c-1.216,0.536-2.571,0.076-2.571,0.076l-0.381,2.023c0,0,1.676,0.654,3.621-0.164
					c0.541-0.229,1.038-0.533,1.465-0.84c0.01,0.291,0.02,0.597,0.02,0.909c0,0.94-0.107,1.827-0.227,2.526
					c-0.503,0.007-2.015,0.104-3.11,0.921c-1.548,1.154-1.741,2.863-1.741,2.863l2.096,0.751c0,0,0.219-1.344,1.204-2.053
					c0.729-0.523,1.908-0.668,2.795-0.695c-0.274,0.67-0.613,1.75-0.569,2.934c0.073,1.931,1.015,3.07,1.015,3.07l2.04-1.103
					c0,0-0.818-1.13-0.744-2.342c0.094-1.586,1.207-2.837,1.207-2.837s0.567-1.639,0.567-4.103c0-0.707-0.053-1.331-0.127-1.861
					c0.593-0.052,1.201-0.032,1.708,0.135c1.262,0.416,1.963,1.667,1.963,1.667l1.63-1.251
					C57.367,370.079,56.562,368.468,54.57,367.775z"/>
				<ellipse fill="#FFFFFF" cx="49.479" cy="364.962" rx="1.962" ry="1.962"/>
			</g>
		</g>
	</g>
</g>
</svg>
