<?xml version="1.0" encoding="utf-8"?>
<!-- Generator: Adobe Illustrator 16.0.0, SVG Export Plug-In . SVG Version: 6.00 Build 0)  -->
<!DOCTYPE svg PUBLIC "-//W3C//DTD SVG 1.1//EN" "http://www.w3.org/Graphics/SVG/1.1/DTD/svg11.dtd">
<svg version="1.1" xmlns="http://www.w3.org/2000/svg" xmlns:xlink="http://www.w3.org/1999/xlink" x="0px" y="0px" width="135px"
	 height="80px" viewBox="0 0 135 80" enable-background="new 0 0 135 80" xml:space="preserve">
<g id="Calque_1">
	<g id="Calque_1_1_" display="none">
		<path display="inline" fill="#FCFBFA" d="M21.876,40.521h-4.89v-3.567c0-1.095,1.133-1.349,1.66-1.349c0.524,0,3.158,0,3.158,0
			v-4.814l-3.619-0.02c-4.938,0-6.065,3.592-6.065,5.893v3.857H8.537v4.961h3.583c0,6.369,0,13.395,0,13.395h4.866
			c0,0,0-7.098,0-13.395h4.135L21.876,40.521z"/>
		<path display="inline" fill="#A5A4A2" d="M21.67,10.75h-4.889V7.182c0-1.094,1.132-1.348,1.66-1.348c0.523,0,3.156,0,3.156,0
			V1.019L17.979,1c-4.938,0-6.063,3.591-6.063,5.892v3.858H8.331v4.961h3.583c0,6.369,0,13.394,0,13.394h4.867c0,0,0-7.097,0-13.394
			h4.134L21.67,10.75z"/>
	</g>
	<path fill="#A5A4A2" d="M78.65,11.358c-0.39,0.232-1.561,0.694-2.649,0.81c0.698-0.406,1.733-1.737,1.989-2.794
		c-0.672,0.462-2.217,1.136-2.979,1.136c0,0,0,0.002,0.002,0.003c-0.87-0.98-2.095-1.59-3.454-1.59
		c-2.637,0-4.776,2.303-4.776,5.144c0,0.395,0.045,0.778,0.123,1.146l0,0c-3.58-0.099-7.763-2.03-10.119-5.336
		c-1.447,2.7-0.195,5.701,1.449,6.795c-0.562,0.047-1.599-0.068-2.086-0.579c-0.035,1.792,0.768,4.166,3.684,5.026
		c-0.562,0.326-1.555,0.233-1.988,0.161c0.153,1.515,2.12,3.493,4.27,3.493c-0.767,0.952-3.381,2.687-6.615,2.134
		c2.197,1.441,4.759,2.274,7.471,2.274c7.706,0,13.689-6.725,13.368-15.021c0-0.009-0.003-0.02-0.003-0.027
		c0-0.023,0.003-0.046,0.003-0.066c0-0.026-0.003-0.05-0.003-0.078C77.035,13.476,77.977,12.562,78.65,11.358z"/>
	<path fill="#FFFFFF" d="M79.499,52.253c-0.39,0.231-1.562,0.694-2.651,0.81c0.7-0.405,1.735-1.735,1.991-2.793
		c-0.673,0.461-2.218,1.135-2.979,1.135c0,0,0,0.003,0.002,0.005c-0.871-0.979-2.096-1.591-3.455-1.591
		c-2.637,0-4.774,2.304-4.774,5.145c0,0.396,0.044,0.778,0.123,1.146h-0.001c-3.578-0.099-7.762-2.029-10.118-5.336
		c-1.446,2.701-0.194,5.701,1.449,6.795c-0.562,0.047-1.599-0.067-2.086-0.578c-0.034,1.791,0.768,4.166,3.684,5.025
		c-0.562,0.325-1.554,0.232-1.987,0.16c0.152,1.516,2.119,3.493,4.269,3.493c-0.767,0.952-3.38,2.688-6.615,2.136
		c2.197,1.439,4.759,2.272,7.472,2.272c7.707,0,13.689-6.726,13.369-15.021c0-0.01-0.005-0.021-0.005-0.027
		c0-0.022,0.005-0.045,0.005-0.065c0-0.026-0.005-0.05-0.005-0.077C77.884,54.37,78.824,53.457,79.499,52.253z"/>
	<g id="Calque_3" display="none">
		<g display="inline">
			<g>
				<g>
					<path fill="#A5A4A2" d="M17.285,3.736c0.822-0.46,1.182-0.76,1.182-0.76h-7.851c-1.573,0-5.941,1.787-5.941,5.958
						c0,4.173,4.53,5.067,6.174,5c-0.922,1.125-0.132,2.152,0.362,2.678c0.492,0.531,0.392,0.695-0.197,0.695
						c-0.592,0-7.883,0.079-7.883,5.299c0,5.221,9.688,5.598,12.873,2.784c3.184-2.812,2.494-6.692,0.031-8.445
						c-2.462-1.754-3.381-2.582-1.805-3.972c1.577-1.39,2.825-2.516,2.825-5.099s-2.136-3.905-2.136-3.905S16.463,4.2,17.285,3.736z
						 M16.068,22.342c0,2.252-1.914,3.343-5.158,3.343c-3.249,0-4.99-1.621-4.99-4.038c0-2.419,2.365-3.609,6.798-3.609
						C13.921,18.963,16.068,20.088,16.068,22.342z M11.373,12.906c-3.909,0-5.683-9.134-1.084-9.134
						C13.868,3.638,16.561,12.906,11.373,12.906z M24.326,6.007v-2.97h-1.535v2.971h-3.006V7.55h3.006v2.975h1.535V7.549h2.955
						V6.007H24.326z"/>
				</g>
			</g>
		</g>
		<g display="inline">
			<g>
				<g>
					<path fill="#FFFFFF" d="M17.285,33.736c0.822-0.461,1.182-0.76,1.182-0.76h-7.852c-1.573,0-5.941,1.787-5.941,5.957
						c0,4.174,4.53,5.067,6.174,5c-0.922,1.125-0.132,2.151,0.362,2.678c0.492,0.531,0.392,0.695-0.197,0.695
						c-0.592,0-7.883,0.08-7.883,5.299c0,5.222,9.688,5.599,12.874,2.785c3.184-2.813,2.494-6.693,0.031-8.445
						c-2.463-1.754-3.381-2.582-1.805-3.973c1.577-1.391,2.825-2.517,2.825-5.1s-2.136-3.905-2.136-3.905S16.463,34.2,17.285,33.736
						z M16.068,52.342c0,2.252-1.914,3.344-5.159,3.344c-3.249,0-4.99-1.621-4.99-4.039s2.365-3.607,6.798-3.607
						C13.92,48.963,16.068,50.088,16.068,52.342z M11.373,42.906c-3.909,0-5.683-9.135-1.084-9.135
						C13.868,33.639,16.561,42.906,11.373,42.906z M24.326,36.007v-2.971h-1.535v2.971h-3.006v1.542h3.006v2.975h1.535v-2.975h2.955
						v-1.542H24.326z"/>
				</g>
			</g>
		</g>
	</g>
	<g id="Calque_4" display="none">
		<g display="inline">
			<g>
				<path fill="#A4A4A4" d="M15.365,37.338H3.211v15.191h12.154H27.52V37.338H15.365z M15.365,38.857h8.519l-8.519,6.053
					l-8.519-6.053H15.365z M4.73,39.288l5.175,3.5L4.73,48.43V39.288z M15.365,51.012H6.591l4.326-7.541l4.448,3.008l4.447-3.008
					l4.326,7.541H15.365z M25.999,48.43l-5.175-5.643l5.175-3.5V48.43z"/>
			</g>
		</g>
	</g>
</g>
<g id="Calque_2">
	<g id="Calque_1_2_">
		<path fill="#FCFBFA" d="M28.876,56.645h-4.89v-3.567c0-1.095,1.133-1.349,1.66-1.349c0.524,0,3.158,0,3.158,0v-4.814l-3.619-0.02
			c-4.938,0-6.065,3.592-6.065,5.893v3.857h-3.583v4.961h3.583c0,6.369,0,13.395,0,13.395h4.866c0,0,0-7.098,0-13.395h4.135
			L28.876,56.645z"/>
		<path fill="#A5A4A2" d="M28.67,14.873h-4.889v-3.568c0-1.094,1.132-1.348,1.66-1.348c0.523,0,3.156,0,3.156,0V5.142l-3.619-0.019
			c-4.938,0-6.063,3.591-6.063,5.892v3.858h-3.584v4.961h3.583c0,6.369,0,13.394,0,13.394h4.867c0,0,0-7.097,0-13.394h4.134
			L28.67,14.873z"/>
	</g>
</g>
<g id="Calque_3_1_">
	<g>
		<g>
			<g>
				<path fill="#A5A4A2" d="M114.384,7.883c0.822-0.46,1.182-0.76,1.182-0.76h-7.85c-1.574,0-5.941,1.787-5.941,5.958
					c0,4.173,4.529,5.067,6.174,5c-0.922,1.125-0.133,2.152,0.361,2.678c0.492,0.531,0.393,0.695-0.196,0.695
					c-0.593,0-7.884,0.079-7.884,5.299c0,5.221,9.688,5.598,12.873,2.784c3.184-2.812,2.494-6.692,0.031-8.445
					c-2.461-1.754-3.381-2.582-1.805-3.972c1.576-1.39,2.824-2.516,2.824-5.099s-2.135-3.905-2.135-3.905
					S113.562,8.347,114.384,7.883z M113.167,26.489c0,2.252-1.913,3.343-5.158,3.343c-3.248,0-4.99-1.621-4.99-4.038
					c0-2.419,2.365-3.609,6.799-3.609C111.021,23.11,113.167,24.235,113.167,26.489z M108.472,17.053
					c-3.908,0-5.683-9.134-1.084-9.134C110.968,7.785,113.659,17.053,108.472,17.053z M121.425,10.154v-2.97h-1.535v2.971h-3.006
					v1.542h3.006v2.975h1.535v-2.976h2.955v-1.542H121.425z"/>
			</g>
		</g>
	</g>
	<g>
		<g>
			<g>
				<path fill="#FFFFFF" d="M114.384,49.883c0.822-0.461,1.182-0.76,1.182-0.76h-7.852c-1.572,0-5.941,1.787-5.941,5.957
					c0,4.174,4.531,5.066,6.175,5c-0.923,1.125-0.132,2.152,0.362,2.678c0.492,0.531,0.392,0.695-0.197,0.695
					c-0.592,0-7.883,0.08-7.883,5.299c0,5.223,9.688,5.6,12.873,2.785c3.184-2.812,2.494-6.693,0.031-8.445
					c-2.463-1.754-3.381-2.582-1.805-3.973s2.824-2.516,2.824-5.1c0-2.582-2.135-3.904-2.135-3.904S113.562,50.348,114.384,49.883z
					 M113.167,68.488c0,2.252-1.913,3.344-5.158,3.344c-3.25,0-4.99-1.621-4.99-4.039s2.365-3.607,6.797-3.607
					C111.019,65.109,113.167,66.234,113.167,68.488z M108.472,59.053c-3.908,0-5.683-9.135-1.084-9.135
					C110.968,49.785,113.659,59.053,108.472,59.053z M121.425,52.154v-2.971h-1.535v2.971h-3.006v1.541h3.006v2.975h1.535v-2.975
					h2.955v-1.541H121.425z"/>
			</g>
		</g>
	</g>
</g>
</svg>
