<?xml version="1.0" encoding="utf-8"?>
<!-- Generator: Adobe Illustrator 16.0.0, SVG Export Plug-In . SVG Version: 6.00 Build 0)  -->
<!DOCTYPE svg PUBLIC "-//W3C//DTD SVG 1.1//EN" "http://www.w3.org/Graphics/SVG/1.1/DTD/svg11.dtd">
<svg version="1.1" xmlns="http://www.w3.org/2000/svg" xmlns:xlink="http://www.w3.org/1999/xlink" x="0px" y="0px"
	 width="205.333px" height="120px" viewBox="0 0 205.333 120" enable-background="new 0 0 205.333 120" xml:space="preserve">
<g id="velo">
	<path display="none" fill="none" stroke="#A6A5A3" stroke-width="1.0919" stroke-miterlimit="10" d="M59.5,58.988
		c0,0.559-0.448,1.012-1,1.012h-58c-0.552,0-1-0.453-1-1.012V1.01C-0.5,0.452-0.052,0,0.5,0h58c0.552,0,1,0.452,1,1.01V58.988z"/>
	<g id="Слой_2">
		<path fill="#A6A5A3" d="M192.584,27.998c-1.085,0-2.109,0.26-3.021,0.711l-2.058-3.182l0.754-1.733h0.123
			c0.58,0,1.05-0.471,1.05-1.05c0-0.58-0.47-1.051-1.05-1.051h-5.253c-0.58,0-1.052,0.471-1.052,1.051c0,0.58,0.472,1.05,1.052,1.05
			h3.411l-0.343,0.789h-11.659c0.207-1.453-0.935-2.245-1.517-2.647c-0.148-0.102-0.3-0.208-0.368-0.275
			c-0.37-0.37-0.374-0.932-0.222-1.299c0.096-0.231,0.298-0.507,0.715-0.507h3.678c0.436,0,0.788-0.353,0.788-0.788
			s-0.353-0.788-0.788-0.788h-3.678c-0.975,0-1.787,0.554-2.171,1.482c-0.43,1.037-0.203,2.249,0.563,3.015
			c0.169,0.168,0.373,0.309,0.588,0.458c0.774,0.534,0.979,0.782,0.806,1.333l-2.07,4.401c-1.024-0.611-2.216-0.969-3.495-0.969
			c-3.772,0-6.83,3.057-6.83,6.828c0,3.773,3.057,6.831,6.83,6.831c3.772,0,6.829-3.058,6.829-6.831
			c0-1.912-0.788-3.637-2.055-4.878l0.465-0.987l8.936,6.504c0.104,0.075,0.22,0.113,0.34,0.131
			c0.011,0.002,0.026,0.003,0.039,0.004c0.028,0.004,0.057,0.015,0.084,0.015c0.007,0,0.014-0.002,0.021-0.002
			c0.008,0,0.016,0.002,0.025,0.002h0.551h3.201c0.391,3.4,3.275,6.042,6.78,6.042c3.772,0,6.83-3.058,6.83-6.831
			C199.414,31.055,196.356,27.998,192.584,27.998z M173.146,34.826c0,3.192-2.586,5.78-5.778,5.78c-3.192,0-5.779-2.588-5.779-5.78
			c0-3.19,2.587-5.777,5.779-5.777c1.118,0,2.16,0.323,3.044,0.874l-0.47,1c-0.875,1.874-1.058,2.266-2.927,3.2
			c-0.39,0.193-0.546,0.667-0.353,1.056c0.138,0.277,0.417,0.437,0.706,0.437c0.119,0,0.239-0.027,0.352-0.084
			c2.359-1.18,2.71-1.931,3.649-3.94l0.292-0.621C172.582,31.994,173.146,33.343,173.146,34.826z M188.814,30.453l2.321,3.586h-4.27
			C187.059,32.611,187.775,31.351,188.814,30.453z M182.128,33.94l-8.839-6.431l0.634-1.35h11.587L182.128,33.94z M183.804,34.039
			l2.946-6.776l1.486,2.297c-1.324,1.095-2.226,2.682-2.433,4.479H183.804z M192.584,40.606c-2.923,0-5.333-2.174-5.719-4.991h5.719
			c0.435,0,0.788-0.354,0.788-0.789c0-0.153-0.046-0.3-0.124-0.421l-0.002-0.006l-3.107-4.803c0.743-0.348,1.57-0.548,2.445-0.548
			c3.191,0,5.778,2.587,5.778,5.777C198.362,38.019,195.775,40.606,192.584,40.606z"/>
	</g>
	<path display="none" fill="none" stroke="#A6A5A3" stroke-width="1.0919" stroke-miterlimit="10" d="M59.5,118.988
		c0,0.559-0.448,1.012-1,1.012h-58c-0.552,0-1-0.453-1-1.012V61.01c0-0.558,0.448-1.01,1-1.01h58c0.552,0,1,0.452,1,1.01V118.988z"
		/>
	<g id="Слой_2_1_">
		<path fill="#FFFFFF" d="M192.584,87.998c-1.085,0-2.109,0.26-3.021,0.711l-2.058-3.182l0.754-1.732h0.123
			c0.58,0,1.05-0.471,1.05-1.051s-0.47-1.051-1.05-1.051h-5.253c-0.58,0-1.052,0.471-1.052,1.051s0.472,1.051,1.052,1.051h3.411
			l-0.343,0.789h-11.659c0.207-1.453-0.935-2.246-1.517-2.647c-0.148-0.103-0.3-0.208-0.368-0.274
			c-0.37-0.37-0.374-0.932-0.222-1.299c0.096-0.231,0.298-0.508,0.715-0.508h3.678c0.436,0,0.788-0.353,0.788-0.788
			s-0.353-0.788-0.788-0.788h-3.678c-0.975,0-1.787,0.554-2.171,1.482c-0.43,1.037-0.203,2.248,0.563,3.015
			c0.169,0.169,0.373,0.309,0.588,0.458c0.774,0.533,0.979,0.781,0.806,1.332l-2.07,4.4c-1.024-0.61-2.216-0.969-3.495-0.969
			c-3.772,0-6.83,3.057-6.83,6.828c0,3.773,3.057,6.831,6.83,6.831c3.772,0,6.829-3.058,6.829-6.831
			c0-1.912-0.788-3.637-2.055-4.878l0.465-0.987l8.936,6.505c0.104,0.075,0.22,0.113,0.34,0.131
			c0.011,0.002,0.026,0.003,0.039,0.004c0.028,0.004,0.057,0.015,0.084,0.015c0.007,0,0.014-0.002,0.021-0.002
			c0.008,0,0.016,0.002,0.025,0.002h0.551h3.201c0.391,3.4,3.275,6.042,6.78,6.042c3.772,0,6.83-3.058,6.83-6.831
			C199.414,91.055,196.356,87.998,192.584,87.998z M173.146,94.826c0,3.192-2.586,5.78-5.778,5.78c-3.192,0-5.779-2.588-5.779-5.78
			c0-3.19,2.587-5.777,5.779-5.777c1.118,0,2.16,0.322,3.044,0.874l-0.47,1c-0.875,1.874-1.058,2.266-2.927,3.2
			c-0.39,0.193-0.546,0.667-0.353,1.056c0.138,0.277,0.417,0.437,0.706,0.437c0.119,0,0.239-0.027,0.352-0.084
			c2.359-1.18,2.71-1.931,3.649-3.94l0.292-0.621C172.582,91.994,173.146,93.343,173.146,94.826z M188.814,90.453l2.321,3.586h-4.27
			C187.059,92.611,187.775,91.351,188.814,90.453z M182.128,93.94l-8.839-6.431l0.634-1.351h11.587L182.128,93.94z M183.804,94.039
			l2.946-6.775l1.486,2.297c-1.324,1.096-2.226,2.682-2.433,4.479H183.804z M192.584,100.606c-2.923,0-5.333-2.174-5.719-4.991
			h5.719c0.435,0,0.788-0.354,0.788-0.789c0-0.153-0.046-0.3-0.124-0.421l-0.002-0.006l-3.107-4.803
			c0.743-0.349,1.57-0.548,2.445-0.548c3.191,0,5.778,2.587,5.778,5.777C198.362,98.019,195.775,100.606,192.584,100.606z"/>
	</g>
</g>
<g id="metro">
	<path display="none" fill="none" stroke="#A6A5A3" stroke-width="1.0919" stroke-miterlimit="10" d="M60,58.988
		C60,59.547,59.552,60,59,60H1c-0.552,0-1-0.453-1-1.012V1.01C0,0.452,0.448,0,1,0h58c0.552,0,1,0.452,1,1.01V58.988z"/>
	<path fill="#A6A5A3" d="M133.551,38.593c1.42-0.236,2.835-1.72,2.832-3.529V21.853c0.003-1.862-1.566-3.575-3.692-3.573h-4.552
		h-4.567c-2.139-0.002-3.708,1.711-3.707,3.573v13.211c-0.001,1.81,1.414,3.293,2.832,3.529l-4.255,6.391h2.461l3.039-4.479h4.182
		h4.181l3.054,4.479h2.447L133.551,38.593z M125.722,19.644c0-0.331,0.282-0.604,0.607-0.608h1.794h1.795
		c0.326,0.005,0.608,0.278,0.608,0.608v1.037c0,0.33-0.267,0.609-0.608,0.608h-1.794h-1.794c-0.34,0.001-0.607-0.278-0.608-0.608
		V19.644L125.722,19.644z M123.483,36.665c-0.891-0.008-1.618-0.733-1.616-1.631c-0.002-0.895,0.725-1.62,1.616-1.616
		c0.9-0.004,1.627,0.722,1.631,1.616C125.111,35.932,124.383,36.657,123.483,36.665z M123.691,28.081
		c-1.022-0.007-1.855-0.706-1.854-1.854v-2.372c0.007-0.989,0.646-1.852,1.854-1.854h4.434h4.433
		c1.208,0.001,1.848,0.864,1.854,1.854v2.372c0.003,1.148-0.83,1.848-1.854,1.854h-4.433H123.691z M131.105,35.035
		c-0.002-0.895,0.723-1.621,1.615-1.617c0.9-0.004,1.627,0.723,1.632,1.617c-0.005,0.896-0.732,1.622-1.632,1.63
		C131.828,36.657,131.103,35.932,131.105,35.035z"/>
	<path display="none" fill="none" stroke="#A6A5A3" stroke-width="1.0919" stroke-miterlimit="10" d="M60,118.988
		c0,0.559-0.448,1.012-1,1.012H1c-0.552,0-1-0.453-1-1.012V61.01C0,60.452,0.448,60,1,60h58c0.552,0,1,0.452,1,1.01V118.988z"/>
	<path fill="#FFFFFF" d="M133.551,98.593c1.42-0.236,2.835-1.72,2.832-3.529V81.853c0.003-1.862-1.566-3.575-3.692-3.573h-4.552
		h-4.567c-2.139-0.002-3.708,1.711-3.707,3.573v13.211c-0.001,1.81,1.414,3.293,2.832,3.529l-4.255,6.391h2.461l3.039-4.479h4.182
		h4.181l3.054,4.479h2.447L133.551,98.593z M125.722,79.644c0-0.33,0.282-0.604,0.607-0.607h1.794h1.795
		c0.326,0.004,0.608,0.277,0.608,0.607v1.037c0,0.33-0.267,0.609-0.608,0.609h-1.794h-1.794c-0.34,0-0.607-0.279-0.608-0.609V79.644
		L125.722,79.644z M123.483,96.665c-0.891-0.008-1.618-0.733-1.616-1.631c-0.002-0.895,0.725-1.62,1.616-1.616
		c0.9-0.004,1.627,0.722,1.631,1.616C125.111,95.932,124.383,96.657,123.483,96.665z M123.691,88.081
		c-1.022-0.007-1.855-0.706-1.854-1.854v-2.372c0.007-0.989,0.646-1.852,1.854-1.854h4.434h4.433
		c1.208,0.002,1.848,0.864,1.854,1.854v2.372c0.003,1.148-0.83,1.848-1.854,1.854h-4.433H123.691z M131.105,95.035
		c-0.002-0.895,0.723-1.621,1.615-1.617c0.9-0.004,1.627,0.723,1.632,1.617c-0.005,0.896-0.732,1.622-1.632,1.63
		C131.828,96.657,131.103,95.932,131.105,95.035z"/>
</g>
<g id="pied">
	<path display="none" fill="none" stroke="#A6A5A3" stroke-width="1.0919" stroke-miterlimit="10" d="M60,58.988
		C60,59.547,59.552,60,59,60H1c-0.552,0-1-0.453-1-1.012V1.01C0,0.452,0.448,0,1,0h58c0.552,0,1,0.452,1,1.01V58.988z"/>
	<path fill="#A6A5A3" d="M83.85,26.561c-0.008,0-0.011,0-0.011,0l-3.199-0.229l-2.16-4.079c0,0-0.714-0.881-0.874-0.968
		c1.922-0.764,2.911-3.196,1.807-4.301c-0.249-0.25-0.53-0.361-0.816-0.361c-1.253,0-2.652,2.109-2.383,4.017
		c-0.153-0.047-0.337-0.07-0.542-0.07c-0.89,0-2.169,0.414-3,0.853c-1.085,0.574-4.16,2.328-4.16,2.328l0.216,4.964
		c0,0-0.036,1.501,1.003,1.584c0.021,0.002,0.04,0.002,0.06,0.002c0.868,0,0.879-1.616,0.879-1.616l-0.107-3.882l3.406-1.109
		l-6.489,17.06c0,0-0.783,1.263,0.423,1.804c0.207,0.094,0.39,0.133,0.55,0.133c0.772,0,1.024-0.891,1.024-0.891l3.954-8.633
		l4.903,3.036l1.604,5.005c0,0,0.408,1.195,1.269,1.195c0.138,0,0.287-0.031,0.447-0.103c0.835-0.365,0.419-1.862,0.419-1.862
		l-1.828-5.606l-4.819-3.866l1.962-5.678l2.379,2.935l3.99,0.292c0,0,0.011,0,0.032,0c0.176,0,1.004-0.049,0.985-0.977
		C84.753,26.591,83.955,26.561,83.85,26.561z"/>
	<path display="none" fill="none" stroke="#A6A5A3" stroke-width="1.0919" stroke-miterlimit="10" d="M60,118.988
		c0,0.559-0.447,1.012-1,1.012H1c-0.552,0-1-0.453-1-1.012V61.01C0,60.452,0.448,60,1,60h58c0.553,0,1,0.452,1,1.01V118.988z"/>
	<path fill="#FFFFFF" d="M83.85,86.561c-0.008,0-0.011,0-0.011,0l-3.199-0.229l-2.16-4.079c0,0-0.714-0.881-0.874-0.968
		c1.922-0.764,2.911-3.196,1.807-4.302c-0.249-0.249-0.53-0.36-0.816-0.36c-1.253,0-2.652,2.108-2.383,4.017
		c-0.153-0.047-0.337-0.069-0.542-0.069c-0.89,0-2.169,0.413-3,0.853c-1.085,0.574-4.16,2.328-4.16,2.328l0.216,4.964
		c0,0-0.036,1.501,1.003,1.585c0.021,0.002,0.04,0.002,0.06,0.002c0.868,0,0.879-1.617,0.879-1.617l-0.107-3.881l3.406-1.109
		l-6.489,17.06c0,0-0.783,1.263,0.423,1.804c0.207,0.094,0.39,0.133,0.55,0.133c0.772,0,1.024-0.891,1.024-0.891l3.954-8.633
		l4.903,3.036l1.604,5.005c0,0,0.408,1.195,1.269,1.195c0.138,0,0.287-0.031,0.447-0.103c0.835-0.365,0.419-1.862,0.419-1.862
		l-1.828-5.606l-4.819-3.866l1.962-5.678l2.379,2.934l3.99,0.292c0,0,0.011,0,0.032,0c0.176,0,1.004-0.049,0.985-0.977
		C84.753,86.592,83.955,86.561,83.85,86.561z"/>
</g>
<g id="voiture">
	<path fill="#A6A5A3" d="M39.167,25.943c0-0.83-0.679-1.508-1.507-1.508h-1.803l-1.308-3.399c-0.325-0.844-1.302-1.738-2.172-1.987
		c0,0-2.257-0.645-6.916-0.645c-4.66,0-6.916,0.645-6.916,0.645c-0.87,0.249-1.847,1.143-2.171,1.987l-1.307,3.398h-1.803
		c-0.829,0-1.507,0.678-1.507,1.508c0,0.829,0.679,1.507,1.507,1.507h0.644l-0.464,1.206c-0.325,0.844-0.591,2.275-0.591,3.18v7.127
		c0,1.055,0.864,1.918,1.919,1.918s1.919-0.863,1.919-1.918v-1.097h17.542v1.097c0,1.055,0.863,1.918,1.919,1.918
		c1.055,0,1.918-0.863,1.918-1.918v-7.127c0-0.904-0.266-2.336-0.59-3.18l-0.465-1.206h0.645
		C38.488,27.451,39.167,26.772,39.167,25.943z M16.606,26.388l1.54-4.179c0.104-0.283,0.437-0.515,0.738-0.515h13.157
		c0.301,0,0.633,0.232,0.737,0.514l1.54,4.179c0.104,0.283-0.058,0.515-0.359,0.515H16.965
		C16.663,26.902,16.502,26.671,16.606,26.388z M16.554,33.208c-0.833,0-1.508-0.676-1.508-1.508s0.675-1.508,1.508-1.508
		c0.833,0,1.507,0.676,1.507,1.508S17.386,33.208,16.554,33.208z M34.371,33.208c-0.834,0-1.508-0.676-1.508-1.508
		c0-0.833,0.674-1.508,1.508-1.508c0.832,0,1.507,0.675,1.507,1.508C35.878,32.532,35.203,33.208,34.371,33.208z"/>
	<path display="none" fill="none" stroke="#A6A5A3" stroke-width="1.0919" stroke-miterlimit="10" d="M60,58.988
		C60,59.547,59.553,60,59,60H1c-0.552,0-1-0.453-1-1.012V1.01C0,0.452,0.448,0,1,0h58c0.553,0,1,0.452,1,1.01V58.988z"/>
	<path fill="#FFFFFF" d="M39.167,85.943c0-0.83-0.679-1.508-1.507-1.508h-1.803l-1.308-3.398c-0.325-0.844-1.302-1.738-2.172-1.986
		c0,0-2.257-0.645-6.916-0.645c-4.66,0-6.916,0.645-6.916,0.645c-0.87,0.248-1.847,1.143-2.171,1.986l-1.307,3.398h-1.803
		c-0.829,0-1.507,0.678-1.507,1.508s0.679,1.508,1.507,1.508h0.644l-0.464,1.205c-0.325,0.844-0.591,2.275-0.591,3.18v7.127
		c0,1.055,0.864,1.918,1.919,1.918s1.919-0.863,1.919-1.918v-1.096h17.542v1.096c0,1.055,0.863,1.918,1.919,1.918
		c1.055,0,1.918-0.863,1.918-1.918v-7.127c0-0.904-0.266-2.336-0.59-3.18l-0.465-1.205h0.645
		C38.488,87.451,39.167,86.773,39.167,85.943z M16.606,86.389l1.54-4.18c0.104-0.283,0.437-0.514,0.738-0.514h13.157
		c0.301,0,0.633,0.23,0.737,0.514l1.54,4.18c0.104,0.283-0.058,0.514-0.359,0.514H16.965C16.663,86.902,16.502,86.672,16.606,86.389
		z M16.554,93.207c-0.833,0-1.508-0.676-1.508-1.508s0.675-1.508,1.508-1.508c0.833,0,1.507,0.676,1.507,1.508
		S17.386,93.207,16.554,93.207z M34.371,93.207c-0.834,0-1.508-0.676-1.508-1.508s0.674-1.508,1.508-1.508
		c0.832,0,1.507,0.676,1.507,1.508S35.203,93.207,34.371,93.207z"/>
	<path display="none" fill="none" stroke="#A6A5A3" stroke-width="1.0919" stroke-miterlimit="10" d="M60,118.988
		c0,0.559-0.447,1.012-1,1.012H1c-0.552,0-1-0.453-1-1.012V61.01C0,60.453,0.448,60,1,60h58c0.553,0,1,0.453,1,1.01V118.988z"/>
</g>
</svg>
