<?xml version="1.0" encoding="utf-8"?>
<!-- Generator: Adobe Illustrator 16.0.0, SVG Export Plug-In . SVG Version: 6.00 Build 0)  -->
<!DOCTYPE svg PUBLIC "-//W3C//DTD SVG 1.1//EN" "http://www.w3.org/Graphics/SVG/1.1/DTD/svg11.dtd">
<svg version="1.1" id="Calque_1" xmlns="http://www.w3.org/2000/svg" xmlns:xlink="http://www.w3.org/1999/xlink" x="0px" y="0px"
	 width="205.916px" height="205.915px" viewBox="0 0 205.916 205.915" enable-background="new 0 0 205.916 205.915"
	 xml:space="preserve">
<rect x="-78.333" y="-116.251" display="none" fill="#F4F4EF" width="1793" height="434"/>
<g>
	<defs>
		<path id="SVGID_1_" d="M446.667,103.449c0,57.225-46.097,103.611-102.96,103.611c-56.862,0-102.956-46.387-102.956-103.611
			c0-57.226,46.093-103.615,102.956-103.615C400.569-0.166,446.667,46.223,446.667,103.449z"/>
	</defs>
	<use xlink:href="#SVGID_1_"  overflow="visible" fill="#97CE68"/>
	<clipPath id="SVGID_2_">
		<use xlink:href="#SVGID_1_"  overflow="visible"/>
	</clipPath>
	<g clip-path="url(#SVGID_2_)">
		<path fill="#FFFFFF" d="M340.325,153.246c-98.907,0-140.298-21.146-142.012-22.045l2.266-4.369l-1.133,2.185l1.13-2.187
			c0.412,0.216,42.245,21.486,139.748,21.486c87.23,0,134.642-21.326,135.111-21.542l2.035,4.484
			C476.991,131.479,428.609,153.246,340.325,153.246z"/>
	</g>
</g>
<g>
	<defs>
		<path id="XMLID_4_" d="M205.563,102.57c0,56.962-45.922,103.137-102.568,103.137c-56.646,0-102.564-46.175-102.564-103.137
			c0-56.964,45.918-103.141,102.564-103.141C159.641-0.571,205.563,45.606,205.563,102.57z"/>
	</defs>
	<use xlink:href="#XMLID_4_"  overflow="visible" fill="#97CE68"/>
	<clipPath id="XMLID_9_">
		<use xlink:href="#XMLID_4_"  overflow="visible"/>
	</clipPath>
	<path clip-path="url(#XMLID_9_)" fill="none" stroke="#FFFFFF" stroke-width="1.0542" stroke-miterlimit="10" d="M-40.717,128.021
		c0,0,41.277,21.663,140.343,21.663c88.434,0,135.61-21.663,135.61-21.663"/>
	<path clip-path="url(#XMLID_9_)" fill="#FFFFFF" d="M87.494,112.081l7.824-24.087c0,0,9.06,6.31,20.479,10.061
		c9.917,3.258,18.737,4.116,18.737,4.116l-5.14,23.676c0,0-8.831,0.436-21.089-3.592C95.302,117.982,87.494,112.081,87.494,112.081z
		"/>
	<path clip-path="url(#XMLID_9_)" fill="#FFFFFF" d="M83.836,70.008l7.591-9.832c0,0,8.696,3.987,12.106,14.208
		c2.946,8.812-0.805,19.052-0.805,19.052l-13.481,8.852c0,0,6.004-13.857,3.352-22.319C90.564,73.501,83.836,70.008,83.836,70.008z"
		/>
	<path clip-path="url(#XMLID_9_)" fill="#FFFFFF" d="M153.199,88.37l-1.819-11.33c0,0-10.011-0.272-18.637,7.718
		c-7.43,6.883-9.611,18.191-9.611,18.191l7.662,13.12c0,0,2.112-15.732,9.09-22.417C145.229,88.538,153.199,88.37,153.199,88.37z"/>
	<path clip-path="url(#XMLID_9_)" fill="#FFFFFF" d="M102.688,141.262l3.775,10.831c0,0,9.902-1.501,16.994-10.887
		c6.108-8.091,6.28-19.61,6.28-19.61l-9.844-11.558c0,0,0.679,15.857-5.026,23.674C110.5,139.689,102.688,141.262,102.688,141.262z"
		/>
	<path clip-path="url(#XMLID_9_)" fill="#FFFFFF" d="M65.442,121.774l-9.677-8.573c0,0,4.119-7.135,14.022-11.26
		c9.998-4.152,20.591-2.343,20.591-2.343l2.259,14.573c0,0-7.997-3.415-16.438-0.847C69.75,115.288,65.442,121.774,65.442,121.774z"
		/>
	<path clip-path="url(#XMLID_9_)" fill="#FFFFFF" d="M143.708,129.438c-5.718-1.877-8.839-8.064-6.971-13.815
		c1.867-5.748,8.017-8.886,13.737-7.006c5.715,1.879,8.837,8.061,6.971,13.808C155.576,128.176,149.426,131.315,143.708,129.438z"/>
	<g clip-path="url(#XMLID_9_)">
		<path fill="#FFFFFF" d="M105.706,152.783c-103.976,0-147.488-22.354-149.29-23.304l2.382-4.619l-1.191,2.309l1.188-2.312
			c0.433,0.228,44.41,22.713,146.91,22.713c91.701,0,141.542-22.543,142.035-22.771l2.14,4.74
			C249.376,129.772,198.514,152.783,105.706,152.783z"/>
	</g>
	<path clip-path="url(#XMLID_9_)" fill="#FFFFFF" d="M86.416,49.322c3.253-1.057,6.594-0.923,9.538,0.154
		c-2.467-2.738-6.472-3.914-10.295-2.671c-3.78,1.229-6.328,4.479-6.777,8.102C80.638,52.374,83.228,50.358,86.416,49.322z"/>
	<path clip-path="url(#XMLID_9_)" fill="#FFFFFF" d="M84.756,41.332c2.771-0.9,5.616-0.787,8.122,0.131
		c-2.102-2.332-5.511-3.333-8.768-2.274c-3.218,1.045-5.388,3.812-5.77,6.899C79.837,43.929,82.042,42.214,84.756,41.332z"/>
	<path clip-path="url(#XMLID_9_)" fill="#FFFFFF" d="M156.7,68.527c2.768,2.02,4.631,4.812,5.501,7.838
		c0.745-3.619-0.672-7.565-3.925-9.938c-3.216-2.345-7.328-2.499-10.504-0.728C150.843,65.634,153.988,66.549,156.7,68.527z"/>
	<path clip-path="url(#XMLID_9_)" fill="#FFFFFF" d="M162.126,63.317c2.291,1.67,3.832,3.98,4.55,6.483
		c0.617-2.994-0.556-6.258-3.248-8.222c-2.659-1.94-6.061-2.066-8.688-0.601C157.282,60.923,159.883,61.681,162.126,63.317z"/>
</g>
</svg>
