<?xml version="1.0" encoding="utf-8"?>
<!-- Generator: Adobe Illustrator 16.0.0, SVG Export Plug-In . SVG Version: 6.00 Build 0)  -->
<!DOCTYPE svg PUBLIC "-//W3C//DTD SVG 1.1//EN" "http://www.w3.org/Graphics/SVG/1.1/DTD/svg11.dtd">
<svg version="1.1" id="Calque_1" xmlns="http://www.w3.org/2000/svg" xmlns:xlink="http://www.w3.org/1999/xlink" x="0px" y="0px"
	 width="205.916px" height="205.915px" viewBox="0 0 205.916 205.915" enable-background="new 0 0 205.916 205.915"
	 xml:space="preserve">
<rect x="-1252.084" y="-116.085" display="none" fill="#F4F4EF" width="1793" height="434"/>
<g>
	<defs>
		<ellipse id="XMLID_2_" cx="102.724" cy="103.025" rx="102.724" ry="102.89"/>
	</defs>
	<use xlink:href="#XMLID_2_"  overflow="visible" fill="#97CE68"/>
	<clipPath id="XMLID_9_">
		<use xlink:href="#XMLID_2_"  overflow="visible"/>
	</clipPath>
	<path clip-path="url(#XMLID_9_)" fill="#FFFFFF" d="M190.783,153.325c-3.836,4.234-9.64,6.898-15.8,6.898
		c-6.159,0-11.829-2.664-15.663-6.898c-3.834,4.234-9.438,6.898-15.599,6.898c-6.159,0-11.729-2.664-15.565-6.898
		c-3.831,4.234-9.385,6.898-15.545,6.898c-6.157,0-11.706-2.664-15.538-6.898c-3.835,4.234-9.374,6.898-15.532,6.898
		c-6.159,0-11.701-2.664-15.537-6.899c-3.833,4.235-9.371,6.899-15.529,6.899c-6.156,0-11.699-2.664-15.533-6.899
		c-3.831,4.235-10.234,6.899-16.396,6.899c-6.855,0-11.629-3.299-17.629-8.395v68.086h201v-60.282
		C195.916,158.629,193.559,156.392,190.783,153.325z"/>
	<path clip-path="url(#XMLID_9_)" fill="none" stroke="#FFFFFF" stroke-width="3.7752" stroke-miterlimit="10" d="M-3.247,105.484
		c0,0,31.891,11.696,108.426,11.696c68.322,0,104.77-11.696,104.77-11.696"/>
	<g clip-path="url(#XMLID_9_)">
		<path fill="#FFFFFF" d="M122.186,77.008c-3.094-1.072-6.464-0.81-8.598-0.445c-0.007-0.039-0.019-0.058-0.019-0.058l-12.427,1.169
			c0,0-3.463,3.345-5.475,4.233c-3.557,1.569-7.524,0.225-7.524,0.225l-1.113,5.918c0,0,4.903,1.916,10.595-0.48
			c1.58-0.671,3.035-1.559,4.285-2.456c0.03,0.853,0.059,1.745,0.059,2.659c0,2.752-0.314,5.345-0.664,7.391
			c-1.473,0.022-5.896,0.304-9.101,2.696c-4.53,3.376-5.093,8.378-5.093,8.378l6.131,2.198c0,0,0.641-3.933,3.522-6.007
			c2.135-1.532,5.582-1.955,8.178-2.034c-0.802,1.958-1.792,5.12-1.664,8.582c0.213,5.649,2.967,8.985,2.967,8.985l5.97-3.228
			c0,0-2.394-3.306-2.177-6.851c0.273-4.639,3.531-8.299,3.531-8.299s1.661-4.795,1.661-12.005c0-2.068-0.156-3.895-0.373-5.446
			c1.735-0.153,3.514-0.092,4.995,0.396c3.692,1.216,5.744,4.877,5.744,4.877l4.771-3.659
			C130.368,83.748,128.01,79.034,122.186,77.008z"/>
		<ellipse fill="#FFFFFF" cx="107.288" cy="68.776" rx="5.729" ry="5.74"/>
	</g>
</g>
</svg>
